// midi to JSON
// https://www.visipiano.com/midi-to-json-converter/

var bufferA = {
  "header": {
    "PPQ": 96,
    "bpm": 89.9999550000225,
    "timeSignature": [
      3,
      8
    ],
    "name": ""
  },
  "tempo": [
    {
      "absoluteTime": 0,
      "seconds": 0,
      "bpm": 89.9999550000225
    }
  ],
  "timeSignature": [
    {
      "absoluteTime": 0,
      "seconds": 0,
      "numerator": 3,
      "denominator": 3,
      "click": 24,
      "notesQ": 8
    }
  ],
  "startTime": 0,
  "duration": 272.00013599999306,
  "tracks": [
    {
      "startTime": 0,
      "duration": 0,
      "length": 0,
      "notes": [],
      "controlChanges": {},
      "id": 0
    },
    {
      "startTime": 0,
      "duration": 272.00013599999306,
      "length": 1604,
      "notes": [
        {
          "name": "G4",
          "midi": 67,
          "time": 0,
          "velocity": 0.7874015748031497,
          "duration": 0.16666675
        },
        {
          "name": "A#4",
          "midi": 70,
          "time": 0.16666675,
          "velocity": 0.7874015748031497,
          "duration": 0.16666675
        },
        {
          "name": "G4",
          "midi": 67,
          "time": 0.3333335,
          "velocity": 0.7874015748031497,
          "duration": 0.16666675000000003
        },
        {
          "name": "D4",
          "midi": 62,
          "time": 0.50000025,
          "velocity": 0.7874015748031497,
          "duration": 0.16666674999999997
        },
        {
          "name": "G4",
          "midi": 67,
          "time": 0.666667,
          "velocity": 0.7874015748031497,
          "duration": 0.16666674999999997
        },
        {
          "name": "D4",
          "midi": 62,
          "time": 0.83333375,
          "velocity": 0.7874015748031497,
          "duration": 0.16666675000000009
        },
        {
          "name": "A#3",
          "midi": 58,
          "time": 1.0000005,
          "velocity": 0.7874015748031497,
          "duration": 0.16666675000000009
        },
        {
          "name": "D4",
          "midi": 62,
          "time": 1.1666672500000002,
          "velocity": 0.7874015748031497,
          "duration": 0.16666675000000009
        },
        {
          "name": "A#3",
          "midi": 58,
          "time": 1.3333340000000002,
          "velocity": 0.7874015748031497,
          "duration": 0.16666675000000009
        },
        {
          "name": "G3",
          "midi": 55,
          "time": 1.5000007500000003,
          "velocity": 0.7874015748031497,
          "duration": 0.16666675000000009
        },
        {
          "name": "A#3",
          "midi": 58,
          "time": 1.6666675000000004,
          "velocity": 0.7874015748031497,
          "duration": 0.16666675000000009
        },
        {
          "name": "G3",
          "midi": 55,
          "time": 1.8333342500000005,
          "velocity": 0.7874015748031497,
          "duration": 0.16666675000000009
        },
        {
          "name": "D3",
          "midi": 50,
          "time": 2.0000010000000006,
          "velocity": 0.7874015748031497,
          "duration": 0.16666675000000009
        },
        {
          "name": "G3",
          "midi": 55,
          "time": 2.1666677500000007,
          "velocity": 0.7874015748031497,
          "duration": 0.16666675000000009
        },
        {
          "name": "D3",
          "midi": 50,
          "time": 2.3333345000000008,
          "velocity": 0.7874015748031497,
          "duration": 0.16666675000000009
        },
        {
          "name": "A#2",
          "midi": 46,
          "time": 2.500001250000001,
          "velocity": 0.7874015748031497,
          "duration": 0.16666675000000009
        },
        {
          "name": "D3",
          "midi": 50,
          "time": 2.666668000000001,
          "velocity": 0.7874015748031497,
          "duration": 0.16666675000000009
        },
        {
          "name": "A#2",
          "midi": 46,
          "time": 2.833334750000001,
          "velocity": 0.7874015748031497,
          "duration": 0.16666675000000009
        },
        {
          "name": "G2",
          "midi": 43,
          "time": 3.000001500000001,
          "velocity": 0.7874015748031497,
          "duration": 0.16666675000000009
        },
        {
          "name": "A#2",
          "midi": 46,
          "time": 3.166668250000001,
          "velocity": 0.7874015748031497,
          "duration": 0.16666675000000009
        },
        {
          "name": "D3",
          "midi": 50,
          "time": 3.3333350000000013,
          "velocity": 0.7874015748031497,
          "duration": 0.16666675000000009
        },
        {
          "name": "G3",
          "midi": 55,
          "time": 3.5000017500000014,
          "velocity": 0.7874015748031497,
          "duration": 0.16666675000000009
        },
        {
          "name": "A#3",
          "midi": 58,
          "time": 3.6666685000000014,
          "velocity": 0.7874015748031497,
          "duration": 0.16666675000000009
        },
        {
          "name": "D4",
          "midi": 62,
          "time": 3.8333352500000015,
          "velocity": 0.7874015748031497,
          "duration": 0.16666674999999964
        },
        {
          "name": "G4",
          "midi": 67,
          "time": 4.000002000000001,
          "velocity": 0.7874015748031497,
          "duration": 0.16666675000000009
        },
        {
          "name": "D4",
          "midi": 62,
          "time": 4.166668750000001,
          "velocity": 0.7874015748031497,
          "duration": 0.16666675000000009
        },
        {
          "name": "C4",
          "midi": 60,
          "time": 4.333335500000001,
          "velocity": 0.7874015748031497,
          "duration": 0.16666675000000009
        },
        {
          "name": "A#3",
          "midi": 58,
          "time": 4.500002250000001,
          "velocity": 0.7874015748031497,
          "duration": 0.16666675000000009
        },
        {
          "name": "A3",
          "midi": 57,
          "time": 4.6666690000000015,
          "velocity": 0.7874015748031497,
          "duration": 0.16666675000000009
        },
        {
          "name": "G3",
          "midi": 55,
          "time": 4.833335750000002,
          "velocity": 0.7874015748031497,
          "duration": 0.16666675000000009
        },
        {
          "name": "F#3",
          "midi": 54,
          "time": 5.000002500000002,
          "velocity": 0.7874015748031497,
          "duration": 0.16666675000000009
        },
        {
          "name": "D3",
          "midi": 50,
          "time": 5.166669250000002,
          "velocity": 0.7874015748031497,
          "duration": 0.16666675000000009
        },
        {
          "name": "F#3",
          "midi": 54,
          "time": 5.333336000000002,
          "velocity": 0.7874015748031497,
          "duration": 0.16666675000000009
        },
        {
          "name": "A3",
          "midi": 57,
          "time": 5.500002750000002,
          "velocity": 0.7874015748031497,
          "duration": 0.16666675000000009
        },
        {
          "name": "D4",
          "midi": 62,
          "time": 5.666669500000002,
          "velocity": 0.7874015748031497,
          "duration": 0.16666675000000009
        },
        {
          "name": "F#4",
          "midi": 66,
          "time": 5.833336250000002,
          "velocity": 0.7874015748031497,
          "duration": 0.16666675000000009
        },
        {
          "name": "A4",
          "midi": 69,
          "time": 6.000003000000002,
          "velocity": 0.7874015748031497,
          "duration": 0.16666675000000009
        },
        {
          "name": "D#4",
          "midi": 63,
          "time": 6.166669750000002,
          "velocity": 0.7874015748031497,
          "duration": 0.16666675000000009
        },
        {
          "name": "D4",
          "midi": 62,
          "time": 6.333336500000002,
          "velocity": 0.7874015748031497,
          "duration": 0.16666675000000009
        },
        {
          "name": "C4",
          "midi": 60,
          "time": 6.5000032500000025,
          "velocity": 0.7874015748031497,
          "duration": 0.16666675000000009
        },
        {
          "name": "A#3",
          "midi": 58,
          "time": 6.6666700000000025,
          "velocity": 0.7874015748031497,
          "duration": 0.16666675000000009
        },
        {
          "name": "A3",
          "midi": 57,
          "time": 6.833336750000003,
          "velocity": 0.7874015748031497,
          "duration": 0.16666675000000009
        },
        {
          "name": "G3",
          "midi": 55,
          "time": 7.000003500000003,
          "velocity": 0.7874015748031497,
          "duration": 0.16666675000000009
        },
        {
          "name": "D3",
          "midi": 50,
          "time": 7.166670250000003,
          "velocity": 0.7874015748031497,
          "duration": 0.16666675000000009
        },
        {
          "name": "G3",
          "midi": 55,
          "time": 7.333337000000003,
          "velocity": 0.7874015748031497,
          "duration": 0.16666675000000009
        },
        {
          "name": "A#3",
          "midi": 58,
          "time": 7.500003750000003,
          "velocity": 0.7874015748031497,
          "duration": 0.16666675000000009
        },
        {
          "name": "D4",
          "midi": 62,
          "time": 7.666670500000003,
          "velocity": 0.7874015748031497,
          "duration": 0.16666675000000009
        },
        {
          "name": "G4",
          "midi": 67,
          "time": 7.833337250000003,
          "velocity": 0.7874015748031497,
          "duration": 0.1666667499999992
        },
        {
          "name": "A#4",
          "midi": 70,
          "time": 8.000004000000002,
          "velocity": 0.7874015748031497,
          "duration": 0.1666667499999992
        },
        {
          "name": "G4",
          "midi": 67,
          "time": 8.166670750000002,
          "velocity": 0.7874015748031497,
          "duration": 0.1666667499999992
        },
        {
          "name": "D#4",
          "midi": 63,
          "time": 8.3333375,
          "velocity": 0.7874015748031497,
          "duration": 0.1666667499999992
        },
        {
          "name": "C4",
          "midi": 60,
          "time": 8.50000425,
          "velocity": 0.7874015748031497,
          "duration": 0.1666667499999992
        },
        {
          "name": "D#4",
          "midi": 63,
          "time": 8.666671,
          "velocity": 0.7874015748031497,
          "duration": 0.1666667499999992
        },
        {
          "name": "G4",
          "midi": 67,
          "time": 8.833337749999998,
          "velocity": 0.7874015748031497,
          "duration": 0.1666667499999992
        },
        {
          "name": "A4",
          "midi": 69,
          "time": 9.000004499999998,
          "velocity": 0.7874015748031497,
          "duration": 0.1666667499999992
        },
        {
          "name": "F4",
          "midi": 65,
          "time": 9.166671249999997,
          "velocity": 0.7874015748031497,
          "duration": 0.1666667499999992
        },
        {
          "name": "D4",
          "midi": 62,
          "time": 9.333337999999996,
          "velocity": 0.7874015748031497,
          "duration": 0.1666667499999992
        },
        {
          "name": "A#3",
          "midi": 58,
          "time": 9.500004749999995,
          "velocity": 0.7874015748031497,
          "duration": 0.1666667499999992
        },
        {
          "name": "D4",
          "midi": 62,
          "time": 9.666671499999994,
          "velocity": 0.7874015748031497,
          "duration": 0.1666667499999992
        },
        {
          "name": "F4",
          "midi": 65,
          "time": 9.833338249999994,
          "velocity": 0.7874015748031497,
          "duration": 0.1666667499999992
        },
        {
          "name": "G4",
          "midi": 67,
          "time": 10.000004999999993,
          "velocity": 0.7874015748031497,
          "duration": 0.1666667499999992
        },
        {
          "name": "D#4",
          "midi": 63,
          "time": 10.166671749999992,
          "velocity": 0.7874015748031497,
          "duration": 0.1666667499999992
        },
        {
          "name": "C4",
          "midi": 60,
          "time": 10.333338499999991,
          "velocity": 0.7874015748031497,
          "duration": 0.1666667499999992
        },
        {
          "name": "A3",
          "midi": 57,
          "time": 10.50000524999999,
          "velocity": 0.7874015748031497,
          "duration": 0.1666667499999992
        },
        {
          "name": "C4",
          "midi": 60,
          "time": 10.66667199999999,
          "velocity": 0.7874015748031497,
          "duration": 0.1666667499999992
        },
        {
          "name": "D#4",
          "midi": 63,
          "time": 10.833338749999989,
          "velocity": 0.7874015748031497,
          "duration": 0.1666667499999992
        },
        {
          "name": "D3",
          "midi": 50,
          "time": 11.000005499999988,
          "velocity": 0.7874015748031497,
          "duration": 0.1666667499999992
        },
        {
          "name": "G4",
          "midi": 67,
          "time": 11.166672249999987,
          "velocity": 0.7874015748031497,
          "duration": 0.1666667499999992
        },
        {
          "name": "F#4",
          "midi": 66,
          "time": 11.333338999999986,
          "velocity": 0.7874015748031497,
          "duration": 0.1666667499999992
        },
        {
          "name": "G4",
          "midi": 67,
          "time": 11.500005749999985,
          "velocity": 0.7874015748031497,
          "duration": 0.1666667499999992
        },
        {
          "name": "A4",
          "midi": 69,
          "time": 11.666672499999985,
          "velocity": 0.7874015748031497,
          "duration": 0.1666667499999992
        },
        {
          "name": "C4",
          "midi": 60,
          "time": 11.833339249999984,
          "velocity": 0.7874015748031497,
          "duration": 0.1666667499999992
        },
        {
          "name": "G3",
          "midi": 55,
          "time": 12.000005999999983,
          "velocity": 0.7874015748031497,
          "duration": 0.1666667499999992
        },
        {
          "name": "C4",
          "midi": 60,
          "time": 12.166672749999982,
          "velocity": 0.7874015748031497,
          "duration": 0.1666667499999992
        },
        {
          "name": "A#3",
          "midi": 58,
          "time": 12.333339499999981,
          "velocity": 0.7874015748031497,
          "duration": 0.1666667499999992
        },
        {
          "name": "C4",
          "midi": 60,
          "time": 12.50000624999998,
          "velocity": 0.7874015748031497,
          "duration": 0.1666667499999992
        },
        {
          "name": "D4",
          "midi": 62,
          "time": 12.66667299999998,
          "velocity": 0.7874015748031497,
          "duration": 0.1666667499999992
        },
        {
          "name": "F3",
          "midi": 53,
          "time": 12.833339749999979,
          "velocity": 0.7874015748031497,
          "duration": 0.1666667499999992
        },
        {
          "name": "C3",
          "midi": 48,
          "time": 13.000006499999978,
          "velocity": 0.7874015748031497,
          "duration": 0.1666667499999992
        },
        {
          "name": "F4",
          "midi": 65,
          "time": 13.166673249999977,
          "velocity": 0.7874015748031497,
          "duration": 0.1666667499999992
        },
        {
          "name": "E4",
          "midi": 64,
          "time": 13.333339999999977,
          "velocity": 0.7874015748031497,
          "duration": 0.1666667499999992
        },
        {
          "name": "F4",
          "midi": 65,
          "time": 13.500006749999976,
          "velocity": 0.7874015748031497,
          "duration": 0.1666667499999992
        },
        {
          "name": "G4",
          "midi": 67,
          "time": 13.666673499999975,
          "velocity": 0.7874015748031497,
          "duration": 0.1666667499999992
        },
        {
          "name": "A#3",
          "midi": 58,
          "time": 13.833340249999974,
          "velocity": 0.7874015748031497,
          "duration": 0.1666667499999992
        },
        {
          "name": "F3",
          "midi": 53,
          "time": 14.000006999999973,
          "velocity": 0.7874015748031497,
          "duration": 0.1666667499999992
        },
        {
          "name": "A#3",
          "midi": 58,
          "time": 14.166673749999973,
          "velocity": 0.7874015748031497,
          "duration": 0.1666667499999992
        },
        {
          "name": "A3",
          "midi": 57,
          "time": 14.333340499999972,
          "velocity": 0.7874015748031497,
          "duration": 0.1666667499999992
        },
        {
          "name": "A#3",
          "midi": 58,
          "time": 14.500007249999971,
          "velocity": 0.7874015748031497,
          "duration": 0.1666667499999992
        },
        {
          "name": "C4",
          "midi": 60,
          "time": 14.66667399999997,
          "velocity": 0.7874015748031497,
          "duration": 0.1666667499999992
        },
        {
          "name": "D#3",
          "midi": 51,
          "time": 14.83334074999997,
          "velocity": 0.7874015748031497,
          "duration": 0.1666667499999992
        },
        {
          "name": "A#2",
          "midi": 46,
          "time": 15.000007499999969,
          "velocity": 0.7874015748031497,
          "duration": 0.1666667499999992
        },
        {
          "name": "D#4",
          "midi": 63,
          "time": 15.166674249999968,
          "velocity": 0.7874015748031497,
          "duration": 0.1666667499999992
        },
        {
          "name": "D4",
          "midi": 62,
          "time": 15.333340999999967,
          "velocity": 0.7874015748031497,
          "duration": 0.1666667499999992
        },
        {
          "name": "D#4",
          "midi": 63,
          "time": 15.500007749999966,
          "velocity": 0.7874015748031497,
          "duration": 0.1666667499999992
        },
        {
          "name": "F4",
          "midi": 65,
          "time": 15.666674499999965,
          "velocity": 0.7874015748031497,
          "duration": 0.1666667499999992
        },
        {
          "name": "G#3",
          "midi": 56,
          "time": 15.833341249999965,
          "velocity": 0.7874015748031497,
          "duration": 0.16666675000000097
        },
        {
          "name": "D#3",
          "midi": 51,
          "time": 16.000007999999966,
          "velocity": 0.7874015748031497,
          "duration": 0.16666675000000097
        },
        {
          "name": "A#2",
          "midi": 46,
          "time": 16.166674749999967,
          "velocity": 0.7874015748031497,
          "duration": 0.16666675000000097
        },
        {
          "name": "D#3",
          "midi": 51,
          "time": 16.333341499999968,
          "velocity": 0.7874015748031497,
          "duration": 0.16666675000000097
        },
        {
          "name": "G3",
          "midi": 55,
          "time": 16.50000824999997,
          "velocity": 0.7874015748031497,
          "duration": 0.16666675000000097
        },
        {
          "name": "D#3",
          "midi": 51,
          "time": 16.66667499999997,
          "velocity": 0.7874015748031497,
          "duration": 0.16666675000000097
        },
        {
          "name": "G3",
          "midi": 55,
          "time": 16.83334174999997,
          "velocity": 0.7874015748031497,
          "duration": 0.16666675000000097
        },
        {
          "name": "C4",
          "midi": 60,
          "time": 17.00000849999997,
          "velocity": 0.7874015748031497,
          "duration": 0.16666675000000097
        },
        {
          "name": "G3",
          "midi": 55,
          "time": 17.166675249999972,
          "velocity": 0.7874015748031497,
          "duration": 0.16666675000000097
        },
        {
          "name": "C4",
          "midi": 60,
          "time": 17.333341999999973,
          "velocity": 0.7874015748031497,
          "duration": 0.16666675000000097
        },
        {
          "name": "D#4",
          "midi": 63,
          "time": 17.500008749999974,
          "velocity": 0.7874015748031497,
          "duration": 0.16666675000000097
        },
        {
          "name": "C4",
          "midi": 60,
          "time": 17.666675499999975,
          "velocity": 0.7874015748031497,
          "duration": 0.16666675000000097
        },
        {
          "name": "D#4",
          "midi": 63,
          "time": 17.833342249999976,
          "velocity": 0.7874015748031497,
          "duration": 0.16666675000000097
        },
        {
          "name": "F3",
          "midi": 53,
          "time": 18.000008999999977,
          "velocity": 0.7874015748031497,
          "duration": 0.16666675000000097
        },
        {
          "name": "C3",
          "midi": 48,
          "time": 18.16667574999998,
          "velocity": 0.7874015748031497,
          "duration": 0.16666675000000097
        },
        {
          "name": "F3",
          "midi": 53,
          "time": 18.33334249999998,
          "velocity": 0.7874015748031497,
          "duration": 0.16666675000000097
        },
        {
          "name": "A3",
          "midi": 57,
          "time": 18.50000924999998,
          "velocity": 0.7874015748031497,
          "duration": 0.16666675000000097
        },
        {
          "name": "F3",
          "midi": 53,
          "time": 18.66667599999998,
          "velocity": 0.7874015748031497,
          "duration": 0.16666675000000097
        },
        {
          "name": "A3",
          "midi": 57,
          "time": 18.833342749999982,
          "velocity": 0.7874015748031497,
          "duration": 0.16666675000000097
        },
        {
          "name": "D4",
          "midi": 62,
          "time": 19.000009499999983,
          "velocity": 0.7874015748031497,
          "duration": 0.16666675000000097
        },
        {
          "name": "A3",
          "midi": 57,
          "time": 19.166676249999984,
          "velocity": 0.7874015748031497,
          "duration": 0.16666675000000097
        },
        {
          "name": "D4",
          "midi": 62,
          "time": 19.333342999999985,
          "velocity": 0.7874015748031497,
          "duration": 0.16666675000000097
        },
        {
          "name": "F4",
          "midi": 65,
          "time": 19.500009749999986,
          "velocity": 0.7874015748031497,
          "duration": 0.16666675000000097
        },
        {
          "name": "D4",
          "midi": 62,
          "time": 19.666676499999987,
          "velocity": 0.7874015748031497,
          "duration": 0.16666675000000097
        },
        {
          "name": "F4",
          "midi": 65,
          "time": 19.833343249999988,
          "velocity": 0.7874015748031497,
          "duration": 0.16666675000000097
        },
        {
          "name": "G3",
          "midi": 55,
          "time": 20.00000999999999,
          "velocity": 0.7874015748031497,
          "duration": 0.16666675000000097
        },
        {
          "name": "D3",
          "midi": 50,
          "time": 20.16667674999999,
          "velocity": 0.7874015748031497,
          "duration": 0.16666675000000097
        },
        {
          "name": "G3",
          "midi": 55,
          "time": 20.33334349999999,
          "velocity": 0.7874015748031497,
          "duration": 0.16666675000000097
        },
        {
          "name": "A#3",
          "midi": 58,
          "time": 20.500010249999992,
          "velocity": 0.7874015748031497,
          "duration": 0.16666675000000097
        },
        {
          "name": "G3",
          "midi": 55,
          "time": 20.666676999999993,
          "velocity": 0.7874015748031497,
          "duration": 0.16666675000000097
        },
        {
          "name": "A#3",
          "midi": 58,
          "time": 20.833343749999994,
          "velocity": 0.7874015748031497,
          "duration": 0.16666675000000097
        },
        {
          "name": "D#4",
          "midi": 63,
          "time": 21.000010499999995,
          "velocity": 0.7874015748031497,
          "duration": 0.16666675000000097
        },
        {
          "name": "A#3",
          "midi": 58,
          "time": 21.166677249999996,
          "velocity": 0.7874015748031497,
          "duration": 0.16666675000000097
        },
        {
          "name": "D#4",
          "midi": 63,
          "time": 21.333343999999997,
          "velocity": 0.7874015748031497,
          "duration": 0.16666675000000097
        },
        {
          "name": "G4",
          "midi": 67,
          "time": 21.500010749999998,
          "velocity": 0.7874015748031497,
          "duration": 0.16666675000000097
        },
        {
          "name": "D#4",
          "midi": 63,
          "time": 21.6666775,
          "velocity": 0.7874015748031497,
          "duration": 0.16666675000000097
        },
        {
          "name": "G4",
          "midi": 67,
          "time": 21.83334425,
          "velocity": 0.7874015748031497,
          "duration": 0.16666675000000097
        },
        {
          "name": "A3",
          "midi": 57,
          "time": 22.000011,
          "velocity": 0.7874015748031497,
          "duration": 0.16666675000000097
        },
        {
          "name": "F3",
          "midi": 53,
          "time": 22.16667775,
          "velocity": 0.7874015748031497,
          "duration": 0.16666675000000097
        },
        {
          "name": "A3",
          "midi": 57,
          "time": 22.333344500000003,
          "velocity": 0.7874015748031497,
          "duration": 0.16666675000000097
        },
        {
          "name": "C4",
          "midi": 60,
          "time": 22.500011250000004,
          "velocity": 0.7874015748031497,
          "duration": 0.16666675000000097
        },
        {
          "name": "A3",
          "midi": 57,
          "time": 22.666678000000005,
          "velocity": 0.7874015748031497,
          "duration": 0.16666675000000097
        },
        {
          "name": "C4",
          "midi": 60,
          "time": 22.833344750000006,
          "velocity": 0.7874015748031497,
          "duration": 0.16666675000000097
        },
        {
          "name": "F4",
          "midi": 65,
          "time": 23.000011500000006,
          "velocity": 0.7874015748031497,
          "duration": 0.16666675000000097
        },
        {
          "name": "C4",
          "midi": 60,
          "time": 23.166678250000007,
          "velocity": 0.7874015748031497,
          "duration": 0.16666675000000097
        },
        {
          "name": "F4",
          "midi": 65,
          "time": 23.33334500000001,
          "velocity": 0.7874015748031497,
          "duration": 0.16666675000000097
        },
        {
          "name": "A4",
          "midi": 69,
          "time": 23.50001175000001,
          "velocity": 0.7874015748031497,
          "duration": 0.16666675000000097
        },
        {
          "name": "F4",
          "midi": 65,
          "time": 23.66667850000001,
          "velocity": 0.7874015748031497,
          "duration": 0.16666675000000097
        },
        {
          "name": "A4",
          "midi": 69,
          "time": 23.83334525000001,
          "velocity": 0.7874015748031497,
          "duration": 0.16666675000000097
        },
        {
          "name": "A#3",
          "midi": 58,
          "time": 24.000012000000012,
          "velocity": 0.7874015748031497,
          "duration": 0.16666675000000097
        },
        {
          "name": "C4",
          "midi": 60,
          "time": 24.166678750000013,
          "velocity": 0.7874015748031497,
          "duration": 0.16666675000000097
        },
        {
          "name": "D4",
          "midi": 62,
          "time": 24.333345500000014,
          "velocity": 0.7874015748031497,
          "duration": 0.16666675000000097
        },
        {
          "name": "A#4",
          "midi": 70,
          "time": 24.500012250000015,
          "velocity": 0.7874015748031497,
          "duration": 0.16666675000000097
        },
        {
          "name": "A4",
          "midi": 69,
          "time": 24.666679000000016,
          "velocity": 0.7874015748031497,
          "duration": 0.16666675000000097
        },
        {
          "name": "A#4",
          "midi": 70,
          "time": 24.833345750000017,
          "velocity": 0.7874015748031497,
          "duration": 0.16666675000000097
        },
        {
          "name": "C4",
          "midi": 60,
          "time": 25.000012500000018,
          "velocity": 0.7874015748031497,
          "duration": 0.16666675000000097
        },
        {
          "name": "D4",
          "midi": 62,
          "time": 25.16667925000002,
          "velocity": 0.7874015748031497,
          "duration": 0.16666675000000097
        },
        {
          "name": "D#4",
          "midi": 63,
          "time": 25.33334600000002,
          "velocity": 0.7874015748031497,
          "duration": 0.16666675000000097
        },
        {
          "name": "A#4",
          "midi": 70,
          "time": 25.50001275000002,
          "velocity": 0.7874015748031497,
          "duration": 0.16666675000000097
        },
        {
          "name": "A4",
          "midi": 69,
          "time": 25.666679500000022,
          "velocity": 0.7874015748031497,
          "duration": 0.16666675000000097
        },
        {
          "name": "A#4",
          "midi": 70,
          "time": 25.833346250000023,
          "velocity": 0.7874015748031497,
          "duration": 0.16666675000000097
        },
        {
          "name": "D4",
          "midi": 62,
          "time": 26.000013000000024,
          "velocity": 0.7874015748031497,
          "duration": 0.16666675000000097
        },
        {
          "name": "D#4",
          "midi": 63,
          "time": 26.166679750000025,
          "velocity": 0.7874015748031497,
          "duration": 0.16666675000000097
        },
        {
          "name": "F4",
          "midi": 65,
          "time": 26.333346500000026,
          "velocity": 0.7874015748031497,
          "duration": 0.16666675000000097
        },
        {
          "name": "A#4",
          "midi": 70,
          "time": 26.500013250000027,
          "velocity": 0.7874015748031497,
          "duration": 0.16666675000000097
        },
        {
          "name": "A4",
          "midi": 69,
          "time": 26.666680000000028,
          "velocity": 0.7874015748031497,
          "duration": 0.16666675000000097
        },
        {
          "name": "A#4",
          "midi": 70,
          "time": 26.83334675000003,
          "velocity": 0.7874015748031497,
          "duration": 0.16666675000000097
        },
        {
          "name": "D#4",
          "midi": 63,
          "time": 27.00001350000003,
          "velocity": 0.7874015748031497,
          "duration": 0.16666675000000097
        },
        {
          "name": "F4",
          "midi": 65,
          "time": 27.16668025000003,
          "velocity": 0.7874015748031497,
          "duration": 0.16666675000000097
        },
        {
          "name": "G4",
          "midi": 67,
          "time": 27.333347000000032,
          "velocity": 0.7874015748031497,
          "duration": 0.16666675000000097
        },
        {
          "name": "A#4",
          "midi": 70,
          "time": 27.500013750000033,
          "velocity": 0.7874015748031497,
          "duration": 0.16666675000000097
        },
        {
          "name": "A4",
          "midi": 69,
          "time": 27.666680500000034,
          "velocity": 0.7874015748031497,
          "duration": 0.16666675000000097
        },
        {
          "name": "A#4",
          "midi": 70,
          "time": 27.833347250000035,
          "velocity": 0.7874015748031497,
          "duration": 0.16666675000000097
        },
        {
          "name": "A3",
          "midi": 57,
          "time": 28.000014000000036,
          "velocity": 0.7874015748031497,
          "duration": 0.16666675000000097
        },
        {
          "name": "C4",
          "midi": 60,
          "time": 28.166680750000037,
          "velocity": 0.7874015748031497,
          "duration": 0.16666675000000097
        },
        {
          "name": "D#4",
          "midi": 63,
          "time": 28.333347500000038,
          "velocity": 0.7874015748031497,
          "duration": 0.16666675000000097
        },
        {
          "name": "G4",
          "midi": 67,
          "time": 28.50001425000004,
          "velocity": 0.7874015748031497,
          "duration": 0.16666675000000097
        },
        {
          "name": "F4",
          "midi": 65,
          "time": 28.66668100000004,
          "velocity": 0.7874015748031497,
          "duration": 0.16666675000000097
        },
        {
          "name": "D#4",
          "midi": 63,
          "time": 28.83334775000004,
          "velocity": 0.7874015748031497,
          "duration": 0.16666675000000097
        },
        {
          "name": "D4",
          "midi": 62,
          "time": 29.00001450000004,
          "velocity": 0.7874015748031497,
          "duration": 0.16666675000000097
        },
        {
          "name": "A#3",
          "midi": 58,
          "time": 29.166681250000043,
          "velocity": 0.7874015748031497,
          "duration": 0.16666675000000097
        },
        {
          "name": "D#4",
          "midi": 63,
          "time": 29.333348000000043,
          "velocity": 0.7874015748031497,
          "duration": 0.16666675000000097
        },
        {
          "name": "A#3",
          "midi": 58,
          "time": 29.500014750000044,
          "velocity": 0.7874015748031497,
          "duration": 0.16666675000000097
        },
        {
          "name": "F4",
          "midi": 65,
          "time": 29.666681500000045,
          "velocity": 0.7874015748031497,
          "duration": 0.16666675000000097
        },
        {
          "name": "G#3",
          "midi": 56,
          "time": 29.833348250000046,
          "velocity": 0.7874015748031497,
          "duration": 0.16666675000000097
        },
        {
          "name": "G3",
          "midi": 55,
          "time": 30.000015000000047,
          "velocity": 0.7874015748031497,
          "duration": 0.16666675000000097
        },
        {
          "name": "A3",
          "midi": 57,
          "time": 30.16668175000005,
          "velocity": 0.7874015748031497,
          "duration": 0.16666675000000097
        },
        {
          "name": "A#3",
          "midi": 58,
          "time": 30.33334850000005,
          "velocity": 0.7874015748031497,
          "duration": 0.16666675000000097
        },
        {
          "name": "D3",
          "midi": 50,
          "time": 30.50001525000005,
          "velocity": 0.7874015748031497,
          "duration": 0.16666675000000097
        },
        {
          "name": "C3",
          "midi": 48,
          "time": 30.66668200000005,
          "velocity": 0.7874015748031497,
          "duration": 0.16666675000000097
        },
        {
          "name": "A3",
          "midi": 57,
          "time": 30.833348750000052,
          "velocity": 0.7874015748031497,
          "duration": 0.16666675000000097
        },
        {
          "name": "A#2",
          "midi": 46,
          "time": 31.000015500000053,
          "velocity": 0.7874015748031497,
          "duration": 0.16666675000000097
        },
        {
          "name": "D3",
          "midi": 50,
          "time": 31.166682250000054,
          "velocity": 0.7874015748031497,
          "duration": 0.16666675000000097
        },
        {
          "name": "C3",
          "midi": 48,
          "time": 31.333349000000055,
          "velocity": 0.7874015748031497,
          "duration": 0.16666675000000097
        },
        {
          "name": "A#2",
          "midi": 46,
          "time": 31.500015750000056,
          "velocity": 0.7874015748031497,
          "duration": 0.16666675000000097
        },
        {
          "name": "A2",
          "midi": 45,
          "time": 31.666682500000057,
          "velocity": 0.7874015748031497,
          "duration": 0.16666675000000097
        },
        {
          "name": "G2",
          "midi": 43,
          "time": 31.833349250000058,
          "velocity": 0.7874015748031497,
          "duration": 0.16666675000000097
        },
        {
          "name": "A2",
          "midi": 45,
          "time": 32.00001600000006,
          "velocity": 0.7874015748031497,
          "duration": 0.16666674999999742
        },
        {
          "name": "G3",
          "midi": 55,
          "time": 32.16668275000006,
          "velocity": 0.7874015748031497,
          "duration": 0.16666674999999742
        },
        {
          "name": "F#3",
          "midi": 54,
          "time": 32.333349500000054,
          "velocity": 0.7874015748031497,
          "duration": 0.16666674999999742
        },
        {
          "name": "E3",
          "midi": 52,
          "time": 32.50001625000005,
          "velocity": 0.7874015748031497,
          "duration": 0.16666674999999742
        },
        {
          "name": "D3",
          "midi": 50,
          "time": 32.66668300000005,
          "velocity": 0.7874015748031497,
          "duration": 0.16666674999999742
        },
        {
          "name": "C4",
          "midi": 60,
          "time": 32.833349750000046,
          "velocity": 0.7874015748031497,
          "duration": 0.16666674999999742
        },
        {
          "name": "A#3",
          "midi": 58,
          "time": 33.000016500000044,
          "velocity": 0.7874015748031497,
          "duration": 0.16666674999999742
        },
        {
          "name": "A3",
          "midi": 57,
          "time": 33.16668325000004,
          "velocity": 0.7874015748031497,
          "duration": 0.16666674999999742
        },
        {
          "name": "G3",
          "midi": 55,
          "time": 33.33335000000004,
          "velocity": 0.7874015748031497,
          "duration": 0.16666674999999742
        },
        {
          "name": "F4",
          "midi": 65,
          "time": 33.500016750000036,
          "velocity": 0.7874015748031497,
          "duration": 0.16666674999999742
        },
        {
          "name": "E4",
          "midi": 64,
          "time": 33.66668350000003,
          "velocity": 0.7874015748031497,
          "duration": 0.16666674999999742
        },
        {
          "name": "D4",
          "midi": 62,
          "time": 33.83335025000003,
          "velocity": 0.7874015748031497,
          "duration": 0.16666674999999742
        },
        {
          "name": "C#4",
          "midi": 61,
          "time": 34.00001700000003,
          "velocity": 0.7874015748031497,
          "duration": 0.16666674999999742
        },
        {
          "name": "A#4",
          "midi": 70,
          "time": 34.166683750000026,
          "velocity": 0.7874015748031497,
          "duration": 0.16666674999999742
        },
        {
          "name": "A4",
          "midi": 69,
          "time": 34.33335050000002,
          "velocity": 0.7874015748031497,
          "duration": 0.16666674999999742
        },
        {
          "name": "G4",
          "midi": 67,
          "time": 34.50001725000002,
          "velocity": 0.7874015748031497,
          "duration": 0.16666674999999742
        },
        {
          "name": "F4",
          "midi": 65,
          "time": 34.66668400000002,
          "velocity": 0.7874015748031497,
          "duration": 0.16666674999999742
        },
        {
          "name": "E4",
          "midi": 64,
          "time": 34.833350750000015,
          "velocity": 0.7874015748031497,
          "duration": 0.16666674999999742
        },
        {
          "name": "F4",
          "midi": 65,
          "time": 35.00001750000001,
          "velocity": 0.7874015748031497,
          "duration": 0.16666674999999742
        },
        {
          "name": "D4",
          "midi": 62,
          "time": 35.16668425000001,
          "velocity": 0.7874015748031497,
          "duration": 0.16666674999999742
        },
        {
          "name": "G4",
          "midi": 67,
          "time": 35.33335100000001,
          "velocity": 0.7874015748031497,
          "duration": 0.16666674999999742
        },
        {
          "name": "D4",
          "midi": 62,
          "time": 35.500017750000005,
          "velocity": 0.7874015748031497,
          "duration": 0.16666674999999742
        },
        {
          "name": "A4",
          "midi": 69,
          "time": 35.6666845,
          "velocity": 0.7874015748031497,
          "duration": 0.16666674999999742
        },
        {
          "name": "C4",
          "midi": 60,
          "time": 35.83335125,
          "velocity": 0.7874015748031497,
          "duration": 0.16666674999999742
        },
        {
          "name": "A#3",
          "midi": 58,
          "time": 36.000018,
          "velocity": 0.7874015748031497,
          "duration": 0.16666674999999742
        },
        {
          "name": "A4",
          "midi": 69,
          "time": 36.166684749999995,
          "velocity": 0.7874015748031497,
          "duration": 0.16666674999999742
        },
        {
          "name": "G4",
          "midi": 67,
          "time": 36.33335149999999,
          "velocity": 0.7874015748031497,
          "duration": 0.16666674999999742
        },
        {
          "name": "F4",
          "midi": 65,
          "time": 36.50001824999999,
          "velocity": 0.7874015748031497,
          "duration": 0.16666674999999742
        },
        {
          "name": "E4",
          "midi": 64,
          "time": 36.66668499999999,
          "velocity": 0.7874015748031497,
          "duration": 0.16666674999999742
        },
        {
          "name": "D4",
          "midi": 62,
          "time": 36.833351749999984,
          "velocity": 0.7874015748031497,
          "duration": 0.16666674999999742
        },
        {
          "name": "E4",
          "midi": 64,
          "time": 37.00001849999998,
          "velocity": 0.7874015748031497,
          "duration": 0.16666674999999742
        },
        {
          "name": "C4",
          "midi": 60,
          "time": 37.16668524999998,
          "velocity": 0.7874015748031497,
          "duration": 0.16666674999999742
        },
        {
          "name": "F4",
          "midi": 65,
          "time": 37.33335199999998,
          "velocity": 0.7874015748031497,
          "duration": 0.16666674999999742
        },
        {
          "name": "C4",
          "midi": 60,
          "time": 37.500018749999974,
          "velocity": 0.7874015748031497,
          "duration": 0.16666674999999742
        },
        {
          "name": "G4",
          "midi": 67,
          "time": 37.66668549999997,
          "velocity": 0.7874015748031497,
          "duration": 0.16666674999999742
        },
        {
          "name": "A#3",
          "midi": 58,
          "time": 37.83335224999997,
          "velocity": 0.7874015748031497,
          "duration": 0.16666674999999742
        },
        {
          "name": "A3",
          "midi": 57,
          "time": 38.000018999999966,
          "velocity": 0.7874015748031497,
          "duration": 0.16666674999999742
        },
        {
          "name": "G4",
          "midi": 67,
          "time": 38.166685749999964,
          "velocity": 0.7874015748031497,
          "duration": 0.16666674999999742
        },
        {
          "name": "F4",
          "midi": 65,
          "time": 38.33335249999996,
          "velocity": 0.7874015748031497,
          "duration": 0.16666674999999742
        },
        {
          "name": "E4",
          "midi": 64,
          "time": 38.50001924999996,
          "velocity": 0.7874015748031497,
          "duration": 0.16666674999999742
        },
        {
          "name": "D4",
          "midi": 62,
          "time": 38.666685999999956,
          "velocity": 0.7874015748031497,
          "duration": 0.16666674999999742
        },
        {
          "name": "C#4",
          "midi": 61,
          "time": 38.83335274999995,
          "velocity": 0.7874015748031497,
          "duration": 0.16666674999999742
        },
        {
          "name": "D4",
          "midi": 62,
          "time": 39.00001949999995,
          "velocity": 0.7874015748031497,
          "duration": 0.16666674999999742
        },
        {
          "name": "A#3",
          "midi": 58,
          "time": 39.16668624999995,
          "velocity": 0.7874015748031497,
          "duration": 0.16666674999999742
        },
        {
          "name": "E4",
          "midi": 64,
          "time": 39.333352999999946,
          "velocity": 0.7874015748031497,
          "duration": 0.16666674999999742
        },
        {
          "name": "A#3",
          "midi": 58,
          "time": 39.50001974999994,
          "velocity": 0.7874015748031497,
          "duration": 0.16666674999999742
        },
        {
          "name": "F4",
          "midi": 65,
          "time": 39.66668649999994,
          "velocity": 0.7874015748031497,
          "duration": 0.16666674999999742
        },
        {
          "name": "A3",
          "midi": 57,
          "time": 39.83335324999994,
          "velocity": 0.7874015748031497,
          "duration": 0.16666674999999742
        },
        {
          "name": "G3",
          "midi": 55,
          "time": 40.000019999999935,
          "velocity": 0.7874015748031497,
          "duration": 0.16666674999999742
        },
        {
          "name": "F4",
          "midi": 65,
          "time": 40.16668674999993,
          "velocity": 0.7874015748031497,
          "duration": 0.16666674999999742
        },
        {
          "name": "E4",
          "midi": 64,
          "time": 40.33335349999993,
          "velocity": 0.7874015748031497,
          "duration": 0.16666674999999742
        },
        {
          "name": "D4",
          "midi": 62,
          "time": 40.50002024999993,
          "velocity": 0.7874015748031497,
          "duration": 0.16666674999999742
        },
        {
          "name": "C#4",
          "midi": 61,
          "time": 40.666686999999925,
          "velocity": 0.7874015748031497,
          "duration": 0.16666674999999742
        },
        {
          "name": "B3",
          "midi": 59,
          "time": 40.83335374999992,
          "velocity": 0.7874015748031497,
          "duration": 0.16666674999999742
        },
        {
          "name": "C#4",
          "midi": 61,
          "time": 41.00002049999992,
          "velocity": 0.7874015748031497,
          "duration": 0.16666674999999742
        },
        {
          "name": "A3",
          "midi": 57,
          "time": 41.16668724999992,
          "velocity": 0.7874015748031497,
          "duration": 0.16666674999999742
        },
        {
          "name": "D4",
          "midi": 62,
          "time": 41.333353999999915,
          "velocity": 0.7874015748031497,
          "duration": 0.16666674999999742
        },
        {
          "name": "A3",
          "midi": 57,
          "time": 41.50002074999991,
          "velocity": 0.7874015748031497,
          "duration": 0.16666674999999742
        },
        {
          "name": "E4",
          "midi": 64,
          "time": 41.66668749999991,
          "velocity": 0.7874015748031497,
          "duration": 0.16666674999999742
        },
        {
          "name": "G3",
          "midi": 55,
          "time": 41.83335424999991,
          "velocity": 0.7874015748031497,
          "duration": 0.16666674999999742
        },
        {
          "name": "F3",
          "midi": 53,
          "time": 42.000020999999904,
          "velocity": 0.7874015748031497,
          "duration": 0.16666674999999742
        },
        {
          "name": "D4",
          "midi": 62,
          "time": 42.1666877499999,
          "velocity": 0.7874015748031497,
          "duration": 0.16666674999999742
        },
        {
          "name": "A#3",
          "midi": 58,
          "time": 42.3333544999999,
          "velocity": 0.7874015748031497,
          "duration": 0.16666674999999742
        },
        {
          "name": "G3",
          "midi": 55,
          "time": 42.5000212499999,
          "velocity": 0.7874015748031497,
          "duration": 0.16666674999999742
        },
        {
          "name": "E3",
          "midi": 52,
          "time": 42.666687999999894,
          "velocity": 0.7874015748031497,
          "duration": 0.16666674999999742
        },
        {
          "name": "C4",
          "midi": 60,
          "time": 42.83335474999989,
          "velocity": 0.7874015748031497,
          "duration": 0.16666674999999742
        },
        {
          "name": "D3",
          "midi": 50,
          "time": 43.00002149999989,
          "velocity": 0.7874015748031497,
          "duration": 0.16666674999999742
        },
        {
          "name": "A#3",
          "midi": 58,
          "time": 43.166688249999886,
          "velocity": 0.7874015748031497,
          "duration": 0.16666674999999742
        },
        {
          "name": "G3",
          "midi": 55,
          "time": 43.333354999999884,
          "velocity": 0.7874015748031497,
          "duration": 0.16666674999999742
        },
        {
          "name": "E3",
          "midi": 52,
          "time": 43.50002174999988,
          "velocity": 0.7874015748031497,
          "duration": 0.16666674999999742
        },
        {
          "name": "C3",
          "midi": 48,
          "time": 43.66668849999988,
          "velocity": 0.7874015748031497,
          "duration": 0.16666674999999742
        },
        {
          "name": "A3",
          "midi": 57,
          "time": 43.833355249999876,
          "velocity": 0.7874015748031497,
          "duration": 0.16666674999999742
        },
        {
          "name": "A#2",
          "midi": 46,
          "time": 44.00002199999987,
          "velocity": 0.7874015748031497,
          "duration": 0.16666674999999742
        },
        {
          "name": "G3",
          "midi": 55,
          "time": 44.16668874999987,
          "velocity": 0.7874015748031497,
          "duration": 0.16666674999999742
        },
        {
          "name": "E3",
          "midi": 52,
          "time": 44.33335549999987,
          "velocity": 0.7874015748031497,
          "duration": 0.16666674999999742
        },
        {
          "name": "C#3",
          "midi": 49,
          "time": 44.500022249999866,
          "velocity": 0.7874015748031497,
          "duration": 0.16666674999999742
        },
        {
          "name": "A2",
          "midi": 45,
          "time": 44.66668899999986,
          "velocity": 0.7874015748031497,
          "duration": 0.16666674999999742
        },
        {
          "name": "F3",
          "midi": 53,
          "time": 44.83335574999986,
          "velocity": 0.7874015748031497,
          "duration": 0.16666674999999742
        },
        {
          "name": "G2",
          "midi": 43,
          "time": 45.00002249999986,
          "velocity": 0.7874015748031497,
          "duration": 0.16666674999999742
        },
        {
          "name": "F3",
          "midi": 53,
          "time": 45.166689249999855,
          "velocity": 0.7874015748031497,
          "duration": 0.16666674999999742
        },
        {
          "name": "E3",
          "midi": 52,
          "time": 45.33335599999985,
          "velocity": 0.7874015748031497,
          "duration": 0.16666674999999742
        },
        {
          "name": "D3",
          "midi": 50,
          "time": 45.50002274999985,
          "velocity": 0.7874015748031497,
          "duration": 0.16666674999999742
        },
        {
          "name": "C#3",
          "midi": 49,
          "time": 45.66668949999985,
          "velocity": 0.7874015748031497,
          "duration": 0.16666674999999742
        },
        {
          "name": "B2",
          "midi": 47,
          "time": 45.833356249999845,
          "velocity": 0.7874015748031497,
          "duration": 0.16666674999999742
        },
        {
          "name": "A2",
          "midi": 45,
          "time": 46.00002299999984,
          "velocity": 0.7874015748031497,
          "duration": 0.16666674999999742
        },
        {
          "name": "D3",
          "midi": 50,
          "time": 46.16668974999984,
          "velocity": 0.7874015748031497,
          "duration": 0.16666674999999742
        },
        {
          "name": "C#3",
          "midi": 49,
          "time": 46.33335649999984,
          "velocity": 0.7874015748031497,
          "duration": 0.16666674999999742
        },
        {
          "name": "E3",
          "midi": 52,
          "time": 46.500023249999835,
          "velocity": 0.7874015748031497,
          "duration": 0.16666674999999742
        },
        {
          "name": "D3",
          "midi": 50,
          "time": 46.66668999999983,
          "velocity": 0.7874015748031497,
          "duration": 0.16666674999999742
        },
        {
          "name": "F3",
          "midi": 53,
          "time": 46.83335674999983,
          "velocity": 0.7874015748031497,
          "duration": 0.16666674999999742
        },
        {
          "name": "A2",
          "midi": 45,
          "time": 47.00002349999983,
          "velocity": 0.7874015748031497,
          "duration": 0.16666674999999742
        },
        {
          "name": "E3",
          "midi": 52,
          "time": 47.166690249999824,
          "velocity": 0.7874015748031497,
          "duration": 0.16666674999999742
        },
        {
          "name": "D3",
          "midi": 50,
          "time": 47.33335699999982,
          "velocity": 0.7874015748031497,
          "duration": 0.16666674999999742
        },
        {
          "name": "F3",
          "midi": 53,
          "time": 47.50002374999982,
          "velocity": 0.7874015748031497,
          "duration": 0.16666674999999742
        },
        {
          "name": "E3",
          "midi": 52,
          "time": 47.66669049999982,
          "velocity": 0.7874015748031497,
          "duration": 0.16666674999999742
        },
        {
          "name": "G3",
          "midi": 55,
          "time": 47.833357249999814,
          "velocity": 0.7874015748031497,
          "duration": 0.16666674999999742
        },
        {
          "name": "A2",
          "midi": 45,
          "time": 48.00002399999981,
          "velocity": 0.7874015748031497,
          "duration": 0.16666674999999742
        },
        {
          "name": "F3",
          "midi": 53,
          "time": 48.16669074999981,
          "velocity": 0.7874015748031497,
          "duration": 0.16666674999999742
        },
        {
          "name": "E3",
          "midi": 52,
          "time": 48.333357499999806,
          "velocity": 0.7874015748031497,
          "duration": 0.16666674999999742
        },
        {
          "name": "G3",
          "midi": 55,
          "time": 48.500024249999804,
          "velocity": 0.7874015748031497,
          "duration": 0.16666674999999742
        },
        {
          "name": "F3",
          "midi": 53,
          "time": 48.6666909999998,
          "velocity": 0.7874015748031497,
          "duration": 0.16666674999999742
        },
        {
          "name": "A3",
          "midi": 57,
          "time": 48.8333577499998,
          "velocity": 0.7874015748031497,
          "duration": 0.16666674999999742
        },
        {
          "name": "A#2",
          "midi": 46,
          "time": 49.000024499999796,
          "velocity": 0.7874015748031497,
          "duration": 0.16666674999999742
        },
        {
          "name": "G3",
          "midi": 55,
          "time": 49.16669124999979,
          "velocity": 0.7874015748031497,
          "duration": 0.16666674999999742
        },
        {
          "name": "F#3",
          "midi": 54,
          "time": 49.33335799999979,
          "velocity": 0.7874015748031497,
          "duration": 0.16666674999999742
        },
        {
          "name": "A3",
          "midi": 57,
          "time": 49.50002474999979,
          "velocity": 0.7874015748031497,
          "duration": 0.16666674999999742
        },
        {
          "name": "G3",
          "midi": 55,
          "time": 49.666691499999786,
          "velocity": 0.7874015748031497,
          "duration": 0.16666674999999742
        },
        {
          "name": "A#3",
          "midi": 58,
          "time": 49.83335824999978,
          "velocity": 0.7874015748031497,
          "duration": 0.16666674999999742
        },
        {
          "name": "C#3",
          "midi": 49,
          "time": 50.00002499999978,
          "velocity": 0.7874015748031497,
          "duration": 0.16666674999999742
        },
        {
          "name": "A#3",
          "midi": 58,
          "time": 50.16669174999978,
          "velocity": 0.7874015748031497,
          "duration": 0.16666674999999742
        },
        {
          "name": "A3",
          "midi": 57,
          "time": 50.333358499999775,
          "velocity": 0.7874015748031497,
          "duration": 0.16666674999999742
        },
        {
          "name": "G3",
          "midi": 55,
          "time": 50.50002524999977,
          "velocity": 0.7874015748031497,
          "duration": 0.16666674999999742
        },
        {
          "name": "F3",
          "midi": 53,
          "time": 50.66669199999977,
          "velocity": 0.7874015748031497,
          "duration": 0.16666674999999742
        },
        {
          "name": "E3",
          "midi": 52,
          "time": 50.83335874999977,
          "velocity": 0.7874015748031497,
          "duration": 0.16666674999999742
        },
        {
          "name": "F3",
          "midi": 53,
          "time": 51.000025499999765,
          "velocity": 0.7874015748031497,
          "duration": 0.16666674999999742
        },
        {
          "name": "D3",
          "midi": 50,
          "time": 51.16669224999976,
          "velocity": 0.7874015748031497,
          "duration": 0.16666674999999742
        },
        {
          "name": "F3",
          "midi": 53,
          "time": 51.33335899999976,
          "velocity": 0.7874015748031497,
          "duration": 0.16666674999999742
        },
        {
          "name": "A3",
          "midi": 57,
          "time": 51.50002574999976,
          "velocity": 0.7874015748031497,
          "duration": 0.16666674999999742
        },
        {
          "name": "D4",
          "midi": 62,
          "time": 51.666692499999755,
          "velocity": 0.7874015748031497,
          "duration": 0.16666674999999742
        },
        {
          "name": "F4",
          "midi": 65,
          "time": 51.83335924999975,
          "velocity": 0.7874015748031497,
          "duration": 0.16666674999999742
        },
        {
          "name": "A4",
          "midi": 69,
          "time": 52.00002599999975,
          "velocity": 0.7874015748031497,
          "duration": 0.16666674999999742
        },
        {
          "name": "D4",
          "midi": 62,
          "time": 52.16669274999975,
          "velocity": 0.7874015748031497,
          "duration": 0.16666674999999742
        },
        {
          "name": "A3",
          "midi": 57,
          "time": 52.333359499999744,
          "velocity": 0.7874015748031497,
          "duration": 0.33333350000000195
        },
        {
          "name": "C#4",
          "midi": 61,
          "time": 52.666692999999746,
          "velocity": 0.7874015748031497,
          "duration": 0.33333350000000195
        },
        {
          "name": "D4",
          "midi": 62,
          "time": 53.00002649999975,
          "velocity": 0.7874015748031497,
          "duration": 1.0000004999999987
        },
        {
          "name": "G4",
          "midi": 67,
          "time": 54.00002699999975,
          "velocity": 0.7874015748031497,
          "duration": 0.16666674999999742
        },
        {
          "name": "A#4",
          "midi": 70,
          "time": 54.166693749999745,
          "velocity": 0.7874015748031497,
          "duration": 0.16666674999999742
        },
        {
          "name": "G4",
          "midi": 67,
          "time": 54.33336049999974,
          "velocity": 0.7874015748031497,
          "duration": 0.16666674999999742
        },
        {
          "name": "D4",
          "midi": 62,
          "time": 54.50002724999974,
          "velocity": 0.7874015748031497,
          "duration": 0.16666674999999742
        },
        {
          "name": "G4",
          "midi": 67,
          "time": 54.66669399999974,
          "velocity": 0.7874015748031497,
          "duration": 0.16666674999999742
        },
        {
          "name": "D4",
          "midi": 62,
          "time": 54.833360749999734,
          "velocity": 0.7874015748031497,
          "duration": 0.16666674999999742
        },
        {
          "name": "A#3",
          "midi": 58,
          "time": 55.00002749999973,
          "velocity": 0.7874015748031497,
          "duration": 0.16666674999999742
        },
        {
          "name": "D4",
          "midi": 62,
          "time": 55.16669424999973,
          "velocity": 0.7874015748031497,
          "duration": 0.16666674999999742
        },
        {
          "name": "A#3",
          "midi": 58,
          "time": 55.33336099999973,
          "velocity": 0.7874015748031497,
          "duration": 0.16666674999999742
        },
        {
          "name": "G3",
          "midi": 55,
          "time": 55.500027749999724,
          "velocity": 0.7874015748031497,
          "duration": 0.16666674999999742
        },
        {
          "name": "A#3",
          "midi": 58,
          "time": 55.66669449999972,
          "velocity": 0.7874015748031497,
          "duration": 0.16666674999999742
        },
        {
          "name": "G3",
          "midi": 55,
          "time": 55.83336124999972,
          "velocity": 0.7874015748031497,
          "duration": 0.16666674999999742
        },
        {
          "name": "D3",
          "midi": 50,
          "time": 56.000027999999716,
          "velocity": 0.7874015748031497,
          "duration": 0.16666674999999742
        },
        {
          "name": "G3",
          "midi": 55,
          "time": 56.166694749999714,
          "velocity": 0.7874015748031497,
          "duration": 0.16666674999999742
        },
        {
          "name": "D3",
          "midi": 50,
          "time": 56.33336149999971,
          "velocity": 0.7874015748031497,
          "duration": 0.16666674999999742
        },
        {
          "name": "A#2",
          "midi": 46,
          "time": 56.50002824999971,
          "velocity": 0.7874015748031497,
          "duration": 0.16666674999999742
        },
        {
          "name": "D3",
          "midi": 50,
          "time": 56.666694999999706,
          "velocity": 0.7874015748031497,
          "duration": 0.16666674999999742
        },
        {
          "name": "A#2",
          "midi": 46,
          "time": 56.8333617499997,
          "velocity": 0.7874015748031497,
          "duration": 0.16666674999999742
        },
        {
          "name": "G2",
          "midi": 43,
          "time": 57.0000284999997,
          "velocity": 0.7874015748031497,
          "duration": 0.16666674999999742
        },
        {
          "name": "A#2",
          "midi": 46,
          "time": 57.1666952499997,
          "velocity": 0.7874015748031497,
          "duration": 0.16666674999999742
        },
        {
          "name": "D3",
          "midi": 50,
          "time": 57.333361999999696,
          "velocity": 0.7874015748031497,
          "duration": 0.16666674999999742
        },
        {
          "name": "G3",
          "midi": 55,
          "time": 57.50002874999969,
          "velocity": 0.7874015748031497,
          "duration": 0.16666674999999742
        },
        {
          "name": "A#3",
          "midi": 58,
          "time": 57.66669549999969,
          "velocity": 0.7874015748031497,
          "duration": 0.16666674999999742
        },
        {
          "name": "D4",
          "midi": 62,
          "time": 57.83336224999969,
          "velocity": 0.7874015748031497,
          "duration": 0.16666674999999742
        },
        {
          "name": "G4",
          "midi": 67,
          "time": 58.000028999999685,
          "velocity": 0.7874015748031497,
          "duration": 0.16666674999999742
        },
        {
          "name": "D4",
          "midi": 62,
          "time": 58.16669574999968,
          "velocity": 0.7874015748031497,
          "duration": 0.16666674999999742
        },
        {
          "name": "C4",
          "midi": 60,
          "time": 58.33336249999968,
          "velocity": 0.7874015748031497,
          "duration": 0.16666674999999742
        },
        {
          "name": "A#3",
          "midi": 58,
          "time": 58.50002924999968,
          "velocity": 0.7874015748031497,
          "duration": 0.16666674999999742
        },
        {
          "name": "A3",
          "midi": 57,
          "time": 58.666695999999675,
          "velocity": 0.7874015748031497,
          "duration": 0.16666674999999742
        },
        {
          "name": "G3",
          "midi": 55,
          "time": 58.83336274999967,
          "velocity": 0.7874015748031497,
          "duration": 0.16666674999999742
        },
        {
          "name": "F#3",
          "midi": 54,
          "time": 59.00002949999967,
          "velocity": 0.7874015748031497,
          "duration": 0.16666674999999742
        },
        {
          "name": "D3",
          "midi": 50,
          "time": 59.16669624999967,
          "velocity": 0.7874015748031497,
          "duration": 0.16666674999999742
        },
        {
          "name": "F#3",
          "midi": 54,
          "time": 59.333362999999665,
          "velocity": 0.7874015748031497,
          "duration": 0.16666674999999742
        },
        {
          "name": "A3",
          "midi": 57,
          "time": 59.50002974999966,
          "velocity": 0.7874015748031497,
          "duration": 0.16666674999999742
        },
        {
          "name": "D4",
          "midi": 62,
          "time": 59.66669649999966,
          "velocity": 0.7874015748031497,
          "duration": 0.16666674999999742
        },
        {
          "name": "F#4",
          "midi": 66,
          "time": 59.83336324999966,
          "velocity": 0.7874015748031497,
          "duration": 0.16666674999999742
        },
        {
          "name": "A4",
          "midi": 69,
          "time": 60.000029999999654,
          "velocity": 0.7874015748031497,
          "duration": 0.16666674999999742
        },
        {
          "name": "D#4",
          "midi": 63,
          "time": 60.16669674999965,
          "velocity": 0.7874015748031497,
          "duration": 0.16666674999999742
        },
        {
          "name": "D4",
          "midi": 62,
          "time": 60.33336349999965,
          "velocity": 0.7874015748031497,
          "duration": 0.16666674999999742
        },
        {
          "name": "C4",
          "midi": 60,
          "time": 60.50003024999965,
          "velocity": 0.7874015748031497,
          "duration": 0.16666674999999742
        },
        {
          "name": "A#3",
          "midi": 58,
          "time": 60.666696999999644,
          "velocity": 0.7874015748031497,
          "duration": 0.16666674999999742
        },
        {
          "name": "A3",
          "midi": 57,
          "time": 60.83336374999964,
          "velocity": 0.7874015748031497,
          "duration": 0.16666674999999742
        },
        {
          "name": "G3",
          "midi": 55,
          "time": 61.00003049999964,
          "velocity": 0.7874015748031497,
          "duration": 0.16666674999999742
        },
        {
          "name": "D3",
          "midi": 50,
          "time": 61.166697249999636,
          "velocity": 0.7874015748031497,
          "duration": 0.16666674999999742
        },
        {
          "name": "G3",
          "midi": 55,
          "time": 61.333363999999634,
          "velocity": 0.7874015748031497,
          "duration": 0.16666674999999742
        },
        {
          "name": "A#3",
          "midi": 58,
          "time": 61.50003074999963,
          "velocity": 0.7874015748031497,
          "duration": 0.16666674999999742
        },
        {
          "name": "D4",
          "midi": 62,
          "time": 61.66669749999963,
          "velocity": 0.7874015748031497,
          "duration": 0.16666674999999742
        },
        {
          "name": "G4",
          "midi": 67,
          "time": 61.833364249999626,
          "velocity": 0.7874015748031497,
          "duration": 0.16666674999999742
        },
        {
          "name": "A#4",
          "midi": 70,
          "time": 62.00003099999962,
          "velocity": 0.7874015748031497,
          "duration": 0.16666674999999742
        },
        {
          "name": "G4",
          "midi": 67,
          "time": 62.16669774999962,
          "velocity": 0.7874015748031497,
          "duration": 0.16666674999999742
        },
        {
          "name": "D#4",
          "midi": 63,
          "time": 62.33336449999962,
          "velocity": 0.7874015748031497,
          "duration": 0.16666674999999742
        },
        {
          "name": "C4",
          "midi": 60,
          "time": 62.500031249999616,
          "velocity": 0.7874015748031497,
          "duration": 0.16666674999999742
        },
        {
          "name": "D#4",
          "midi": 63,
          "time": 62.66669799999961,
          "velocity": 0.7874015748031497,
          "duration": 0.16666674999999742
        },
        {
          "name": "G4",
          "midi": 67,
          "time": 62.83336474999961,
          "velocity": 0.7874015748031497,
          "duration": 0.16666674999999742
        },
        {
          "name": "A4",
          "midi": 69,
          "time": 63.00003149999961,
          "velocity": 0.7874015748031497,
          "duration": 0.16666674999999742
        },
        {
          "name": "F4",
          "midi": 65,
          "time": 63.166698249999605,
          "velocity": 0.7874015748031497,
          "duration": 0.16666674999999742
        },
        {
          "name": "D4",
          "midi": 62,
          "time": 63.3333649999996,
          "velocity": 0.7874015748031497,
          "duration": 0.16666674999999742
        },
        {
          "name": "A#3",
          "midi": 58,
          "time": 63.5000317499996,
          "velocity": 0.7874015748031497,
          "duration": 0.16666674999999742
        },
        {
          "name": "D4",
          "midi": 62,
          "time": 63.6666984999996,
          "velocity": 0.7874015748031497,
          "duration": 0.16666674999999742
        },
        {
          "name": "F4",
          "midi": 65,
          "time": 63.833365249999595,
          "velocity": 0.7874015748031497,
          "duration": 0.16666674999999742
        },
        {
          "name": "G4",
          "midi": 67,
          "time": 64.00003199999959,
          "velocity": 0.7874015748031497,
          "duration": 0.16666675000000453
        },
        {
          "name": "D#4",
          "midi": 63,
          "time": 64.1666987499996,
          "velocity": 0.7874015748031497,
          "duration": 0.16666675000000453
        },
        {
          "name": "C4",
          "midi": 60,
          "time": 64.3333654999996,
          "velocity": 0.7874015748031497,
          "duration": 0.16666675000000453
        },
        {
          "name": "A3",
          "midi": 57,
          "time": 64.5000322499996,
          "velocity": 0.7874015748031497,
          "duration": 0.16666675000000453
        },
        {
          "name": "C4",
          "midi": 60,
          "time": 64.66669899999961,
          "velocity": 0.7874015748031497,
          "duration": 0.16666675000000453
        },
        {
          "name": "D#4",
          "midi": 63,
          "time": 64.83336574999961,
          "velocity": 0.7874015748031497,
          "duration": 0.16666675000000453
        },
        {
          "name": "D3",
          "midi": 50,
          "time": 65.00003249999962,
          "velocity": 0.7874015748031497,
          "duration": 0.16666675000000453
        },
        {
          "name": "G4",
          "midi": 67,
          "time": 65.16669924999962,
          "velocity": 0.7874015748031497,
          "duration": 0.16666675000000453
        },
        {
          "name": "F#4",
          "midi": 66,
          "time": 65.33336599999963,
          "velocity": 0.7874015748031497,
          "duration": 0.16666675000000453
        },
        {
          "name": "G4",
          "midi": 67,
          "time": 65.50003274999963,
          "velocity": 0.7874015748031497,
          "duration": 0.16666675000000453
        },
        {
          "name": "A4",
          "midi": 69,
          "time": 65.66669949999964,
          "velocity": 0.7874015748031497,
          "duration": 0.16666675000000453
        },
        {
          "name": "C4",
          "midi": 60,
          "time": 65.83336624999964,
          "velocity": 0.7874015748031497,
          "duration": 0.16666675000000453
        },
        {
          "name": "G3",
          "midi": 55,
          "time": 66.00003299999965,
          "velocity": 0.7874015748031497,
          "duration": 0.16666675000000453
        },
        {
          "name": "C4",
          "midi": 60,
          "time": 66.16669974999965,
          "velocity": 0.7874015748031497,
          "duration": 0.16666675000000453
        },
        {
          "name": "A#3",
          "midi": 58,
          "time": 66.33336649999966,
          "velocity": 0.7874015748031497,
          "duration": 0.16666675000000453
        },
        {
          "name": "C4",
          "midi": 60,
          "time": 66.50003324999966,
          "velocity": 0.7874015748031497,
          "duration": 0.16666675000000453
        },
        {
          "name": "D4",
          "midi": 62,
          "time": 66.66669999999966,
          "velocity": 0.7874015748031497,
          "duration": 0.16666675000000453
        },
        {
          "name": "F3",
          "midi": 53,
          "time": 66.83336674999967,
          "velocity": 0.7874015748031497,
          "duration": 0.16666675000000453
        },
        {
          "name": "C3",
          "midi": 48,
          "time": 67.00003349999967,
          "velocity": 0.7874015748031497,
          "duration": 0.16666675000000453
        },
        {
          "name": "F4",
          "midi": 65,
          "time": 67.16670024999968,
          "velocity": 0.7874015748031497,
          "duration": 0.16666675000000453
        },
        {
          "name": "E4",
          "midi": 64,
          "time": 67.33336699999968,
          "velocity": 0.7874015748031497,
          "duration": 0.16666675000000453
        },
        {
          "name": "F4",
          "midi": 65,
          "time": 67.50003374999969,
          "velocity": 0.7874015748031497,
          "duration": 0.16666675000000453
        },
        {
          "name": "G4",
          "midi": 67,
          "time": 67.66670049999969,
          "velocity": 0.7874015748031497,
          "duration": 0.16666675000000453
        },
        {
          "name": "A#3",
          "midi": 58,
          "time": 67.8333672499997,
          "velocity": 0.7874015748031497,
          "duration": 0.16666675000000453
        },
        {
          "name": "F3",
          "midi": 53,
          "time": 68.0000339999997,
          "velocity": 0.7874015748031497,
          "duration": 0.16666675000000453
        },
        {
          "name": "A#3",
          "midi": 58,
          "time": 68.1667007499997,
          "velocity": 0.7874015748031497,
          "duration": 0.16666675000000453
        },
        {
          "name": "A3",
          "midi": 57,
          "time": 68.33336749999971,
          "velocity": 0.7874015748031497,
          "duration": 0.16666675000000453
        },
        {
          "name": "A#3",
          "midi": 58,
          "time": 68.50003424999971,
          "velocity": 0.7874015748031497,
          "duration": 0.16666675000000453
        },
        {
          "name": "C4",
          "midi": 60,
          "time": 68.66670099999972,
          "velocity": 0.7874015748031497,
          "duration": 0.16666675000000453
        },
        {
          "name": "D#3",
          "midi": 51,
          "time": 68.83336774999972,
          "velocity": 0.7874015748031497,
          "duration": 0.16666675000000453
        },
        {
          "name": "A#2",
          "midi": 46,
          "time": 69.00003449999973,
          "velocity": 0.7874015748031497,
          "duration": 0.16666675000000453
        },
        {
          "name": "D#4",
          "midi": 63,
          "time": 69.16670124999973,
          "velocity": 0.7874015748031497,
          "duration": 0.16666675000000453
        },
        {
          "name": "D4",
          "midi": 62,
          "time": 69.33336799999974,
          "velocity": 0.7874015748031497,
          "duration": 0.16666675000000453
        },
        {
          "name": "D#4",
          "midi": 63,
          "time": 69.50003474999974,
          "velocity": 0.7874015748031497,
          "duration": 0.16666675000000453
        },
        {
          "name": "F4",
          "midi": 65,
          "time": 69.66670149999975,
          "velocity": 0.7874015748031497,
          "duration": 0.16666675000000453
        },
        {
          "name": "G#3",
          "midi": 56,
          "time": 69.83336824999975,
          "velocity": 0.7874015748031497,
          "duration": 0.16666675000000453
        },
        {
          "name": "D#3",
          "midi": 51,
          "time": 70.00003499999976,
          "velocity": 0.7874015748031497,
          "duration": 0.16666675000000453
        },
        {
          "name": "A#2",
          "midi": 46,
          "time": 70.16670174999976,
          "velocity": 0.7874015748031497,
          "duration": 0.16666675000000453
        },
        {
          "name": "D#3",
          "midi": 51,
          "time": 70.33336849999976,
          "velocity": 0.7874015748031497,
          "duration": 0.16666675000000453
        },
        {
          "name": "G3",
          "midi": 55,
          "time": 70.50003524999977,
          "velocity": 0.7874015748031497,
          "duration": 0.16666675000000453
        },
        {
          "name": "D#3",
          "midi": 51,
          "time": 70.66670199999977,
          "velocity": 0.7874015748031497,
          "duration": 0.16666675000000453
        },
        {
          "name": "G3",
          "midi": 55,
          "time": 70.83336874999978,
          "velocity": 0.7874015748031497,
          "duration": 0.16666675000000453
        },
        {
          "name": "C4",
          "midi": 60,
          "time": 71.00003549999978,
          "velocity": 0.7874015748031497,
          "duration": 0.16666675000000453
        },
        {
          "name": "G3",
          "midi": 55,
          "time": 71.16670224999979,
          "velocity": 0.7874015748031497,
          "duration": 0.16666675000000453
        },
        {
          "name": "C4",
          "midi": 60,
          "time": 71.33336899999979,
          "velocity": 0.7874015748031497,
          "duration": 0.16666675000000453
        },
        {
          "name": "D#4",
          "midi": 63,
          "time": 71.5000357499998,
          "velocity": 0.7874015748031497,
          "duration": 0.16666675000000453
        },
        {
          "name": "C4",
          "midi": 60,
          "time": 71.6667024999998,
          "velocity": 0.7874015748031497,
          "duration": 0.16666675000000453
        },
        {
          "name": "D#4",
          "midi": 63,
          "time": 71.8333692499998,
          "velocity": 0.7874015748031497,
          "duration": 0.16666675000000453
        },
        {
          "name": "F3",
          "midi": 53,
          "time": 72.00003599999981,
          "velocity": 0.7874015748031497,
          "duration": 0.16666675000000453
        },
        {
          "name": "C3",
          "midi": 48,
          "time": 72.16670274999981,
          "velocity": 0.7874015748031497,
          "duration": 0.16666675000000453
        },
        {
          "name": "F3",
          "midi": 53,
          "time": 72.33336949999982,
          "velocity": 0.7874015748031497,
          "duration": 0.16666675000000453
        },
        {
          "name": "A3",
          "midi": 57,
          "time": 72.50003624999982,
          "velocity": 0.7874015748031497,
          "duration": 0.16666675000000453
        },
        {
          "name": "F3",
          "midi": 53,
          "time": 72.66670299999983,
          "velocity": 0.7874015748031497,
          "duration": 0.16666675000000453
        },
        {
          "name": "A3",
          "midi": 57,
          "time": 72.83336974999983,
          "velocity": 0.7874015748031497,
          "duration": 0.16666675000000453
        },
        {
          "name": "D4",
          "midi": 62,
          "time": 73.00003649999984,
          "velocity": 0.7874015748031497,
          "duration": 0.16666675000000453
        },
        {
          "name": "A3",
          "midi": 57,
          "time": 73.16670324999984,
          "velocity": 0.7874015748031497,
          "duration": 0.16666675000000453
        },
        {
          "name": "D4",
          "midi": 62,
          "time": 73.33336999999985,
          "velocity": 0.7874015748031497,
          "duration": 0.16666675000000453
        },
        {
          "name": "F4",
          "midi": 65,
          "time": 73.50003674999985,
          "velocity": 0.7874015748031497,
          "duration": 0.16666675000000453
        },
        {
          "name": "D4",
          "midi": 62,
          "time": 73.66670349999985,
          "velocity": 0.7874015748031497,
          "duration": 0.16666675000000453
        },
        {
          "name": "F4",
          "midi": 65,
          "time": 73.83337024999986,
          "velocity": 0.7874015748031497,
          "duration": 0.16666675000000453
        },
        {
          "name": "G3",
          "midi": 55,
          "time": 74.00003699999986,
          "velocity": 0.7874015748031497,
          "duration": 0.16666675000000453
        },
        {
          "name": "D3",
          "midi": 50,
          "time": 74.16670374999987,
          "velocity": 0.7874015748031497,
          "duration": 0.16666675000000453
        },
        {
          "name": "G3",
          "midi": 55,
          "time": 74.33337049999987,
          "velocity": 0.7874015748031497,
          "duration": 0.16666675000000453
        },
        {
          "name": "A#3",
          "midi": 58,
          "time": 74.50003724999988,
          "velocity": 0.7874015748031497,
          "duration": 0.16666675000000453
        },
        {
          "name": "G3",
          "midi": 55,
          "time": 74.66670399999988,
          "velocity": 0.7874015748031497,
          "duration": 0.16666675000000453
        },
        {
          "name": "A#3",
          "midi": 58,
          "time": 74.83337074999989,
          "velocity": 0.7874015748031497,
          "duration": 0.16666675000000453
        },
        {
          "name": "D#4",
          "midi": 63,
          "time": 75.00003749999989,
          "velocity": 0.7874015748031497,
          "duration": 0.16666675000000453
        },
        {
          "name": "A#3",
          "midi": 58,
          "time": 75.1667042499999,
          "velocity": 0.7874015748031497,
          "duration": 0.16666675000000453
        },
        {
          "name": "D#4",
          "midi": 63,
          "time": 75.3333709999999,
          "velocity": 0.7874015748031497,
          "duration": 0.16666675000000453
        },
        {
          "name": "G4",
          "midi": 67,
          "time": 75.5000377499999,
          "velocity": 0.7874015748031497,
          "duration": 0.16666675000000453
        },
        {
          "name": "D#4",
          "midi": 63,
          "time": 75.66670449999991,
          "velocity": 0.7874015748031497,
          "duration": 0.16666675000000453
        },
        {
          "name": "G4",
          "midi": 67,
          "time": 75.83337124999991,
          "velocity": 0.7874015748031497,
          "duration": 0.16666675000000453
        },
        {
          "name": "A3",
          "midi": 57,
          "time": 76.00003799999992,
          "velocity": 0.7874015748031497,
          "duration": 0.16666675000000453
        },
        {
          "name": "F3",
          "midi": 53,
          "time": 76.16670474999992,
          "velocity": 0.7874015748031497,
          "duration": 0.16666675000000453
        },
        {
          "name": "A3",
          "midi": 57,
          "time": 76.33337149999993,
          "velocity": 0.7874015748031497,
          "duration": 0.16666675000000453
        },
        {
          "name": "C4",
          "midi": 60,
          "time": 76.50003824999993,
          "velocity": 0.7874015748031497,
          "duration": 0.16666675000000453
        },
        {
          "name": "A3",
          "midi": 57,
          "time": 76.66670499999994,
          "velocity": 0.7874015748031497,
          "duration": 0.16666675000000453
        },
        {
          "name": "C4",
          "midi": 60,
          "time": 76.83337174999994,
          "velocity": 0.7874015748031497,
          "duration": 0.16666675000000453
        },
        {
          "name": "F4",
          "midi": 65,
          "time": 77.00003849999995,
          "velocity": 0.7874015748031497,
          "duration": 0.16666675000000453
        },
        {
          "name": "C4",
          "midi": 60,
          "time": 77.16670524999995,
          "velocity": 0.7874015748031497,
          "duration": 0.16666675000000453
        },
        {
          "name": "F4",
          "midi": 65,
          "time": 77.33337199999995,
          "velocity": 0.7874015748031497,
          "duration": 0.16666675000000453
        },
        {
          "name": "A4",
          "midi": 69,
          "time": 77.50003874999996,
          "velocity": 0.7874015748031497,
          "duration": 0.16666675000000453
        },
        {
          "name": "F4",
          "midi": 65,
          "time": 77.66670549999996,
          "velocity": 0.7874015748031497,
          "duration": 0.16666675000000453
        },
        {
          "name": "A4",
          "midi": 69,
          "time": 77.83337224999997,
          "velocity": 0.7874015748031497,
          "duration": 0.16666675000000453
        },
        {
          "name": "A#3",
          "midi": 58,
          "time": 78.00003899999997,
          "velocity": 0.7874015748031497,
          "duration": 0.16666675000000453
        },
        {
          "name": "C4",
          "midi": 60,
          "time": 78.16670574999998,
          "velocity": 0.7874015748031497,
          "duration": 0.16666675000000453
        },
        {
          "name": "D4",
          "midi": 62,
          "time": 78.33337249999998,
          "velocity": 0.7874015748031497,
          "duration": 0.16666675000000453
        },
        {
          "name": "A#4",
          "midi": 70,
          "time": 78.50003924999999,
          "velocity": 0.7874015748031497,
          "duration": 0.16666675000000453
        },
        {
          "name": "A4",
          "midi": 69,
          "time": 78.66670599999999,
          "velocity": 0.7874015748031497,
          "duration": 0.16666675000000453
        },
        {
          "name": "A#4",
          "midi": 70,
          "time": 78.83337275,
          "velocity": 0.7874015748031497,
          "duration": 0.16666675000000453
        },
        {
          "name": "C4",
          "midi": 60,
          "time": 79.0000395,
          "velocity": 0.7874015748031497,
          "duration": 0.16666675000000453
        },
        {
          "name": "D4",
          "midi": 62,
          "time": 79.16670625,
          "velocity": 0.7874015748031497,
          "duration": 0.16666675000000453
        },
        {
          "name": "D#4",
          "midi": 63,
          "time": 79.33337300000001,
          "velocity": 0.7874015748031497,
          "duration": 0.16666675000000453
        },
        {
          "name": "A#4",
          "midi": 70,
          "time": 79.50003975000001,
          "velocity": 0.7874015748031497,
          "duration": 0.16666675000000453
        },
        {
          "name": "A4",
          "midi": 69,
          "time": 79.66670650000002,
          "velocity": 0.7874015748031497,
          "duration": 0.16666675000000453
        },
        {
          "name": "A#4",
          "midi": 70,
          "time": 79.83337325000002,
          "velocity": 0.7874015748031497,
          "duration": 0.16666675000000453
        },
        {
          "name": "D4",
          "midi": 62,
          "time": 80.00004000000003,
          "velocity": 0.7874015748031497,
          "duration": 0.16666675000000453
        },
        {
          "name": "D#4",
          "midi": 63,
          "time": 80.16670675000003,
          "velocity": 0.7874015748031497,
          "duration": 0.16666675000000453
        },
        {
          "name": "F4",
          "midi": 65,
          "time": 80.33337350000004,
          "velocity": 0.7874015748031497,
          "duration": 0.16666675000000453
        },
        {
          "name": "A#4",
          "midi": 70,
          "time": 80.50004025000004,
          "velocity": 0.7874015748031497,
          "duration": 0.16666675000000453
        },
        {
          "name": "A4",
          "midi": 69,
          "time": 80.66670700000005,
          "velocity": 0.7874015748031497,
          "duration": 0.16666675000000453
        },
        {
          "name": "A#4",
          "midi": 70,
          "time": 80.83337375000005,
          "velocity": 0.7874015748031497,
          "duration": 0.16666675000000453
        },
        {
          "name": "D#4",
          "midi": 63,
          "time": 81.00004050000005,
          "velocity": 0.7874015748031497,
          "duration": 0.16666675000000453
        },
        {
          "name": "F4",
          "midi": 65,
          "time": 81.16670725000006,
          "velocity": 0.7874015748031497,
          "duration": 0.16666675000000453
        },
        {
          "name": "G4",
          "midi": 67,
          "time": 81.33337400000006,
          "velocity": 0.7874015748031497,
          "duration": 0.16666675000000453
        },
        {
          "name": "A#4",
          "midi": 70,
          "time": 81.50004075000007,
          "velocity": 0.7874015748031497,
          "duration": 0.16666675000000453
        },
        {
          "name": "A4",
          "midi": 69,
          "time": 81.66670750000007,
          "velocity": 0.7874015748031497,
          "duration": 0.16666675000000453
        },
        {
          "name": "A#4",
          "midi": 70,
          "time": 81.83337425000008,
          "velocity": 0.7874015748031497,
          "duration": 0.16666675000000453
        },
        {
          "name": "A3",
          "midi": 57,
          "time": 82.00004100000008,
          "velocity": 0.7874015748031497,
          "duration": 0.16666675000000453
        },
        {
          "name": "C4",
          "midi": 60,
          "time": 82.16670775000009,
          "velocity": 0.7874015748031497,
          "duration": 0.16666675000000453
        },
        {
          "name": "D#4",
          "midi": 63,
          "time": 82.33337450000009,
          "velocity": 0.7874015748031497,
          "duration": 0.16666675000000453
        },
        {
          "name": "G4",
          "midi": 67,
          "time": 82.5000412500001,
          "velocity": 0.7874015748031497,
          "duration": 0.16666675000000453
        },
        {
          "name": "F4",
          "midi": 65,
          "time": 82.6667080000001,
          "velocity": 0.7874015748031497,
          "duration": 0.16666675000000453
        },
        {
          "name": "D#4",
          "midi": 63,
          "time": 82.8333747500001,
          "velocity": 0.7874015748031497,
          "duration": 0.16666675000000453
        },
        {
          "name": "D4",
          "midi": 62,
          "time": 83.00004150000011,
          "velocity": 0.7874015748031497,
          "duration": 0.16666675000000453
        },
        {
          "name": "A#3",
          "midi": 58,
          "time": 83.16670825000011,
          "velocity": 0.7874015748031497,
          "duration": 0.16666675000000453
        },
        {
          "name": "D#4",
          "midi": 63,
          "time": 83.33337500000012,
          "velocity": 0.7874015748031497,
          "duration": 0.16666675000000453
        },
        {
          "name": "A#3",
          "midi": 58,
          "time": 83.50004175000012,
          "velocity": 0.7874015748031497,
          "duration": 0.16666675000000453
        },
        {
          "name": "F4",
          "midi": 65,
          "time": 83.66670850000013,
          "velocity": 0.7874015748031497,
          "duration": 0.16666675000000453
        },
        {
          "name": "G#3",
          "midi": 56,
          "time": 83.83337525000013,
          "velocity": 0.7874015748031497,
          "duration": 0.16666675000000453
        },
        {
          "name": "G3",
          "midi": 55,
          "time": 84.00004200000014,
          "velocity": 0.7874015748031497,
          "duration": 0.16666675000000453
        },
        {
          "name": "A3",
          "midi": 57,
          "time": 84.16670875000014,
          "velocity": 0.7874015748031497,
          "duration": 0.16666675000000453
        },
        {
          "name": "A#3",
          "midi": 58,
          "time": 84.33337550000014,
          "velocity": 0.7874015748031497,
          "duration": 0.16666675000000453
        },
        {
          "name": "D3",
          "midi": 50,
          "time": 84.50004225000015,
          "velocity": 0.7874015748031497,
          "duration": 0.16666675000000453
        },
        {
          "name": "C3",
          "midi": 48,
          "time": 84.66670900000015,
          "velocity": 0.7874015748031497,
          "duration": 0.16666675000000453
        },
        {
          "name": "A3",
          "midi": 57,
          "time": 84.83337575000016,
          "velocity": 0.7874015748031497,
          "duration": 0.16666675000000453
        },
        {
          "name": "A#2",
          "midi": 46,
          "time": 85.00004250000016,
          "velocity": 0.7874015748031497,
          "duration": 0.16666675000000453
        },
        {
          "name": "D3",
          "midi": 50,
          "time": 85.16670925000017,
          "velocity": 0.7874015748031497,
          "duration": 0.16666675000000453
        },
        {
          "name": "C3",
          "midi": 48,
          "time": 85.33337600000017,
          "velocity": 0.7874015748031497,
          "duration": 0.16666675000000453
        },
        {
          "name": "A#2",
          "midi": 46,
          "time": 85.50004275000018,
          "velocity": 0.7874015748031497,
          "duration": 0.16666675000000453
        },
        {
          "name": "A2",
          "midi": 45,
          "time": 85.66670950000018,
          "velocity": 0.7874015748031497,
          "duration": 0.16666675000000453
        },
        {
          "name": "G2",
          "midi": 43,
          "time": 85.83337625000019,
          "velocity": 0.7874015748031497,
          "duration": 0.16666675000000453
        },
        {
          "name": "A2",
          "midi": 45,
          "time": 86.00004300000019,
          "velocity": 0.7874015748031497,
          "duration": 0.16666675000000453
        },
        {
          "name": "G3",
          "midi": 55,
          "time": 86.1667097500002,
          "velocity": 0.7874015748031497,
          "duration": 0.16666675000000453
        },
        {
          "name": "F#3",
          "midi": 54,
          "time": 86.3333765000002,
          "velocity": 0.7874015748031497,
          "duration": 0.16666675000000453
        },
        {
          "name": "E3",
          "midi": 52,
          "time": 86.5000432500002,
          "velocity": 0.7874015748031497,
          "duration": 0.16666675000000453
        },
        {
          "name": "D3",
          "midi": 50,
          "time": 86.66671000000021,
          "velocity": 0.7874015748031497,
          "duration": 0.16666675000000453
        },
        {
          "name": "C4",
          "midi": 60,
          "time": 86.83337675000021,
          "velocity": 0.7874015748031497,
          "duration": 0.16666675000000453
        },
        {
          "name": "A#3",
          "midi": 58,
          "time": 87.00004350000022,
          "velocity": 0.7874015748031497,
          "duration": 0.16666675000000453
        },
        {
          "name": "A3",
          "midi": 57,
          "time": 87.16671025000022,
          "velocity": 0.7874015748031497,
          "duration": 0.16666675000000453
        },
        {
          "name": "G3",
          "midi": 55,
          "time": 87.33337700000023,
          "velocity": 0.7874015748031497,
          "duration": 0.16666675000000453
        },
        {
          "name": "F4",
          "midi": 65,
          "time": 87.50004375000023,
          "velocity": 0.7874015748031497,
          "duration": 0.16666675000000453
        },
        {
          "name": "E4",
          "midi": 64,
          "time": 87.66671050000024,
          "velocity": 0.7874015748031497,
          "duration": 0.16666675000000453
        },
        {
          "name": "D4",
          "midi": 62,
          "time": 87.83337725000024,
          "velocity": 0.7874015748031497,
          "duration": 0.16666675000000453
        },
        {
          "name": "C#4",
          "midi": 61,
          "time": 88.00004400000024,
          "velocity": 0.7874015748031497,
          "duration": 0.16666675000000453
        },
        {
          "name": "A#4",
          "midi": 70,
          "time": 88.16671075000025,
          "velocity": 0.7874015748031497,
          "duration": 0.16666675000000453
        },
        {
          "name": "A4",
          "midi": 69,
          "time": 88.33337750000025,
          "velocity": 0.7874015748031497,
          "duration": 0.16666675000000453
        },
        {
          "name": "G4",
          "midi": 67,
          "time": 88.50004425000026,
          "velocity": 0.7874015748031497,
          "duration": 0.16666675000000453
        },
        {
          "name": "F4",
          "midi": 65,
          "time": 88.66671100000026,
          "velocity": 0.7874015748031497,
          "duration": 0.16666675000000453
        },
        {
          "name": "E4",
          "midi": 64,
          "time": 88.83337775000027,
          "velocity": 0.7874015748031497,
          "duration": 0.16666675000000453
        },
        {
          "name": "F4",
          "midi": 65,
          "time": 89.00004450000027,
          "velocity": 0.7874015748031497,
          "duration": 0.16666675000000453
        },
        {
          "name": "D4",
          "midi": 62,
          "time": 89.16671125000028,
          "velocity": 0.7874015748031497,
          "duration": 0.16666675000000453
        },
        {
          "name": "G4",
          "midi": 67,
          "time": 89.33337800000028,
          "velocity": 0.7874015748031497,
          "duration": 0.16666675000000453
        },
        {
          "name": "D4",
          "midi": 62,
          "time": 89.50004475000028,
          "velocity": 0.7874015748031497,
          "duration": 0.16666675000000453
        },
        {
          "name": "A4",
          "midi": 69,
          "time": 89.66671150000029,
          "velocity": 0.7874015748031497,
          "duration": 0.16666675000000453
        },
        {
          "name": "C4",
          "midi": 60,
          "time": 89.8333782500003,
          "velocity": 0.7874015748031497,
          "duration": 0.16666675000000453
        },
        {
          "name": "A#3",
          "midi": 58,
          "time": 90.0000450000003,
          "velocity": 0.7874015748031497,
          "duration": 0.16666675000000453
        },
        {
          "name": "A4",
          "midi": 69,
          "time": 90.1667117500003,
          "velocity": 0.7874015748031497,
          "duration": 0.16666675000000453
        },
        {
          "name": "G4",
          "midi": 67,
          "time": 90.33337850000031,
          "velocity": 0.7874015748031497,
          "duration": 0.16666675000000453
        },
        {
          "name": "F4",
          "midi": 65,
          "time": 90.50004525000031,
          "velocity": 0.7874015748031497,
          "duration": 0.16666675000000453
        },
        {
          "name": "E4",
          "midi": 64,
          "time": 90.66671200000032,
          "velocity": 0.7874015748031497,
          "duration": 0.16666675000000453
        },
        {
          "name": "D4",
          "midi": 62,
          "time": 90.83337875000032,
          "velocity": 0.7874015748031497,
          "duration": 0.16666675000000453
        },
        {
          "name": "E4",
          "midi": 64,
          "time": 91.00004550000033,
          "velocity": 0.7874015748031497,
          "duration": 0.16666675000000453
        },
        {
          "name": "C4",
          "midi": 60,
          "time": 91.16671225000033,
          "velocity": 0.7874015748031497,
          "duration": 0.16666675000000453
        },
        {
          "name": "F4",
          "midi": 65,
          "time": 91.33337900000033,
          "velocity": 0.7874015748031497,
          "duration": 0.16666675000000453
        },
        {
          "name": "C4",
          "midi": 60,
          "time": 91.50004575000034,
          "velocity": 0.7874015748031497,
          "duration": 0.16666675000000453
        },
        {
          "name": "G4",
          "midi": 67,
          "time": 91.66671250000034,
          "velocity": 0.7874015748031497,
          "duration": 0.16666675000000453
        },
        {
          "name": "A#3",
          "midi": 58,
          "time": 91.83337925000035,
          "velocity": 0.7874015748031497,
          "duration": 0.16666675000000453
        },
        {
          "name": "A3",
          "midi": 57,
          "time": 92.00004600000035,
          "velocity": 0.7874015748031497,
          "duration": 0.16666675000000453
        },
        {
          "name": "G4",
          "midi": 67,
          "time": 92.16671275000036,
          "velocity": 0.7874015748031497,
          "duration": 0.16666675000000453
        },
        {
          "name": "F4",
          "midi": 65,
          "time": 92.33337950000036,
          "velocity": 0.7874015748031497,
          "duration": 0.16666675000000453
        },
        {
          "name": "E4",
          "midi": 64,
          "time": 92.50004625000037,
          "velocity": 0.7874015748031497,
          "duration": 0.16666675000000453
        },
        {
          "name": "D4",
          "midi": 62,
          "time": 92.66671300000037,
          "velocity": 0.7874015748031497,
          "duration": 0.16666675000000453
        },
        {
          "name": "C#4",
          "midi": 61,
          "time": 92.83337975000038,
          "velocity": 0.7874015748031497,
          "duration": 0.16666675000000453
        },
        {
          "name": "D4",
          "midi": 62,
          "time": 93.00004650000038,
          "velocity": 0.7874015748031497,
          "duration": 0.16666675000000453
        },
        {
          "name": "A#3",
          "midi": 58,
          "time": 93.16671325000038,
          "velocity": 0.7874015748031497,
          "duration": 0.16666675000000453
        },
        {
          "name": "E4",
          "midi": 64,
          "time": 93.33338000000039,
          "velocity": 0.7874015748031497,
          "duration": 0.16666675000000453
        },
        {
          "name": "A#3",
          "midi": 58,
          "time": 93.5000467500004,
          "velocity": 0.7874015748031497,
          "duration": 0.16666675000000453
        },
        {
          "name": "F4",
          "midi": 65,
          "time": 93.6667135000004,
          "velocity": 0.7874015748031497,
          "duration": 0.16666675000000453
        },
        {
          "name": "A3",
          "midi": 57,
          "time": 93.8333802500004,
          "velocity": 0.7874015748031497,
          "duration": 0.16666675000000453
        },
        {
          "name": "G3",
          "midi": 55,
          "time": 94.00004700000041,
          "velocity": 0.7874015748031497,
          "duration": 0.16666675000000453
        },
        {
          "name": "F4",
          "midi": 65,
          "time": 94.16671375000041,
          "velocity": 0.7874015748031497,
          "duration": 0.16666675000000453
        },
        {
          "name": "E4",
          "midi": 64,
          "time": 94.33338050000042,
          "velocity": 0.7874015748031497,
          "duration": 0.16666675000000453
        },
        {
          "name": "D4",
          "midi": 62,
          "time": 94.50004725000042,
          "velocity": 0.7874015748031497,
          "duration": 0.16666675000000453
        },
        {
          "name": "C#4",
          "midi": 61,
          "time": 94.66671400000043,
          "velocity": 0.7874015748031497,
          "duration": 0.16666675000000453
        },
        {
          "name": "B3",
          "midi": 59,
          "time": 94.83338075000043,
          "velocity": 0.7874015748031497,
          "duration": 0.16666675000000453
        },
        {
          "name": "C#4",
          "midi": 61,
          "time": 95.00004750000043,
          "velocity": 0.7874015748031497,
          "duration": 0.16666675000000453
        },
        {
          "name": "A3",
          "midi": 57,
          "time": 95.16671425000044,
          "velocity": 0.7874015748031497,
          "duration": 0.16666675000000453
        },
        {
          "name": "D4",
          "midi": 62,
          "time": 95.33338100000044,
          "velocity": 0.7874015748031497,
          "duration": 0.16666675000000453
        },
        {
          "name": "A3",
          "midi": 57,
          "time": 95.50004775000045,
          "velocity": 0.7874015748031497,
          "duration": 0.16666675000000453
        },
        {
          "name": "E4",
          "midi": 64,
          "time": 95.66671450000045,
          "velocity": 0.7874015748031497,
          "duration": 0.16666675000000453
        },
        {
          "name": "G3",
          "midi": 55,
          "time": 95.83338125000046,
          "velocity": 0.7874015748031497,
          "duration": 0.16666675000000453
        },
        {
          "name": "F3",
          "midi": 53,
          "time": 96.00004800000046,
          "velocity": 0.7874015748031497,
          "duration": 0.16666675000000453
        },
        {
          "name": "D4",
          "midi": 62,
          "time": 96.16671475000047,
          "velocity": 0.7874015748031497,
          "duration": 0.16666675000000453
        },
        {
          "name": "A#3",
          "midi": 58,
          "time": 96.33338150000047,
          "velocity": 0.7874015748031497,
          "duration": 0.16666675000000453
        },
        {
          "name": "G3",
          "midi": 55,
          "time": 96.50004825000048,
          "velocity": 0.7874015748031497,
          "duration": 0.16666675000000453
        },
        {
          "name": "E3",
          "midi": 52,
          "time": 96.66671500000048,
          "velocity": 0.7874015748031497,
          "duration": 0.16666675000000453
        },
        {
          "name": "C4",
          "midi": 60,
          "time": 96.83338175000048,
          "velocity": 0.7874015748031497,
          "duration": 0.16666675000000453
        },
        {
          "name": "D3",
          "midi": 50,
          "time": 97.00004850000049,
          "velocity": 0.7874015748031497,
          "duration": 0.16666675000000453
        },
        {
          "name": "A#3",
          "midi": 58,
          "time": 97.1667152500005,
          "velocity": 0.7874015748031497,
          "duration": 0.16666675000000453
        },
        {
          "name": "G3",
          "midi": 55,
          "time": 97.3333820000005,
          "velocity": 0.7874015748031497,
          "duration": 0.16666675000000453
        },
        {
          "name": "E3",
          "midi": 52,
          "time": 97.5000487500005,
          "velocity": 0.7874015748031497,
          "duration": 0.16666675000000453
        },
        {
          "name": "C3",
          "midi": 48,
          "time": 97.6667155000005,
          "velocity": 0.7874015748031497,
          "duration": 0.16666675000000453
        },
        {
          "name": "A3",
          "midi": 57,
          "time": 97.83338225000051,
          "velocity": 0.7874015748031497,
          "duration": 0.16666675000000453
        },
        {
          "name": "A#2",
          "midi": 46,
          "time": 98.00004900000052,
          "velocity": 0.7874015748031497,
          "duration": 0.16666675000000453
        },
        {
          "name": "G3",
          "midi": 55,
          "time": 98.16671575000052,
          "velocity": 0.7874015748031497,
          "duration": 0.16666675000000453
        },
        {
          "name": "E3",
          "midi": 52,
          "time": 98.33338250000052,
          "velocity": 0.7874015748031497,
          "duration": 0.16666675000000453
        },
        {
          "name": "C#3",
          "midi": 49,
          "time": 98.50004925000053,
          "velocity": 0.7874015748031497,
          "duration": 0.16666675000000453
        },
        {
          "name": "A2",
          "midi": 45,
          "time": 98.66671600000053,
          "velocity": 0.7874015748031497,
          "duration": 0.16666675000000453
        },
        {
          "name": "F3",
          "midi": 53,
          "time": 98.83338275000054,
          "velocity": 0.7874015748031497,
          "duration": 0.16666675000000453
        },
        {
          "name": "G2",
          "midi": 43,
          "time": 99.00004950000054,
          "velocity": 0.7874015748031497,
          "duration": 0.16666675000000453
        },
        {
          "name": "F3",
          "midi": 53,
          "time": 99.16671625000055,
          "velocity": 0.7874015748031497,
          "duration": 0.16666675000000453
        },
        {
          "name": "E3",
          "midi": 52,
          "time": 99.33338300000055,
          "velocity": 0.7874015748031497,
          "duration": 0.16666675000000453
        },
        {
          "name": "D3",
          "midi": 50,
          "time": 99.50004975000056,
          "velocity": 0.7874015748031497,
          "duration": 0.16666675000000453
        },
        {
          "name": "C#3",
          "midi": 49,
          "time": 99.66671650000056,
          "velocity": 0.7874015748031497,
          "duration": 0.16666675000000453
        },
        {
          "name": "B2",
          "midi": 47,
          "time": 99.83338325000057,
          "velocity": 0.7874015748031497,
          "duration": 0.16666675000000453
        },
        {
          "name": "A2",
          "midi": 45,
          "time": 100.00005000000057,
          "velocity": 0.7874015748031497,
          "duration": 0.16666675000000453
        },
        {
          "name": "D3",
          "midi": 50,
          "time": 100.16671675000057,
          "velocity": 0.7874015748031497,
          "duration": 0.16666675000000453
        },
        {
          "name": "C#3",
          "midi": 49,
          "time": 100.33338350000058,
          "velocity": 0.7874015748031497,
          "duration": 0.16666675000000453
        },
        {
          "name": "E3",
          "midi": 52,
          "time": 100.50005025000058,
          "velocity": 0.7874015748031497,
          "duration": 0.16666675000000453
        },
        {
          "name": "D3",
          "midi": 50,
          "time": 100.66671700000059,
          "velocity": 0.7874015748031497,
          "duration": 0.16666675000000453
        },
        {
          "name": "F3",
          "midi": 53,
          "time": 100.83338375000059,
          "velocity": 0.7874015748031497,
          "duration": 0.16666675000000453
        },
        {
          "name": "A2",
          "midi": 45,
          "time": 101.0000505000006,
          "velocity": 0.7874015748031497,
          "duration": 0.16666675000000453
        },
        {
          "name": "E3",
          "midi": 52,
          "time": 101.1667172500006,
          "velocity": 0.7874015748031497,
          "duration": 0.16666675000000453
        },
        {
          "name": "D3",
          "midi": 50,
          "time": 101.3333840000006,
          "velocity": 0.7874015748031497,
          "duration": 0.16666675000000453
        },
        {
          "name": "F3",
          "midi": 53,
          "time": 101.50005075000061,
          "velocity": 0.7874015748031497,
          "duration": 0.16666675000000453
        },
        {
          "name": "E3",
          "midi": 52,
          "time": 101.66671750000062,
          "velocity": 0.7874015748031497,
          "duration": 0.16666675000000453
        },
        {
          "name": "G3",
          "midi": 55,
          "time": 101.83338425000062,
          "velocity": 0.7874015748031497,
          "duration": 0.16666675000000453
        },
        {
          "name": "A2",
          "midi": 45,
          "time": 102.00005100000062,
          "velocity": 0.7874015748031497,
          "duration": 0.16666675000000453
        },
        {
          "name": "F3",
          "midi": 53,
          "time": 102.16671775000063,
          "velocity": 0.7874015748031497,
          "duration": 0.16666675000000453
        },
        {
          "name": "E3",
          "midi": 52,
          "time": 102.33338450000063,
          "velocity": 0.7874015748031497,
          "duration": 0.16666675000000453
        },
        {
          "name": "G3",
          "midi": 55,
          "time": 102.50005125000064,
          "velocity": 0.7874015748031497,
          "duration": 0.16666675000000453
        },
        {
          "name": "F3",
          "midi": 53,
          "time": 102.66671800000064,
          "velocity": 0.7874015748031497,
          "duration": 0.16666675000000453
        },
        {
          "name": "A3",
          "midi": 57,
          "time": 102.83338475000065,
          "velocity": 0.7874015748031497,
          "duration": 0.16666675000000453
        },
        {
          "name": "A#2",
          "midi": 46,
          "time": 103.00005150000065,
          "velocity": 0.7874015748031497,
          "duration": 0.16666675000000453
        },
        {
          "name": "G3",
          "midi": 55,
          "time": 103.16671825000066,
          "velocity": 0.7874015748031497,
          "duration": 0.16666675000000453
        },
        {
          "name": "F#3",
          "midi": 54,
          "time": 103.33338500000066,
          "velocity": 0.7874015748031497,
          "duration": 0.16666675000000453
        },
        {
          "name": "A3",
          "midi": 57,
          "time": 103.50005175000067,
          "velocity": 0.7874015748031497,
          "duration": 0.16666675000000453
        },
        {
          "name": "G3",
          "midi": 55,
          "time": 103.66671850000067,
          "velocity": 0.7874015748031497,
          "duration": 0.16666675000000453
        },
        {
          "name": "A#3",
          "midi": 58,
          "time": 103.83338525000067,
          "velocity": 0.7874015748031497,
          "duration": 0.16666675000000453
        },
        {
          "name": "C#3",
          "midi": 49,
          "time": 104.00005200000068,
          "velocity": 0.7874015748031497,
          "duration": 0.16666675000000453
        },
        {
          "name": "A#3",
          "midi": 58,
          "time": 104.16671875000068,
          "velocity": 0.7874015748031497,
          "duration": 0.16666675000000453
        },
        {
          "name": "A3",
          "midi": 57,
          "time": 104.33338550000069,
          "velocity": 0.7874015748031497,
          "duration": 0.16666675000000453
        },
        {
          "name": "G3",
          "midi": 55,
          "time": 104.50005225000069,
          "velocity": 0.7874015748031497,
          "duration": 0.16666675000000453
        },
        {
          "name": "F3",
          "midi": 53,
          "time": 104.6667190000007,
          "velocity": 0.7874015748031497,
          "duration": 0.16666675000000453
        },
        {
          "name": "E3",
          "midi": 52,
          "time": 104.8333857500007,
          "velocity": 0.7874015748031497,
          "duration": 0.16666675000000453
        },
        {
          "name": "F3",
          "midi": 53,
          "time": 105.0000525000007,
          "velocity": 0.7874015748031497,
          "duration": 0.16666675000000453
        },
        {
          "name": "D3",
          "midi": 50,
          "time": 105.16671925000071,
          "velocity": 0.7874015748031497,
          "duration": 0.16666675000000453
        },
        {
          "name": "F3",
          "midi": 53,
          "time": 105.33338600000071,
          "velocity": 0.7874015748031497,
          "duration": 0.16666675000000453
        },
        {
          "name": "A3",
          "midi": 57,
          "time": 105.50005275000072,
          "velocity": 0.7874015748031497,
          "duration": 0.16666675000000453
        },
        {
          "name": "D4",
          "midi": 62,
          "time": 105.66671950000072,
          "velocity": 0.7874015748031497,
          "duration": 0.16666675000000453
        },
        {
          "name": "F4",
          "midi": 65,
          "time": 105.83338625000073,
          "velocity": 0.7874015748031497,
          "duration": 0.16666675000000453
        },
        {
          "name": "A4",
          "midi": 69,
          "time": 106.00005300000073,
          "velocity": 0.7874015748031497,
          "duration": 0.16666675000000453
        },
        {
          "name": "D4",
          "midi": 62,
          "time": 106.16671975000074,
          "velocity": 0.7874015748031497,
          "duration": 0.16666675000000453
        },
        {
          "name": "A3",
          "midi": 57,
          "time": 106.33338650000074,
          "velocity": 0.7874015748031497,
          "duration": 0.33333349999999484
        },
        {
          "name": "C#4",
          "midi": 61,
          "time": 106.66672000000074,
          "velocity": 0.7874015748031497,
          "duration": 0.33333349999999484
        },
        {
          "name": "D4",
          "midi": 62,
          "time": 107.00005350000073,
          "velocity": 0.7874015748031497,
          "duration": 1.0000004999999987
        },
        {
          "name": "D3",
          "midi": 50,
          "time": 108.00005400000073,
          "velocity": 0.7874015748031497,
          "duration": 0.16666675000000453
        },
        {
          "name": "A2",
          "midi": 45,
          "time": 108.16672075000074,
          "velocity": 0.7874015748031497,
          "duration": 0.16666675000000453
        },
        {
          "name": "D3",
          "midi": 50,
          "time": 108.33338750000074,
          "velocity": 0.7874015748031497,
          "duration": 0.16666675000000453
        },
        {
          "name": "F#3",
          "midi": 54,
          "time": 108.50005425000074,
          "velocity": 0.7874015748031497,
          "duration": 0.16666675000000453
        },
        {
          "name": "D3",
          "midi": 50,
          "time": 108.66672100000075,
          "velocity": 0.7874015748031497,
          "duration": 0.16666675000000453
        },
        {
          "name": "F#3",
          "midi": 54,
          "time": 108.83338775000075,
          "velocity": 0.7874015748031497,
          "duration": 0.16666675000000453
        },
        {
          "name": "A3",
          "midi": 57,
          "time": 109.00005450000076,
          "velocity": 0.7874015748031497,
          "duration": 0.16666675000000453
        },
        {
          "name": "F#3",
          "midi": 54,
          "time": 109.16672125000076,
          "velocity": 0.7874015748031497,
          "duration": 0.16666675000000453
        },
        {
          "name": "A3",
          "midi": 57,
          "time": 109.33338800000077,
          "velocity": 0.7874015748031497,
          "duration": 0.16666675000000453
        },
        {
          "name": "D4",
          "midi": 62,
          "time": 109.50005475000077,
          "velocity": 0.7874015748031497,
          "duration": 0.16666675000000453
        },
        {
          "name": "A3",
          "midi": 57,
          "time": 109.66672150000078,
          "velocity": 0.7874015748031497,
          "duration": 0.16666675000000453
        },
        {
          "name": "D4",
          "midi": 62,
          "time": 109.83338825000078,
          "velocity": 0.7874015748031497,
          "duration": 0.16666675000000453
        },
        {
          "name": "F#4",
          "midi": 66,
          "time": 110.00005500000078,
          "velocity": 0.7874015748031497,
          "duration": 0.16666675000000453
        },
        {
          "name": "D4",
          "midi": 62,
          "time": 110.16672175000079,
          "velocity": 0.7874015748031497,
          "duration": 0.16666675000000453
        },
        {
          "name": "F#4",
          "midi": 66,
          "time": 110.3333885000008,
          "velocity": 0.7874015748031497,
          "duration": 0.16666675000000453
        },
        {
          "name": "A4",
          "midi": 69,
          "time": 110.5000552500008,
          "velocity": 0.7874015748031497,
          "duration": 0.16666675000000453
        },
        {
          "name": "F#4",
          "midi": 66,
          "time": 110.6667220000008,
          "velocity": 0.7874015748031497,
          "duration": 0.16666675000000453
        },
        {
          "name": "A4",
          "midi": 69,
          "time": 110.83338875000081,
          "velocity": 0.7874015748031497,
          "duration": 0.16666675000000453
        },
        {
          "name": "D5",
          "midi": 74,
          "time": 111.00005550000081,
          "velocity": 0.7874015748031497,
          "duration": 0.16666675000000453
        },
        {
          "name": "A4",
          "midi": 69,
          "time": 111.16672225000082,
          "velocity": 0.7874015748031497,
          "duration": 0.16666675000000453
        },
        {
          "name": "F#4",
          "midi": 66,
          "time": 111.33338900000082,
          "velocity": 0.7874015748031497,
          "duration": 0.16666675000000453
        },
        {
          "name": "D4",
          "midi": 62,
          "time": 111.50005575000083,
          "velocity": 0.7874015748031497,
          "duration": 0.16666675000000453
        },
        {
          "name": "A3",
          "midi": 57,
          "time": 111.66672250000083,
          "velocity": 0.7874015748031497,
          "duration": 0.16666675000000453
        },
        {
          "name": "F#3",
          "midi": 54,
          "time": 111.83338925000083,
          "velocity": 0.7874015748031497,
          "duration": 0.16666675000000453
        },
        {
          "name": "D3",
          "midi": 50,
          "time": 112.00005600000084,
          "velocity": 0.7874015748031497,
          "duration": 0.16666675000000453
        },
        {
          "name": "E3",
          "midi": 52,
          "time": 112.16672275000084,
          "velocity": 0.7874015748031497,
          "duration": 0.16666675000000453
        },
        {
          "name": "F#3",
          "midi": 54,
          "time": 112.33338950000085,
          "velocity": 0.7874015748031497,
          "duration": 0.16666675000000453
        },
        {
          "name": "G3",
          "midi": 55,
          "time": 112.50005625000085,
          "velocity": 0.7874015748031497,
          "duration": 0.16666675000000453
        },
        {
          "name": "A3",
          "midi": 57,
          "time": 112.66672300000086,
          "velocity": 0.7874015748031497,
          "duration": 0.16666675000000453
        },
        {
          "name": "A#3",
          "midi": 58,
          "time": 112.83338975000086,
          "velocity": 0.7874015748031497,
          "duration": 0.16666675000000453
        },
        {
          "name": "C4",
          "midi": 60,
          "time": 113.00005650000087,
          "velocity": 0.7874015748031497,
          "duration": 0.16666675000000453
        },
        {
          "name": "D#4",
          "midi": 63,
          "time": 113.16672325000087,
          "velocity": 0.7874015748031497,
          "duration": 0.16666675000000453
        },
        {
          "name": "C4",
          "midi": 60,
          "time": 113.33339000000088,
          "velocity": 0.7874015748031497,
          "duration": 0.16666675000000453
        },
        {
          "name": "A3",
          "midi": 57,
          "time": 113.50005675000088,
          "velocity": 0.7874015748031497,
          "duration": 0.16666675000000453
        },
        {
          "name": "C4",
          "midi": 60,
          "time": 113.66672350000088,
          "velocity": 0.7874015748031497,
          "duration": 0.16666675000000453
        },
        {
          "name": "A3",
          "midi": 57,
          "time": 113.83339025000089,
          "velocity": 0.7874015748031497,
          "duration": 0.16666675000000453
        },
        {
          "name": "F#3",
          "midi": 54,
          "time": 114.0000570000009,
          "velocity": 0.7874015748031497,
          "duration": 0.16666675000000453
        },
        {
          "name": "D3",
          "midi": 50,
          "time": 114.1667237500009,
          "velocity": 0.7874015748031497,
          "duration": 0.16666675000000453
        },
        {
          "name": "F#3",
          "midi": 54,
          "time": 114.3333905000009,
          "velocity": 0.7874015748031497,
          "duration": 0.16666675000000453
        },
        {
          "name": "A3",
          "midi": 57,
          "time": 114.5000572500009,
          "velocity": 0.7874015748031497,
          "duration": 0.16666675000000453
        },
        {
          "name": "D4",
          "midi": 62,
          "time": 114.66672400000091,
          "velocity": 0.7874015748031497,
          "duration": 0.16666675000000453
        },
        {
          "name": "C4",
          "midi": 60,
          "time": 114.83339075000092,
          "velocity": 0.7874015748031497,
          "duration": 0.16666675000000453
        },
        {
          "name": "A#3",
          "midi": 58,
          "time": 115.00005750000092,
          "velocity": 0.7874015748031497,
          "duration": 0.16666675000000453
        },
        {
          "name": "D4",
          "midi": 62,
          "time": 115.16672425000093,
          "velocity": 0.7874015748031497,
          "duration": 0.16666675000000453
        },
        {
          "name": "A#3",
          "midi": 58,
          "time": 115.33339100000093,
          "velocity": 0.7874015748031497,
          "duration": 0.16666675000000453
        },
        {
          "name": "G3",
          "midi": 55,
          "time": 115.50005775000093,
          "velocity": 0.7874015748031497,
          "duration": 0.16666675000000453
        },
        {
          "name": "D3",
          "midi": 50,
          "time": 115.66672450000094,
          "velocity": 0.7874015748031497,
          "duration": 0.16666675000000453
        },
        {
          "name": "A#2",
          "midi": 46,
          "time": 115.83339125000094,
          "velocity": 0.7874015748031497,
          "duration": 0.16666675000000453
        },
        {
          "name": "G2",
          "midi": 43,
          "time": 116.00005800000095,
          "velocity": 0.7874015748031497,
          "duration": 0.16666675000000453
        },
        {
          "name": "A2",
          "midi": 45,
          "time": 116.16672475000095,
          "velocity": 0.7874015748031497,
          "duration": 0.16666675000000453
        },
        {
          "name": "A#2",
          "midi": 46,
          "time": 116.33339150000096,
          "velocity": 0.7874015748031497,
          "duration": 0.16666675000000453
        },
        {
          "name": "C3",
          "midi": 48,
          "time": 116.50005825000096,
          "velocity": 0.7874015748031497,
          "duration": 0.16666675000000453
        },
        {
          "name": "D3",
          "midi": 50,
          "time": 116.66672500000097,
          "velocity": 0.7874015748031497,
          "duration": 0.16666675000000453
        },
        {
          "name": "D#3",
          "midi": 51,
          "time": 116.83339175000097,
          "velocity": 0.7874015748031497,
          "duration": 0.16666675000000453
        },
        {
          "name": "F3",
          "midi": 53,
          "time": 117.00005850000097,
          "velocity": 0.7874015748031497,
          "duration": 0.16666675000000453
        },
        {
          "name": "G#3",
          "midi": 56,
          "time": 117.16672525000098,
          "velocity": 0.7874015748031497,
          "duration": 0.16666675000000453
        },
        {
          "name": "F3",
          "midi": 53,
          "time": 117.33339200000098,
          "velocity": 0.7874015748031497,
          "duration": 0.16666675000000453
        },
        {
          "name": "D3",
          "midi": 50,
          "time": 117.50005875000099,
          "velocity": 0.7874015748031497,
          "duration": 0.16666675000000453
        },
        {
          "name": "F3",
          "midi": 53,
          "time": 117.666725500001,
          "velocity": 0.7874015748031497,
          "duration": 0.16666675000000453
        },
        {
          "name": "D3",
          "midi": 50,
          "time": 117.833392250001,
          "velocity": 0.7874015748031497,
          "duration": 0.16666675000000453
        },
        {
          "name": "B2",
          "midi": 47,
          "time": 118.000059000001,
          "velocity": 0.7874015748031497,
          "duration": 0.16666675000000453
        },
        {
          "name": "G2",
          "midi": 43,
          "time": 118.166725750001,
          "velocity": 0.7874015748031497,
          "duration": 0.16666675000000453
        },
        {
          "name": "B2",
          "midi": 47,
          "time": 118.33339250000101,
          "velocity": 0.7874015748031497,
          "duration": 0.16666675000000453
        },
        {
          "name": "D3",
          "midi": 50,
          "time": 118.50005925000102,
          "velocity": 0.7874015748031497,
          "duration": 0.16666675000000453
        },
        {
          "name": "G3",
          "midi": 55,
          "time": 118.66672600000102,
          "velocity": 0.7874015748031497,
          "duration": 0.16666675000000453
        },
        {
          "name": "F3",
          "midi": 53,
          "time": 118.83339275000102,
          "velocity": 0.7874015748031497,
          "duration": 0.16666675000000453
        },
        {
          "name": "D#3",
          "midi": 51,
          "time": 119.00005950000103,
          "velocity": 0.7874015748031497,
          "duration": 0.16666675000000453
        },
        {
          "name": "C3",
          "midi": 48,
          "time": 119.16672625000103,
          "velocity": 0.7874015748031497,
          "duration": 0.16666675000000453
        },
        {
          "name": "D#3",
          "midi": 51,
          "time": 119.33339300000104,
          "velocity": 0.7874015748031497,
          "duration": 0.16666675000000453
        },
        {
          "name": "G3",
          "midi": 55,
          "time": 119.50005975000104,
          "velocity": 0.7874015748031497,
          "duration": 0.16666675000000453
        },
        {
          "name": "C4",
          "midi": 60,
          "time": 119.66672650000105,
          "velocity": 0.7874015748031497,
          "duration": 0.16666675000000453
        },
        {
          "name": "D4",
          "midi": 62,
          "time": 119.83339325000105,
          "velocity": 0.7874015748031497,
          "duration": 0.16666675000000453
        },
        {
          "name": "D#4",
          "midi": 63,
          "time": 120.00006000000106,
          "velocity": 0.7874015748031497,
          "duration": 0.16666675000000453
        },
        {
          "name": "C4",
          "midi": 60,
          "time": 120.16672675000106,
          "velocity": 0.7874015748031497,
          "duration": 0.16666675000000453
        },
        {
          "name": "G#3",
          "midi": 56,
          "time": 120.33339350000107,
          "velocity": 0.7874015748031497,
          "duration": 0.16666675000000453
        },
        {
          "name": "F3",
          "midi": 53,
          "time": 120.50006025000107,
          "velocity": 0.7874015748031497,
          "duration": 0.16666675000000453
        },
        {
          "name": "G#3",
          "midi": 56,
          "time": 120.66672700000107,
          "velocity": 0.7874015748031497,
          "duration": 0.16666675000000453
        },
        {
          "name": "C4",
          "midi": 60,
          "time": 120.83339375000108,
          "velocity": 0.7874015748031497,
          "duration": 0.16666675000000453
        },
        {
          "name": "D4",
          "midi": 62,
          "time": 121.00006050000108,
          "velocity": 0.7874015748031497,
          "duration": 0.16666675000000453
        },
        {
          "name": "A#3",
          "midi": 58,
          "time": 121.16672725000109,
          "velocity": 0.7874015748031497,
          "duration": 0.16666675000000453
        },
        {
          "name": "G3",
          "midi": 55,
          "time": 121.33339400000109,
          "velocity": 0.7874015748031497,
          "duration": 0.16666675000000453
        },
        {
          "name": "D#3",
          "midi": 51,
          "time": 121.5000607500011,
          "velocity": 0.7874015748031497,
          "duration": 0.16666675000000453
        },
        {
          "name": "G3",
          "midi": 55,
          "time": 121.6667275000011,
          "velocity": 0.7874015748031497,
          "duration": 0.16666675000000453
        },
        {
          "name": "A#3",
          "midi": 58,
          "time": 121.8333942500011,
          "velocity": 0.7874015748031497,
          "duration": 0.16666675000000453
        },
        {
          "name": "C4",
          "midi": 60,
          "time": 122.00006100000111,
          "velocity": 0.7874015748031497,
          "duration": 0.16666675000000453
        },
        {
          "name": "G#3",
          "midi": 56,
          "time": 122.16672775000112,
          "velocity": 0.7874015748031497,
          "duration": 0.16666675000000453
        },
        {
          "name": "F3",
          "midi": 53,
          "time": 122.33339450000112,
          "velocity": 0.7874015748031497,
          "duration": 0.16666675000000453
        },
        {
          "name": "D3",
          "midi": 50,
          "time": 122.50006125000112,
          "velocity": 0.7874015748031497,
          "duration": 0.16666675000000453
        },
        {
          "name": "F3",
          "midi": 53,
          "time": 122.66672800000113,
          "velocity": 0.7874015748031497,
          "duration": 0.16666675000000453
        },
        {
          "name": "G#3",
          "midi": 56,
          "time": 122.83339475000113,
          "velocity": 0.7874015748031497,
          "duration": 0.16666675000000453
        },
        {
          "name": "G2",
          "midi": 43,
          "time": 123.00006150000114,
          "velocity": 0.7874015748031497,
          "duration": 0.16666675000000453
        },
        {
          "name": "C4",
          "midi": 60,
          "time": 123.16672825000114,
          "velocity": 0.7874015748031497,
          "duration": 0.16666675000000453
        },
        {
          "name": "B3",
          "midi": 59,
          "time": 123.33339500000115,
          "velocity": 0.7874015748031497,
          "duration": 0.16666675000000453
        },
        {
          "name": "C4",
          "midi": 60,
          "time": 123.50006175000115,
          "velocity": 0.7874015748031497,
          "duration": 0.16666675000000453
        },
        {
          "name": "D4",
          "midi": 62,
          "time": 123.66672850000116,
          "velocity": 0.7874015748031497,
          "duration": 0.16666675000000453
        },
        {
          "name": "F3",
          "midi": 53,
          "time": 123.83339525000116,
          "velocity": 0.7874015748031497,
          "duration": 0.16666675000000453
        },
        {
          "name": "C3",
          "midi": 48,
          "time": 124.00006200000117,
          "velocity": 0.7874015748031497,
          "duration": 0.16666675000000453
        },
        {
          "name": "F4",
          "midi": 65,
          "time": 124.16672875000117,
          "velocity": 0.7874015748031497,
          "duration": 0.16666675000000453
        },
        {
          "name": "D#4",
          "midi": 63,
          "time": 124.33339550000117,
          "velocity": 0.7874015748031497,
          "duration": 0.16666675000000453
        },
        {
          "name": "F4",
          "midi": 65,
          "time": 124.50006225000118,
          "velocity": 0.7874015748031497,
          "duration": 0.16666675000000453
        },
        {
          "name": "G4",
          "midi": 67,
          "time": 124.66672900000118,
          "velocity": 0.7874015748031497,
          "duration": 0.16666675000000453
        },
        {
          "name": "A#3",
          "midi": 58,
          "time": 124.83339575000119,
          "velocity": 0.7874015748031497,
          "duration": 0.16666675000000453
        },
        {
          "name": "F3",
          "midi": 53,
          "time": 125.00006250000119,
          "velocity": 0.7874015748031497,
          "duration": 0.16666675000000453
        },
        {
          "name": "A#3",
          "midi": 58,
          "time": 125.1667292500012,
          "velocity": 0.7874015748031497,
          "duration": 0.16666675000000453
        },
        {
          "name": "G#3",
          "midi": 56,
          "time": 125.3333960000012,
          "velocity": 0.7874015748031497,
          "duration": 0.16666675000000453
        },
        {
          "name": "A#3",
          "midi": 58,
          "time": 125.5000627500012,
          "velocity": 0.7874015748031497,
          "duration": 0.16666675000000453
        },
        {
          "name": "C4",
          "midi": 60,
          "time": 125.66672950000121,
          "velocity": 0.7874015748031497,
          "duration": 0.16666675000000453
        },
        {
          "name": "D#3",
          "midi": 51,
          "time": 125.83339625000121,
          "velocity": 0.7874015748031497,
          "duration": 0.16666675000000453
        },
        {
          "name": "A#2",
          "midi": 46,
          "time": 126.00006300000122,
          "velocity": 0.7874015748031497,
          "duration": 0.16666675000000453
        },
        {
          "name": "D#4",
          "midi": 63,
          "time": 126.16672975000122,
          "velocity": 0.7874015748031497,
          "duration": 0.16666675000000453
        },
        {
          "name": "D4",
          "midi": 62,
          "time": 126.33339650000123,
          "velocity": 0.7874015748031497,
          "duration": 0.16666675000000453
        },
        {
          "name": "D#4",
          "midi": 63,
          "time": 126.50006325000123,
          "velocity": 0.7874015748031497,
          "duration": 0.16666675000000453
        },
        {
          "name": "F4",
          "midi": 65,
          "time": 126.66673000000124,
          "velocity": 0.7874015748031497,
          "duration": 0.16666675000000453
        },
        {
          "name": "G#3",
          "midi": 56,
          "time": 126.83339675000124,
          "velocity": 0.7874015748031497,
          "duration": 0.16666675000000453
        },
        {
          "name": "D#3",
          "midi": 51,
          "time": 127.00006350000125,
          "velocity": 0.7874015748031497,
          "duration": 0.16666675000000453
        },
        {
          "name": "G#3",
          "midi": 56,
          "time": 127.16673025000125,
          "velocity": 0.7874015748031497,
          "duration": 0.16666675000000453
        },
        {
          "name": "G3",
          "midi": 55,
          "time": 127.33339700000126,
          "velocity": 0.7874015748031497,
          "duration": 0.16666675000000453
        },
        {
          "name": "G#3",
          "midi": 56,
          "time": 127.50006375000126,
          "velocity": 0.7874015748031497,
          "duration": 0.16666675000000453
        },
        {
          "name": "A#3",
          "midi": 58,
          "time": 127.66673050000126,
          "velocity": 0.7874015748031497,
          "duration": 0.16666675000000453
        },
        {
          "name": "C#3",
          "midi": 49,
          "time": 127.83339725000127,
          "velocity": 0.7874015748031497,
          "duration": 0.16666674999999032
        },
        {
          "name": "G#2",
          "midi": 44,
          "time": 128.00006400000126,
          "velocity": 0.7874015748031497,
          "duration": 0.16666674999999032
        },
        {
          "name": "C3",
          "midi": 48,
          "time": 128.16673075000125,
          "velocity": 0.7874015748031497,
          "duration": 0.16666674999999032
        },
        {
          "name": "F3",
          "midi": 53,
          "time": 128.33339750000124,
          "velocity": 0.7874015748031497,
          "duration": 0.16666674999999032
        },
        {
          "name": "G#3",
          "midi": 56,
          "time": 128.50006425000123,
          "velocity": 0.7874015748031497,
          "duration": 0.16666674999999032
        },
        {
          "name": "G3",
          "midi": 55,
          "time": 128.66673100000122,
          "velocity": 0.7874015748031497,
          "duration": 0.16666674999999032
        },
        {
          "name": "F3",
          "midi": 53,
          "time": 128.8333977500012,
          "velocity": 0.7874015748031497,
          "duration": 0.16666674999999032
        },
        {
          "name": "B2",
          "midi": 47,
          "time": 129.0000645000012,
          "velocity": 0.7874015748031497,
          "duration": 0.16666674999999032
        },
        {
          "name": "D3",
          "midi": 50,
          "time": 129.1667312500012,
          "velocity": 0.7874015748031497,
          "duration": 0.16666674999999032
        },
        {
          "name": "F3",
          "midi": 53,
          "time": 129.33339800000118,
          "velocity": 0.7874015748031497,
          "duration": 0.16666674999999032
        },
        {
          "name": "G#3",
          "midi": 56,
          "time": 129.50006475000117,
          "velocity": 0.7874015748031497,
          "duration": 0.16666674999999032
        },
        {
          "name": "G3",
          "midi": 55,
          "time": 129.66673150000116,
          "velocity": 0.7874015748031497,
          "duration": 0.16666674999999032
        },
        {
          "name": "F3",
          "midi": 53,
          "time": 129.83339825000115,
          "velocity": 0.7874015748031497,
          "duration": 0.16666674999999032
        },
        {
          "name": "C3",
          "midi": 48,
          "time": 130.00006500000114,
          "velocity": 0.7874015748031497,
          "duration": 0.16666674999999032
        },
        {
          "name": "E3",
          "midi": 52,
          "time": 130.16673175000113,
          "velocity": 0.7874015748031497,
          "duration": 0.16666674999999032
        },
        {
          "name": "F3",
          "midi": 53,
          "time": 130.33339850000112,
          "velocity": 0.7874015748031497,
          "duration": 0.16666674999999032
        },
        {
          "name": "G#3",
          "midi": 56,
          "time": 130.50006525000111,
          "velocity": 0.7874015748031497,
          "duration": 0.16666674999999032
        },
        {
          "name": "G3",
          "midi": 55,
          "time": 130.6667320000011,
          "velocity": 0.7874015748031497,
          "duration": 0.16666674999999032
        },
        {
          "name": "F3",
          "midi": 53,
          "time": 130.8333987500011,
          "velocity": 0.7874015748031497,
          "duration": 0.16666674999999032
        },
        {
          "name": "D3",
          "midi": 50,
          "time": 131.00006550000109,
          "velocity": 0.7874015748031497,
          "duration": 0.16666674999999032
        },
        {
          "name": "F3",
          "midi": 53,
          "time": 131.16673225000108,
          "velocity": 0.7874015748031497,
          "duration": 0.16666674999999032
        },
        {
          "name": "B3",
          "midi": 59,
          "time": 131.33339900000107,
          "velocity": 0.7874015748031497,
          "duration": 0.16666674999999032
        },
        {
          "name": "C4",
          "midi": 60,
          "time": 131.50006575000106,
          "velocity": 0.7874015748031497,
          "duration": 0.16666674999999032
        },
        {
          "name": "D4",
          "midi": 62,
          "time": 131.66673250000105,
          "velocity": 0.7874015748031497,
          "duration": 0.16666674999999032
        },
        {
          "name": "F3",
          "midi": 53,
          "time": 131.83339925000104,
          "velocity": 0.7874015748031497,
          "duration": 0.16666674999999032
        },
        {
          "name": "D#3",
          "midi": 51,
          "time": 132.00006600000103,
          "velocity": 0.7874015748031497,
          "duration": 0.16666674999999032
        },
        {
          "name": "G3",
          "midi": 55,
          "time": 132.16673275000102,
          "velocity": 0.7874015748031497,
          "duration": 0.16666674999999032
        },
        {
          "name": "C4",
          "midi": 60,
          "time": 132.333399500001,
          "velocity": 0.7874015748031497,
          "duration": 0.16666674999999032
        },
        {
          "name": "D4",
          "midi": 62,
          "time": 132.500066250001,
          "velocity": 0.7874015748031497,
          "duration": 0.16666674999999032
        },
        {
          "name": "D#4",
          "midi": 63,
          "time": 132.666733000001,
          "velocity": 0.7874015748031497,
          "duration": 0.16666674999999032
        },
        {
          "name": "C4",
          "midi": 60,
          "time": 132.83339975000098,
          "velocity": 0.7874015748031497,
          "duration": 0.16666674999999032
        },
        {
          "name": "G#4",
          "midi": 68,
          "time": 133.00006650000097,
          "velocity": 0.7874015748031497,
          "duration": 0.16666674999999032
        },
        {
          "name": "G4",
          "midi": 67,
          "time": 133.16673325000096,
          "velocity": 0.7874015748031497,
          "duration": 0.16666674999999032
        },
        {
          "name": "F4",
          "midi": 65,
          "time": 133.33340000000095,
          "velocity": 0.7874015748031497,
          "duration": 0.16666674999999032
        },
        {
          "name": "D#4",
          "midi": 63,
          "time": 133.50006675000094,
          "velocity": 0.7874015748031497,
          "duration": 0.16666674999999032
        },
        {
          "name": "D4",
          "midi": 62,
          "time": 133.66673350000093,
          "velocity": 0.7874015748031497,
          "duration": 0.16666674999999032
        },
        {
          "name": "C4",
          "midi": 60,
          "time": 133.83340025000092,
          "velocity": 0.7874015748031497,
          "duration": 0.16666674999999032
        },
        {
          "name": "G4",
          "midi": 67,
          "time": 134.0000670000009,
          "velocity": 0.7874015748031497,
          "duration": 0.16666674999999032
        },
        {
          "name": "D4",
          "midi": 62,
          "time": 134.1667337500009,
          "velocity": 0.7874015748031497,
          "duration": 0.16666674999999032
        },
        {
          "name": "D#4",
          "midi": 63,
          "time": 134.3334005000009,
          "velocity": 0.7874015748031497,
          "duration": 0.16666674999999032
        },
        {
          "name": "C4",
          "midi": 60,
          "time": 134.50006725000088,
          "velocity": 0.7874015748031497,
          "duration": 0.16666674999999032
        },
        {
          "name": "G3",
          "midi": 55,
          "time": 134.66673400000087,
          "velocity": 0.7874015748031497,
          "duration": 0.16666674999999032
        },
        {
          "name": "B3",
          "midi": 59,
          "time": 134.83340075000086,
          "velocity": 0.7874015748031497,
          "duration": 0.16666674999999032
        },
        {
          "name": "C3",
          "midi": 48,
          "time": 135.00006750000085,
          "velocity": 0.7874015748031497,
          "duration": 0.16666674999999032
        },
        {
          "name": "F3",
          "midi": 53,
          "time": 135.16673425000084,
          "velocity": 0.7874015748031497,
          "duration": 0.16666674999999032
        },
        {
          "name": "D#3",
          "midi": 51,
          "time": 135.33340100000083,
          "velocity": 0.7874015748031497,
          "duration": 0.16666674999999032
        },
        {
          "name": "D3",
          "midi": 50,
          "time": 135.50006775000082,
          "velocity": 0.7874015748031497,
          "duration": 0.16666674999999032
        },
        {
          "name": "C3",
          "midi": 48,
          "time": 135.6667345000008,
          "velocity": 0.7874015748031497,
          "duration": 0.16666674999999032
        },
        {
          "name": "A#2",
          "midi": 46,
          "time": 135.8334012500008,
          "velocity": 0.7874015748031497,
          "duration": 0.16666674999999032
        },
        {
          "name": "A2",
          "midi": 45,
          "time": 136.0000680000008,
          "velocity": 0.7874015748031497,
          "duration": 0.16666674999999032
        },
        {
          "name": "C3",
          "midi": 48,
          "time": 136.16673475000078,
          "velocity": 0.7874015748031497,
          "duration": 0.16666674999999032
        },
        {
          "name": "F3",
          "midi": 53,
          "time": 136.33340150000078,
          "velocity": 0.7874015748031497,
          "duration": 0.16666674999999032
        },
        {
          "name": "C3",
          "midi": 48,
          "time": 136.50006825000077,
          "velocity": 0.7874015748031497,
          "duration": 0.16666674999999032
        },
        {
          "name": "F3",
          "midi": 53,
          "time": 136.66673500000076,
          "velocity": 0.7874015748031497,
          "duration": 0.16666674999999032
        },
        {
          "name": "A3",
          "midi": 57,
          "time": 136.83340175000075,
          "velocity": 0.7874015748031497,
          "duration": 0.16666674999999032
        },
        {
          "name": "F3",
          "midi": 53,
          "time": 137.00006850000074,
          "velocity": 0.7874015748031497,
          "duration": 0.16666674999999032
        },
        {
          "name": "A3",
          "midi": 57,
          "time": 137.16673525000073,
          "velocity": 0.7874015748031497,
          "duration": 0.16666674999999032
        },
        {
          "name": "C4",
          "midi": 60,
          "time": 137.33340200000072,
          "velocity": 0.7874015748031497,
          "duration": 0.16666674999999032
        },
        {
          "name": "A3",
          "midi": 57,
          "time": 137.5000687500007,
          "velocity": 0.7874015748031497,
          "duration": 0.16666674999999032
        },
        {
          "name": "C4",
          "midi": 60,
          "time": 137.6667355000007,
          "velocity": 0.7874015748031497,
          "duration": 0.16666674999999032
        },
        {
          "name": "D#4",
          "midi": 63,
          "time": 137.8334022500007,
          "velocity": 0.7874015748031497,
          "duration": 0.16666674999999032
        },
        {
          "name": "C4",
          "midi": 60,
          "time": 138.00006900000068,
          "velocity": 0.7874015748031497,
          "duration": 0.16666674999999032
        },
        {
          "name": "D#4",
          "midi": 63,
          "time": 138.16673575000067,
          "velocity": 0.7874015748031497,
          "duration": 0.16666674999999032
        },
        {
          "name": "A4",
          "midi": 69,
          "time": 138.33340250000066,
          "velocity": 0.7874015748031497,
          "duration": 0.16666674999999032
        },
        {
          "name": "G4",
          "midi": 67,
          "time": 138.50006925000065,
          "velocity": 0.7874015748031497,
          "duration": 0.16666674999999032
        },
        {
          "name": "F4",
          "midi": 65,
          "time": 138.66673600000064,
          "velocity": 0.7874015748031497,
          "duration": 0.16666674999999032
        },
        {
          "name": "D#4",
          "midi": 63,
          "time": 138.83340275000063,
          "velocity": 0.7874015748031497,
          "duration": 0.16666674999999032
        },
        {
          "name": "D4",
          "midi": 62,
          "time": 139.00006950000062,
          "velocity": 0.7874015748031497,
          "duration": 0.16666674999999032
        },
        {
          "name": "C4",
          "midi": 60,
          "time": 139.1667362500006,
          "velocity": 0.7874015748031497,
          "duration": 0.16666674999999032
        },
        {
          "name": "A#3",
          "midi": 58,
          "time": 139.3334030000006,
          "velocity": 0.7874015748031497,
          "duration": 0.16666674999999032
        },
        {
          "name": "C4",
          "midi": 60,
          "time": 139.5000697500006,
          "velocity": 0.7874015748031497,
          "duration": 0.16666674999999032
        },
        {
          "name": "D4",
          "midi": 62,
          "time": 139.66673650000058,
          "velocity": 0.7874015748031497,
          "duration": 0.16666674999999032
        },
        {
          "name": "E4",
          "midi": 64,
          "time": 139.83340325000057,
          "velocity": 0.7874015748031497,
          "duration": 0.16666674999999032
        },
        {
          "name": "F#4",
          "midi": 66,
          "time": 140.00007000000056,
          "velocity": 0.7874015748031497,
          "duration": 0.16666674999999032
        },
        {
          "name": "A4",
          "midi": 69,
          "time": 140.16673675000055,
          "velocity": 0.7874015748031497,
          "duration": 0.16666674999999032
        },
        {
          "name": "C5",
          "midi": 72,
          "time": 140.33340350000054,
          "velocity": 0.7874015748031497,
          "duration": 0.16666674999999032
        },
        {
          "name": "A4",
          "midi": 69,
          "time": 140.50007025000053,
          "velocity": 0.7874015748031497,
          "duration": 0.16666674999999032
        },
        {
          "name": "F#4",
          "midi": 66,
          "time": 140.66673700000052,
          "velocity": 0.7874015748031497,
          "duration": 0.16666674999999032
        },
        {
          "name": "A4",
          "midi": 69,
          "time": 140.8334037500005,
          "velocity": 0.7874015748031497,
          "duration": 0.16666674999999032
        },
        {
          "name": "F#4",
          "midi": 66,
          "time": 141.0000705000005,
          "velocity": 0.7874015748031497,
          "duration": 0.16666674999999032
        },
        {
          "name": "C4",
          "midi": 60,
          "time": 141.1667372500005,
          "velocity": 0.7874015748031497,
          "duration": 0.16666674999999032
        },
        {
          "name": "F#4",
          "midi": 66,
          "time": 141.33340400000048,
          "velocity": 0.7874015748031497,
          "duration": 0.16666674999999032
        },
        {
          "name": "C4",
          "midi": 60,
          "time": 141.50007075000048,
          "velocity": 0.7874015748031497,
          "duration": 0.16666674999999032
        },
        {
          "name": "A3",
          "midi": 57,
          "time": 141.66673750000047,
          "velocity": 0.7874015748031497,
          "duration": 0.16666674999999032
        },
        {
          "name": "C4",
          "midi": 60,
          "time": 141.83340425000046,
          "velocity": 0.7874015748031497,
          "duration": 0.16666674999999032
        },
        {
          "name": "A3",
          "midi": 57,
          "time": 142.00007100000045,
          "velocity": 0.7874015748031497,
          "duration": 0.16666674999999032
        },
        {
          "name": "F#3",
          "midi": 54,
          "time": 142.16673775000044,
          "velocity": 0.7874015748031497,
          "duration": 0.16666674999999032
        },
        {
          "name": "A3",
          "midi": 57,
          "time": 142.33340450000043,
          "velocity": 0.7874015748031497,
          "duration": 0.16666674999999032
        },
        {
          "name": "F#3",
          "midi": 54,
          "time": 142.50007125000042,
          "velocity": 0.7874015748031497,
          "duration": 0.16666674999999032
        },
        {
          "name": "D3",
          "midi": 50,
          "time": 142.6667380000004,
          "velocity": 0.7874015748031497,
          "duration": 0.16666674999999032
        },
        {
          "name": "C4",
          "midi": 60,
          "time": 142.8334047500004,
          "velocity": 0.7874015748031497,
          "duration": 0.16666674999999032
        },
        {
          "name": "A#3",
          "midi": 58,
          "time": 143.0000715000004,
          "velocity": 0.7874015748031497,
          "duration": 0.16666674999999032
        },
        {
          "name": "G3",
          "midi": 55,
          "time": 143.16673825000038,
          "velocity": 0.7874015748031497,
          "duration": 0.16666674999999032
        },
        {
          "name": "A#3",
          "midi": 58,
          "time": 143.33340500000037,
          "velocity": 0.7874015748031497,
          "duration": 0.16666674999999032
        },
        {
          "name": "G3",
          "midi": 55,
          "time": 143.50007175000036,
          "velocity": 0.7874015748031497,
          "duration": 0.16666674999999032
        },
        {
          "name": "E3",
          "midi": 52,
          "time": 143.66673850000035,
          "velocity": 0.7874015748031497,
          "duration": 0.16666674999999032
        },
        {
          "name": "D4",
          "midi": 62,
          "time": 143.83340525000034,
          "velocity": 0.7874015748031497,
          "duration": 0.16666674999999032
        },
        {
          "name": "C4",
          "midi": 60,
          "time": 144.00007200000033,
          "velocity": 0.7874015748031497,
          "duration": 0.16666674999999032
        },
        {
          "name": "A3",
          "midi": 57,
          "time": 144.16673875000032,
          "velocity": 0.7874015748031497,
          "duration": 0.16666674999999032
        },
        {
          "name": "C4",
          "midi": 60,
          "time": 144.3334055000003,
          "velocity": 0.7874015748031497,
          "duration": 0.16666674999999032
        },
        {
          "name": "A3",
          "midi": 57,
          "time": 144.5000722500003,
          "velocity": 0.7874015748031497,
          "duration": 0.16666674999999032
        },
        {
          "name": "F#3",
          "midi": 54,
          "time": 144.6667390000003,
          "velocity": 0.7874015748031497,
          "duration": 0.16666674999999032
        },
        {
          "name": "D#4",
          "midi": 63,
          "time": 144.83340575000028,
          "velocity": 0.7874015748031497,
          "duration": 0.16666674999999032
        },
        {
          "name": "D4",
          "midi": 62,
          "time": 145.00007250000027,
          "velocity": 0.7874015748031497,
          "duration": 0.16666674999999032
        },
        {
          "name": "A#3",
          "midi": 58,
          "time": 145.16673925000026,
          "velocity": 0.7874015748031497,
          "duration": 0.16666674999999032
        },
        {
          "name": "D4",
          "midi": 62,
          "time": 145.33340600000025,
          "velocity": 0.7874015748031497,
          "duration": 0.16666674999999032
        },
        {
          "name": "A#3",
          "midi": 58,
          "time": 145.50007275000024,
          "velocity": 0.7874015748031497,
          "duration": 0.16666674999999032
        },
        {
          "name": "G3",
          "midi": 55,
          "time": 145.66673950000023,
          "velocity": 0.7874015748031497,
          "duration": 0.16666674999999032
        },
        {
          "name": "F4",
          "midi": 65,
          "time": 145.83340625000022,
          "velocity": 0.7874015748031497,
          "duration": 0.16666674999999032
        },
        {
          "name": "D#4",
          "midi": 63,
          "time": 146.0000730000002,
          "velocity": 0.7874015748031497,
          "duration": 0.16666674999999032
        },
        {
          "name": "C4",
          "midi": 60,
          "time": 146.1667397500002,
          "velocity": 0.7874015748031497,
          "duration": 0.16666674999999032
        },
        {
          "name": "D#4",
          "midi": 63,
          "time": 146.3334065000002,
          "velocity": 0.7874015748031497,
          "duration": 0.16666674999999032
        },
        {
          "name": "C4",
          "midi": 60,
          "time": 146.50007325000018,
          "velocity": 0.7874015748031497,
          "duration": 0.16666674999999032
        },
        {
          "name": "A3",
          "midi": 57,
          "time": 146.66674000000017,
          "velocity": 0.7874015748031497,
          "duration": 0.16666674999999032
        },
        {
          "name": "G4",
          "midi": 67,
          "time": 146.83340675000017,
          "velocity": 0.7874015748031497,
          "duration": 0.16666674999999032
        },
        {
          "name": "F#4",
          "midi": 66,
          "time": 147.00007350000016,
          "velocity": 0.7874015748031497,
          "duration": 0.16666674999999032
        },
        {
          "name": "D4",
          "midi": 62,
          "time": 147.16674025000015,
          "velocity": 0.7874015748031497,
          "duration": 0.16666674999999032
        },
        {
          "name": "E4",
          "midi": 64,
          "time": 147.33340700000014,
          "velocity": 0.7874015748031497,
          "duration": 0.16666674999999032
        },
        {
          "name": "F#4",
          "midi": 66,
          "time": 147.50007375000013,
          "velocity": 0.7874015748031497,
          "duration": 0.16666674999999032
        },
        {
          "name": "G4",
          "midi": 67,
          "time": 147.66674050000012,
          "velocity": 0.7874015748031497,
          "duration": 0.16666674999999032
        },
        {
          "name": "A4",
          "midi": 69,
          "time": 147.8334072500001,
          "velocity": 0.7874015748031497,
          "duration": 0.16666674999999032
        },
        {
          "name": "A#4",
          "midi": 70,
          "time": 148.0000740000001,
          "velocity": 0.7874015748031497,
          "duration": 0.16666674999999032
        },
        {
          "name": "D4",
          "midi": 62,
          "time": 148.1667407500001,
          "velocity": 0.7874015748031497,
          "duration": 0.16666674999999032
        },
        {
          "name": "G4",
          "midi": 67,
          "time": 148.33340750000008,
          "velocity": 0.7874015748031497,
          "duration": 0.16666674999999032
        },
        {
          "name": "A#4",
          "midi": 70,
          "time": 148.50007425000007,
          "velocity": 0.7874015748031497,
          "duration": 0.16666674999999032
        },
        {
          "name": "C4",
          "midi": 60,
          "time": 148.66674100000006,
          "velocity": 0.7874015748031497,
          "duration": 0.16666674999999032
        },
        {
          "name": "D#4",
          "midi": 63,
          "time": 148.83340775000005,
          "velocity": 0.7874015748031497,
          "duration": 0.16666674999999032
        },
        {
          "name": "A4",
          "midi": 69,
          "time": 149.00007450000004,
          "velocity": 0.7874015748031497,
          "duration": 0.16666674999999032
        },
        {
          "name": "F4",
          "midi": 65,
          "time": 149.16674125000003,
          "velocity": 0.7874015748031497,
          "duration": 0.16666674999999032
        },
        {
          "name": "D4",
          "midi": 62,
          "time": 149.33340800000002,
          "velocity": 0.7874015748031497,
          "duration": 0.16666674999999032
        },
        {
          "name": "A#3",
          "midi": 58,
          "time": 149.50007475,
          "velocity": 0.7874015748031497,
          "duration": 0.16666674999999032
        },
        {
          "name": "D4",
          "midi": 62,
          "time": 149.6667415,
          "velocity": 0.7874015748031497,
          "duration": 0.16666674999999032
        },
        {
          "name": "F4",
          "midi": 65,
          "time": 149.83340825,
          "velocity": 0.7874015748031497,
          "duration": 0.16666674999999032
        },
        {
          "name": "G4",
          "midi": 67,
          "time": 150.00007499999998,
          "velocity": 0.7874015748031497,
          "duration": 0.16666674999999032
        },
        {
          "name": "A#3",
          "midi": 58,
          "time": 150.16674174999997,
          "velocity": 0.7874015748031497,
          "duration": 0.16666674999999032
        },
        {
          "name": "D#4",
          "midi": 63,
          "time": 150.33340849999996,
          "velocity": 0.7874015748031497,
          "duration": 0.16666674999999032
        },
        {
          "name": "G4",
          "midi": 67,
          "time": 150.50007524999995,
          "velocity": 0.7874015748031497,
          "duration": 0.16666674999999032
        },
        {
          "name": "A3",
          "midi": 57,
          "time": 150.66674199999994,
          "velocity": 0.7874015748031497,
          "duration": 0.16666674999999032
        },
        {
          "name": "C4",
          "midi": 60,
          "time": 150.83340874999993,
          "velocity": 0.7874015748031497,
          "duration": 0.16666674999999032
        },
        {
          "name": "F4",
          "midi": 65,
          "time": 151.00007549999992,
          "velocity": 0.7874015748031497,
          "duration": 0.16666674999999032
        },
        {
          "name": "D4",
          "midi": 62,
          "time": 151.1667422499999,
          "velocity": 0.7874015748031497,
          "duration": 0.16666674999999032
        },
        {
          "name": "A#3",
          "midi": 58,
          "time": 151.3334089999999,
          "velocity": 0.7874015748031497,
          "duration": 0.16666674999999032
        },
        {
          "name": "G3",
          "midi": 55,
          "time": 151.5000757499999,
          "velocity": 0.7874015748031497,
          "duration": 0.16666674999999032
        },
        {
          "name": "A#3",
          "midi": 58,
          "time": 151.66674249999988,
          "velocity": 0.7874015748031497,
          "duration": 0.16666674999999032
        },
        {
          "name": "D4",
          "midi": 62,
          "time": 151.83340924999987,
          "velocity": 0.7874015748031497,
          "duration": 0.16666674999999032
        },
        {
          "name": "D#4",
          "midi": 63,
          "time": 152.00007599999986,
          "velocity": 0.7874015748031497,
          "duration": 0.16666674999999032
        },
        {
          "name": "G3",
          "midi": 55,
          "time": 152.16674274999986,
          "velocity": 0.7874015748031497,
          "duration": 0.16666674999999032
        },
        {
          "name": "C4",
          "midi": 60,
          "time": 152.33340949999985,
          "velocity": 0.7874015748031497,
          "duration": 0.16666674999999032
        },
        {
          "name": "D#4",
          "midi": 63,
          "time": 152.50007624999984,
          "velocity": 0.7874015748031497,
          "duration": 0.16666674999999032
        },
        {
          "name": "F3",
          "midi": 53,
          "time": 152.66674299999983,
          "velocity": 0.7874015748031497,
          "duration": 0.16666674999999032
        },
        {
          "name": "A3",
          "midi": 57,
          "time": 152.83340974999982,
          "velocity": 0.7874015748031497,
          "duration": 0.16666674999999032
        },
        {
          "name": "D4",
          "midi": 62,
          "time": 153.0000764999998,
          "velocity": 0.7874015748031497,
          "duration": 0.16666674999999032
        },
        {
          "name": "A#3",
          "midi": 58,
          "time": 153.1667432499998,
          "velocity": 0.7874015748031497,
          "duration": 0.16666674999999032
        },
        {
          "name": "G3",
          "midi": 55,
          "time": 153.3334099999998,
          "velocity": 0.7874015748031497,
          "duration": 0.16666674999999032
        },
        {
          "name": "E3",
          "midi": 52,
          "time": 153.50007674999978,
          "velocity": 0.7874015748031497,
          "duration": 0.16666674999999032
        },
        {
          "name": "G3",
          "midi": 55,
          "time": 153.66674349999977,
          "velocity": 0.7874015748031497,
          "duration": 0.16666674999999032
        },
        {
          "name": "A#3",
          "midi": 58,
          "time": 153.83341024999976,
          "velocity": 0.7874015748031497,
          "duration": 0.16666674999999032
        },
        {
          "name": "C4",
          "midi": 60,
          "time": 154.00007699999975,
          "velocity": 0.7874015748031497,
          "duration": 0.16666674999999032
        },
        {
          "name": "A3",
          "midi": 57,
          "time": 154.16674374999974,
          "velocity": 0.7874015748031497,
          "duration": 0.16666674999999032
        },
        {
          "name": "A#3",
          "midi": 58,
          "time": 154.33341049999973,
          "velocity": 0.7874015748031497,
          "duration": 0.16666674999999032
        },
        {
          "name": "G3",
          "midi": 55,
          "time": 154.50007724999972,
          "velocity": 0.7874015748031497,
          "duration": 0.16666674999999032
        },
        {
          "name": "F#3",
          "midi": 54,
          "time": 154.6667439999997,
          "velocity": 0.7874015748031497,
          "duration": 0.16666674999999032
        },
        {
          "name": "A3",
          "midi": 57,
          "time": 154.8334107499997,
          "velocity": 0.7874015748031497,
          "duration": 0.16666674999999032
        },
        {
          "name": "D3",
          "midi": 50,
          "time": 155.0000774999997,
          "velocity": 0.7874015748031497,
          "duration": 0.16666674999999032
        },
        {
          "name": "E3",
          "midi": 52,
          "time": 155.16674424999968,
          "velocity": 0.7874015748031497,
          "duration": 0.16666674999999032
        },
        {
          "name": "F#3",
          "midi": 54,
          "time": 155.33341099999967,
          "velocity": 0.7874015748031497,
          "duration": 0.16666674999999032
        },
        {
          "name": "G3",
          "midi": 55,
          "time": 155.50007774999966,
          "velocity": 0.7874015748031497,
          "duration": 0.16666674999999032
        },
        {
          "name": "A3",
          "midi": 57,
          "time": 155.66674449999965,
          "velocity": 0.7874015748031497,
          "duration": 0.16666674999999032
        },
        {
          "name": "A#3",
          "midi": 58,
          "time": 155.83341124999964,
          "velocity": 0.7874015748031497,
          "duration": 0.16666674999999032
        },
        {
          "name": "C4",
          "midi": 60,
          "time": 156.00007799999963,
          "velocity": 0.7874015748031497,
          "duration": 0.16666674999999032
        },
        {
          "name": "D#4",
          "midi": 63,
          "time": 156.16674474999962,
          "velocity": 0.7874015748031497,
          "duration": 0.16666674999999032
        },
        {
          "name": "D4",
          "midi": 62,
          "time": 156.3334114999996,
          "velocity": 0.7874015748031497,
          "duration": 0.16666674999999032
        },
        {
          "name": "G4",
          "midi": 67,
          "time": 156.5000782499996,
          "velocity": 0.7874015748031497,
          "duration": 0.16666674999999032
        },
        {
          "name": "F#4",
          "midi": 66,
          "time": 156.6667449999996,
          "velocity": 0.7874015748031497,
          "duration": 0.16666674999999032
        },
        {
          "name": "A#4",
          "midi": 70,
          "time": 156.83341174999958,
          "velocity": 0.7874015748031497,
          "duration": 0.16666674999999032
        },
        {
          "name": "A4",
          "midi": 69,
          "time": 157.00007849999957,
          "velocity": 0.7874015748031497,
          "duration": 0.16666674999999032
        },
        {
          "name": "G4",
          "midi": 67,
          "time": 157.16674524999956,
          "velocity": 0.7874015748031497,
          "duration": 0.16666674999999032
        },
        {
          "name": "F#4",
          "midi": 66,
          "time": 157.33341199999956,
          "velocity": 0.7874015748031497,
          "duration": 0.16666674999999032
        },
        {
          "name": "E4",
          "midi": 64,
          "time": 157.50007874999955,
          "velocity": 0.7874015748031497,
          "duration": 0.16666674999999032
        },
        {
          "name": "D4",
          "midi": 62,
          "time": 157.66674549999954,
          "velocity": 0.7874015748031497,
          "duration": 0.16666674999999032
        },
        {
          "name": "C4",
          "midi": 60,
          "time": 157.83341224999953,
          "velocity": 0.7874015748031497,
          "duration": 0.16666674999999032
        },
        {
          "name": "A#3",
          "midi": 58,
          "time": 158.00007899999952,
          "velocity": 0.7874015748031497,
          "duration": 0.16666674999999032
        },
        {
          "name": "D#4",
          "midi": 63,
          "time": 158.1667457499995,
          "velocity": 0.7874015748031497,
          "duration": 0.16666674999999032
        },
        {
          "name": "D4",
          "midi": 62,
          "time": 158.3334124999995,
          "velocity": 0.7874015748031497,
          "duration": 0.16666674999999032
        },
        {
          "name": "A#3",
          "midi": 58,
          "time": 158.5000792499995,
          "velocity": 0.7874015748031497,
          "duration": 0.16666674999999032
        },
        {
          "name": "C4",
          "midi": 60,
          "time": 158.66674599999948,
          "velocity": 0.7874015748031497,
          "duration": 0.16666674999999032
        },
        {
          "name": "A3",
          "midi": 57,
          "time": 158.83341274999947,
          "velocity": 0.7874015748031497,
          "duration": 0.16666674999999032
        },
        {
          "name": "F3",
          "midi": 53,
          "time": 159.00007949999946,
          "velocity": 0.7874015748031497,
          "duration": 0.16666674999999032
        },
        {
          "name": "D4",
          "midi": 62,
          "time": 159.16674624999945,
          "velocity": 0.7874015748031497,
          "duration": 0.16666674999999032
        },
        {
          "name": "C4",
          "midi": 60,
          "time": 159.33341299999944,
          "velocity": 0.7874015748031497,
          "duration": 0.16666674999999032
        },
        {
          "name": "A3",
          "midi": 57,
          "time": 159.50007974999943,
          "velocity": 0.7874015748031497,
          "duration": 0.16666674999999032
        },
        {
          "name": "A#3",
          "midi": 58,
          "time": 159.66674649999942,
          "velocity": 0.7874015748031497,
          "duration": 0.16666674999999032
        },
        {
          "name": "G3",
          "midi": 55,
          "time": 159.8334132499994,
          "velocity": 0.7874015748031497,
          "duration": 0.16666674999999032
        },
        {
          "name": "D#3",
          "midi": 51,
          "time": 160.0000799999994,
          "velocity": 0.7874015748031497,
          "duration": 0.16666674999999032
        },
        {
          "name": "C4",
          "midi": 60,
          "time": 160.1667467499994,
          "velocity": 0.7874015748031497,
          "duration": 0.16666674999999032
        },
        {
          "name": "A#3",
          "midi": 58,
          "time": 160.33341349999938,
          "velocity": 0.7874015748031497,
          "duration": 0.16666674999999032
        },
        {
          "name": "G3",
          "midi": 55,
          "time": 160.50008024999937,
          "velocity": 0.7874015748031497,
          "duration": 0.16666674999999032
        },
        {
          "name": "A3",
          "midi": 57,
          "time": 160.66674699999936,
          "velocity": 0.7874015748031497,
          "duration": 0.16666674999999032
        },
        {
          "name": "F#3",
          "midi": 54,
          "time": 160.83341374999935,
          "velocity": 0.7874015748031497,
          "duration": 0.16666674999999032
        },
        {
          "name": "D3",
          "midi": 50,
          "time": 161.00008049999934,
          "velocity": 0.7874015748031497,
          "duration": 0.16666674999999032
        },
        {
          "name": "A#3",
          "midi": 58,
          "time": 161.16674724999933,
          "velocity": 0.7874015748031497,
          "duration": 0.16666674999999032
        },
        {
          "name": "A3",
          "midi": 57,
          "time": 161.33341399999932,
          "velocity": 0.7874015748031497,
          "duration": 0.16666674999999032
        },
        {
          "name": "F#3",
          "midi": 54,
          "time": 161.5000807499993,
          "velocity": 0.7874015748031497,
          "duration": 0.16666674999999032
        },
        {
          "name": "G3",
          "midi": 55,
          "time": 161.6667474999993,
          "velocity": 0.7874015748031497,
          "duration": 0.16666674999999032
        },
        {
          "name": "D#3",
          "midi": 51,
          "time": 161.8334142499993,
          "velocity": 0.7874015748031497,
          "duration": 0.16666674999999032
        },
        {
          "name": "C3",
          "midi": 48,
          "time": 162.00008099999928,
          "velocity": 0.7874015748031497,
          "duration": 0.16666674999999032
        },
        {
          "name": "A3",
          "midi": 57,
          "time": 162.16674774999927,
          "velocity": 0.7874015748031497,
          "duration": 0.16666674999999032
        },
        {
          "name": "G3",
          "midi": 55,
          "time": 162.33341449999926,
          "velocity": 0.7874015748031497,
          "duration": 0.16666674999999032
        },
        {
          "name": "E3",
          "midi": 52,
          "time": 162.50008124999925,
          "velocity": 0.7874015748031497,
          "duration": 0.16666674999999032
        },
        {
          "name": "F#3",
          "midi": 54,
          "time": 162.66674799999925,
          "velocity": 0.7874015748031497,
          "duration": 0.16666674999999032
        },
        {
          "name": "D3",
          "midi": 50,
          "time": 162.83341474999924,
          "velocity": 0.7874015748031497,
          "duration": 0.16666674999999032
        },
        {
          "name": "A#2",
          "midi": 46,
          "time": 163.00008149999923,
          "velocity": 0.7874015748031497,
          "duration": 0.16666674999999032
        },
        {
          "name": "D4",
          "midi": 62,
          "time": 163.16674824999922,
          "velocity": 0.7874015748031497,
          "duration": 0.16666674999999032
        },
        {
          "name": "C4",
          "midi": 60,
          "time": 163.3334149999992,
          "velocity": 0.7874015748031497,
          "duration": 0.16666674999999032
        },
        {
          "name": "A#3",
          "midi": 58,
          "time": 163.5000817499992,
          "velocity": 0.7874015748031497,
          "duration": 0.16666674999999032
        },
        {
          "name": "A3",
          "midi": 57,
          "time": 163.6667484999992,
          "velocity": 0.7874015748031497,
          "duration": 0.16666674999999032
        },
        {
          "name": "G3",
          "midi": 55,
          "time": 163.83341524999918,
          "velocity": 0.7874015748031497,
          "duration": 0.16666674999999032
        },
        {
          "name": "D#4",
          "midi": 63,
          "time": 164.00008199999917,
          "velocity": 0.7874015748031497,
          "duration": 0.16666674999999032
        },
        {
          "name": "D4",
          "midi": 62,
          "time": 164.16674874999916,
          "velocity": 0.7874015748031497,
          "duration": 0.16666674999999032
        },
        {
          "name": "C4",
          "midi": 60,
          "time": 164.33341549999915,
          "velocity": 0.7874015748031497,
          "duration": 0.16666674999999032
        },
        {
          "name": "A#4",
          "midi": 70,
          "time": 164.50008224999914,
          "velocity": 0.7874015748031497,
          "duration": 0.16666674999999032
        },
        {
          "name": "A4",
          "midi": 69,
          "time": 164.66674899999913,
          "velocity": 0.7874015748031497,
          "duration": 0.16666674999999032
        },
        {
          "name": "G4",
          "midi": 67,
          "time": 164.83341574999912,
          "velocity": 0.7874015748031497,
          "duration": 0.16666674999999032
        },
        {
          "name": "F#4",
          "midi": 66,
          "time": 165.0000824999991,
          "velocity": 0.7874015748031497,
          "duration": 0.16666674999999032
        },
        {
          "name": "G4",
          "midi": 67,
          "time": 165.1667492499991,
          "velocity": 0.7874015748031497,
          "duration": 0.16666674999999032
        },
        {
          "name": "A4",
          "midi": 69,
          "time": 165.3334159999991,
          "velocity": 0.7874015748031497,
          "duration": 0.16666674999999032
        },
        {
          "name": "D4",
          "midi": 62,
          "time": 165.50008274999908,
          "velocity": 0.7874015748031497,
          "duration": 0.16666674999999032
        },
        {
          "name": "D#4",
          "midi": 63,
          "time": 165.66674949999907,
          "velocity": 0.7874015748031497,
          "duration": 0.16666674999999032
        },
        {
          "name": "C4",
          "midi": 60,
          "time": 165.83341624999906,
          "velocity": 0.7874015748031497,
          "duration": 0.16666674999999032
        },
        {
          "name": "F3",
          "midi": 53,
          "time": 166.00008299999905,
          "velocity": 0.7874015748031497,
          "duration": 0.16666674999999032
        },
        {
          "name": "B3",
          "midi": 59,
          "time": 166.16674974999904,
          "velocity": 0.7874015748031497,
          "duration": 0.16666674999999032
        },
        {
          "name": "D4",
          "midi": 62,
          "time": 166.33341649999903,
          "velocity": 0.7874015748031497,
          "duration": 0.16666674999999032
        },
        {
          "name": "G#3",
          "midi": 56,
          "time": 166.50008324999902,
          "velocity": 0.7874015748031497,
          "duration": 0.16666674999999032
        },
        {
          "name": "G3",
          "midi": 55,
          "time": 166.666749999999,
          "velocity": 0.7874015748031497,
          "duration": 0.16666674999999032
        },
        {
          "name": "F3",
          "midi": 53,
          "time": 166.833416749999,
          "velocity": 0.7874015748031497,
          "duration": 0.16666674999999032
        },
        {
          "name": "E3",
          "midi": 52,
          "time": 167.000083499999,
          "velocity": 0.7874015748031497,
          "duration": 0.16666674999999032
        },
        {
          "name": "G3",
          "midi": 55,
          "time": 167.16675024999898,
          "velocity": 0.7874015748031497,
          "duration": 0.16666674999999032
        },
        {
          "name": "C4",
          "midi": 60,
          "time": 167.33341699999897,
          "velocity": 0.7874015748031497,
          "duration": 0.16666674999999032
        },
        {
          "name": "E4",
          "midi": 64,
          "time": 167.50008374999896,
          "velocity": 0.7874015748031497,
          "duration": 0.16666674999999032
        },
        {
          "name": "G4",
          "midi": 67,
          "time": 167.66675049999895,
          "velocity": 0.7874015748031497,
          "duration": 0.16666674999999032
        },
        {
          "name": "A#3",
          "midi": 58,
          "time": 167.83341724999894,
          "velocity": 0.7874015748031497,
          "duration": 0.16666674999999032
        },
        {
          "name": "D#3",
          "midi": 51,
          "time": 168.00008399999894,
          "velocity": 0.7874015748031497,
          "duration": 0.16666674999999032
        },
        {
          "name": "A3",
          "midi": 57,
          "time": 168.16675074999893,
          "velocity": 0.7874015748031497,
          "duration": 0.16666674999999032
        },
        {
          "name": "C4",
          "midi": 60,
          "time": 168.33341749999892,
          "velocity": 0.7874015748031497,
          "duration": 0.16666674999999032
        },
        {
          "name": "G3",
          "midi": 55,
          "time": 168.5000842499989,
          "velocity": 0.7874015748031497,
          "duration": 0.16666674999999032
        },
        {
          "name": "F3",
          "midi": 53,
          "time": 168.6667509999989,
          "velocity": 0.7874015748031497,
          "duration": 0.16666674999999032
        },
        {
          "name": "D#3",
          "midi": 51,
          "time": 168.8334177499989,
          "velocity": 0.7874015748031497,
          "duration": 0.16666674999999032
        },
        {
          "name": "D3",
          "midi": 50,
          "time": 169.00008449999888,
          "velocity": 0.7874015748031497,
          "duration": 0.16666674999999032
        },
        {
          "name": "F3",
          "midi": 53,
          "time": 169.16675124999887,
          "velocity": 0.7874015748031497,
          "duration": 0.16666674999999032
        },
        {
          "name": "A#3",
          "midi": 58,
          "time": 169.33341799999886,
          "velocity": 0.7874015748031497,
          "duration": 0.16666674999999032
        },
        {
          "name": "D4",
          "midi": 62,
          "time": 169.50008474999885,
          "velocity": 0.7874015748031497,
          "duration": 0.16666674999999032
        },
        {
          "name": "F4",
          "midi": 65,
          "time": 169.66675149999884,
          "velocity": 0.7874015748031497,
          "duration": 0.16666674999999032
        },
        {
          "name": "G#3",
          "midi": 56,
          "time": 169.83341824999883,
          "velocity": 0.7874015748031497,
          "duration": 0.16666674999999032
        },
        {
          "name": "G3",
          "midi": 55,
          "time": 170.00008499999882,
          "velocity": 0.7874015748031497,
          "duration": 0.16666674999999032
        },
        {
          "name": "D#4",
          "midi": 63,
          "time": 170.1667517499988,
          "velocity": 0.7874015748031497,
          "duration": 0.16666674999999032
        },
        {
          "name": "A#3",
          "midi": 58,
          "time": 170.3334184999988,
          "velocity": 0.7874015748031497,
          "duration": 0.16666674999999032
        },
        {
          "name": "G3",
          "midi": 55,
          "time": 170.5000852499988,
          "velocity": 0.7874015748031497,
          "duration": 0.16666674999999032
        },
        {
          "name": "D#3",
          "midi": 51,
          "time": 170.66675199999878,
          "velocity": 0.7874015748031497,
          "duration": 0.16666674999999032
        },
        {
          "name": "D3",
          "midi": 50,
          "time": 170.83341874999877,
          "velocity": 0.7874015748031497,
          "duration": 0.16666674999999032
        },
        {
          "name": "C3",
          "midi": 48,
          "time": 171.00008549999876,
          "velocity": 0.7874015748031497,
          "duration": 0.16666674999999032
        },
        {
          "name": "D#4",
          "midi": 63,
          "time": 171.16675224999875,
          "velocity": 0.7874015748031497,
          "duration": 0.16666674999999032
        },
        {
          "name": "C4",
          "midi": 60,
          "time": 171.33341899999874,
          "velocity": 0.7874015748031497,
          "duration": 0.16666674999999032
        },
        {
          "name": "A#3",
          "midi": 58,
          "time": 171.50008574999873,
          "velocity": 0.7874015748031497,
          "duration": 0.16666674999999032
        },
        {
          "name": "A3",
          "midi": 57,
          "time": 171.66675249999872,
          "velocity": 0.7874015748031497,
          "duration": 0.16666674999999032
        },
        {
          "name": "G3",
          "midi": 55,
          "time": 171.8334192499987,
          "velocity": 0.7874015748031497,
          "duration": 0.16666674999999032
        },
        {
          "name": "F#3",
          "midi": 54,
          "time": 172.0000859999987,
          "velocity": 0.7874015748031497,
          "duration": 0.16666674999999032
        },
        {
          "name": "D4",
          "midi": 62,
          "time": 172.1667527499987,
          "velocity": 0.7874015748031497,
          "duration": 0.16666674999999032
        },
        {
          "name": "A3",
          "midi": 57,
          "time": 172.33341949999868,
          "velocity": 0.7874015748031497,
          "duration": 0.16666674999999032
        },
        {
          "name": "F#3",
          "midi": 54,
          "time": 172.50008624999867,
          "velocity": 0.7874015748031497,
          "duration": 0.16666674999999032
        },
        {
          "name": "D3",
          "midi": 50,
          "time": 172.66675299999866,
          "velocity": 0.7874015748031497,
          "duration": 0.16666674999999032
        },
        {
          "name": "C3",
          "midi": 48,
          "time": 172.83341974999865,
          "velocity": 0.7874015748031497,
          "duration": 0.16666674999999032
        },
        {
          "name": "A#2",
          "midi": 46,
          "time": 173.00008649999864,
          "velocity": 0.7874015748031497,
          "duration": 0.16666674999999032
        },
        {
          "name": "D4",
          "midi": 62,
          "time": 173.16675324999864,
          "velocity": 0.7874015748031497,
          "duration": 0.16666674999999032
        },
        {
          "name": "A#3",
          "midi": 58,
          "time": 173.33341999999863,
          "velocity": 0.7874015748031497,
          "duration": 0.16666674999999032
        },
        {
          "name": "A3",
          "midi": 57,
          "time": 173.50008674999862,
          "velocity": 0.7874015748031497,
          "duration": 0.16666674999999032
        },
        {
          "name": "G3",
          "midi": 55,
          "time": 173.6667534999986,
          "velocity": 0.7874015748031497,
          "duration": 0.16666674999999032
        },
        {
          "name": "F3",
          "midi": 53,
          "time": 173.8334202499986,
          "velocity": 0.7874015748031497,
          "duration": 0.16666674999999032
        },
        {
          "name": "E3",
          "midi": 52,
          "time": 174.0000869999986,
          "velocity": 0.7874015748031497,
          "duration": 0.16666674999999032
        },
        {
          "name": "C3",
          "midi": 48,
          "time": 174.16675374999858,
          "velocity": 0.7874015748031497,
          "duration": 0.16666674999999032
        },
        {
          "name": "G3",
          "midi": 55,
          "time": 174.33342049999857,
          "velocity": 0.7874015748031497,
          "duration": 0.16666674999999032
        },
        {
          "name": "A#2",
          "midi": 46,
          "time": 174.50008724999856,
          "velocity": 0.7874015748031497,
          "duration": 0.16666674999999032
        },
        {
          "name": "A2",
          "midi": 45,
          "time": 174.66675399999855,
          "velocity": 0.7874015748031497,
          "duration": 0.16666674999999032
        },
        {
          "name": "G3",
          "midi": 55,
          "time": 174.83342074999854,
          "velocity": 0.7874015748031497,
          "duration": 0.16666674999999032
        },
        {
          "name": "F#3",
          "midi": 54,
          "time": 175.00008749999853,
          "velocity": 0.7874015748031497,
          "duration": 0.16666674999999032
        },
        {
          "name": "D3",
          "midi": 50,
          "time": 175.16675424999852,
          "velocity": 0.7874015748031497,
          "duration": 0.16666674999999032
        },
        {
          "name": "A3",
          "midi": 57,
          "time": 175.3334209999985,
          "velocity": 0.7874015748031497,
          "duration": 0.16666674999999032
        },
        {
          "name": "C3",
          "midi": 48,
          "time": 175.5000877499985,
          "velocity": 0.7874015748031497,
          "duration": 0.16666674999999032
        },
        {
          "name": "A#2",
          "midi": 46,
          "time": 175.6667544999985,
          "velocity": 0.7874015748031497,
          "duration": 0.16666674999999032
        },
        {
          "name": "A3",
          "midi": 57,
          "time": 175.83342124999848,
          "velocity": 0.7874015748031497,
          "duration": 0.16666674999999032
        },
        {
          "name": "G3",
          "midi": 55,
          "time": 176.00008799999847,
          "velocity": 0.7874015748031497,
          "duration": 0.16666674999999032
        },
        {
          "name": "D#3",
          "midi": 51,
          "time": 176.16675474999846,
          "velocity": 0.7874015748031497,
          "duration": 0.16666674999999032
        },
        {
          "name": "A#3",
          "midi": 58,
          "time": 176.33342149999845,
          "velocity": 0.7874015748031497,
          "duration": 0.16666674999999032
        },
        {
          "name": "D3",
          "midi": 50,
          "time": 176.50008824999844,
          "velocity": 0.7874015748031497,
          "duration": 0.16666674999999032
        },
        {
          "name": "C3",
          "midi": 48,
          "time": 176.66675499999843,
          "velocity": 0.7874015748031497,
          "duration": 0.16666674999999032
        },
        {
          "name": "A#3",
          "midi": 58,
          "time": 176.83342174999842,
          "velocity": 0.7874015748031497,
          "duration": 0.16666674999999032
        },
        {
          "name": "A3",
          "midi": 57,
          "time": 177.0000884999984,
          "velocity": 0.7874015748031497,
          "duration": 0.16666674999999032
        },
        {
          "name": "F3",
          "midi": 53,
          "time": 177.1667552499984,
          "velocity": 0.7874015748031497,
          "duration": 0.16666674999999032
        },
        {
          "name": "C4",
          "midi": 60,
          "time": 177.3334219999984,
          "velocity": 0.7874015748031497,
          "duration": 0.16666674999999032
        },
        {
          "name": "D#3",
          "midi": 51,
          "time": 177.50008874999838,
          "velocity": 0.7874015748031497,
          "duration": 0.16666674999999032
        },
        {
          "name": "D3",
          "midi": 50,
          "time": 177.66675549999837,
          "velocity": 0.7874015748031497,
          "duration": 0.16666674999999032
        },
        {
          "name": "C4",
          "midi": 60,
          "time": 177.83342224999836,
          "velocity": 0.7874015748031497,
          "duration": 0.16666674999999032
        },
        {
          "name": "A#3",
          "midi": 58,
          "time": 178.00008899999835,
          "velocity": 0.7874015748031497,
          "duration": 0.16666674999999032
        },
        {
          "name": "G3",
          "midi": 55,
          "time": 178.16675574999834,
          "velocity": 0.7874015748031497,
          "duration": 0.16666674999999032
        },
        {
          "name": "D4",
          "midi": 62,
          "time": 178.33342249999833,
          "velocity": 0.7874015748031497,
          "duration": 0.16666674999999032
        },
        {
          "name": "F3",
          "midi": 53,
          "time": 178.50008924999833,
          "velocity": 0.7874015748031497,
          "duration": 0.16666674999999032
        },
        {
          "name": "E3",
          "midi": 52,
          "time": 178.66675599999832,
          "velocity": 0.7874015748031497,
          "duration": 0.16666674999999032
        },
        {
          "name": "D4",
          "midi": 62,
          "time": 178.8334227499983,
          "velocity": 0.7874015748031497,
          "duration": 0.16666674999999032
        },
        {
          "name": "C4",
          "midi": 60,
          "time": 179.0000894999983,
          "velocity": 0.7874015748031497,
          "duration": 0.16666674999999032
        },
        {
          "name": "A3",
          "midi": 57,
          "time": 179.1667562499983,
          "velocity": 0.7874015748031497,
          "duration": 0.16666674999999032
        },
        {
          "name": "D#4",
          "midi": 63,
          "time": 179.33342299999828,
          "velocity": 0.7874015748031497,
          "duration": 0.16666674999999032
        },
        {
          "name": "G3",
          "midi": 55,
          "time": 179.50008974999827,
          "velocity": 0.7874015748031497,
          "duration": 0.16666674999999032
        },
        {
          "name": "F#3",
          "midi": 54,
          "time": 179.66675649999826,
          "velocity": 0.7874015748031497,
          "duration": 0.16666674999999032
        },
        {
          "name": "D#4",
          "midi": 63,
          "time": 179.83342324999825,
          "velocity": 0.7874015748031497,
          "duration": 0.16666674999999032
        },
        {
          "name": "D4",
          "midi": 62,
          "time": 180.00008999999824,
          "velocity": 0.7874015748031497,
          "duration": 0.16666674999999032
        },
        {
          "name": "A#3",
          "midi": 58,
          "time": 180.16675674999823,
          "velocity": 0.7874015748031497,
          "duration": 0.16666674999999032
        },
        {
          "name": "G4",
          "midi": 67,
          "time": 180.33342349999822,
          "velocity": 0.7874015748031497,
          "duration": 0.16666674999999032
        },
        {
          "name": "A#3",
          "midi": 58,
          "time": 180.5000902499982,
          "velocity": 0.7874015748031497,
          "duration": 0.16666674999999032
        },
        {
          "name": "A3",
          "midi": 57,
          "time": 180.6667569999982,
          "velocity": 0.7874015748031497,
          "duration": 0.16666674999999032
        },
        {
          "name": "C4",
          "midi": 60,
          "time": 180.8334237499982,
          "velocity": 0.7874015748031497,
          "duration": 0.16666674999999032
        },
        {
          "name": "A#3",
          "midi": 58,
          "time": 181.00009049999818,
          "velocity": 0.7874015748031497,
          "duration": 0.16666674999999032
        },
        {
          "name": "G3",
          "midi": 55,
          "time": 181.16675724999817,
          "velocity": 0.7874015748031497,
          "duration": 0.16666674999999032
        },
        {
          "name": "F#3",
          "midi": 54,
          "time": 181.33342399999816,
          "velocity": 0.7874015748031497,
          "duration": 0.16666674999999032
        },
        {
          "name": "A3",
          "midi": 57,
          "time": 181.50009074999815,
          "velocity": 0.7874015748031497,
          "duration": 0.16666674999999032
        },
        {
          "name": "D3",
          "midi": 50,
          "time": 181.66675749999814,
          "velocity": 0.7874015748031497,
          "duration": 0.16666674999999032
        },
        {
          "name": "C3",
          "midi": 48,
          "time": 181.83342424999813,
          "velocity": 0.7874015748031497,
          "duration": 0.16666674999999032
        },
        {
          "name": "A#2",
          "midi": 46,
          "time": 182.00009099999812,
          "velocity": 0.7874015748031497,
          "duration": 0.16666674999999032
        },
        {
          "name": "G3",
          "midi": 55,
          "time": 182.1667577499981,
          "velocity": 0.7874015748031497,
          "duration": 0.16666674999999032
        },
        {
          "name": "F#3",
          "midi": 54,
          "time": 182.3334244999981,
          "velocity": 0.7874015748031497,
          "duration": 0.16666674999999032
        },
        {
          "name": "A3",
          "midi": 57,
          "time": 182.5000912499981,
          "velocity": 0.7874015748031497,
          "duration": 0.16666674999999032
        },
        {
          "name": "G3",
          "midi": 55,
          "time": 182.66675799999808,
          "velocity": 0.7874015748031497,
          "duration": 0.16666674999999032
        },
        {
          "name": "A#3",
          "midi": 58,
          "time": 182.83342474999807,
          "velocity": 0.7874015748031497,
          "duration": 0.16666674999999032
        },
        {
          "name": "C3",
          "midi": 48,
          "time": 183.00009149999806,
          "velocity": 0.7874015748031497,
          "duration": 0.16666674999999032
        },
        {
          "name": "A3",
          "midi": 57,
          "time": 183.16675824999805,
          "velocity": 0.7874015748031497,
          "duration": 0.16666674999999032
        },
        {
          "name": "G3",
          "midi": 55,
          "time": 183.33342499999804,
          "velocity": 0.7874015748031497,
          "duration": 0.16666674999999032
        },
        {
          "name": "A#3",
          "midi": 58,
          "time": 183.50009174999803,
          "velocity": 0.7874015748031497,
          "duration": 0.16666674999999032
        },
        {
          "name": "A3",
          "midi": 57,
          "time": 183.66675849999802,
          "velocity": 0.7874015748031497,
          "duration": 0.16666674999999032
        },
        {
          "name": "C4",
          "midi": 60,
          "time": 183.83342524999802,
          "velocity": 0.7874015748031497,
          "duration": 0.16666674999999032
        },
        {
          "name": "D3",
          "midi": 50,
          "time": 184.000091999998,
          "velocity": 0.7874015748031497,
          "duration": 0.16666674999999032
        },
        {
          "name": "A#3",
          "midi": 58,
          "time": 184.166758749998,
          "velocity": 0.7874015748031497,
          "duration": 0.16666674999999032
        },
        {
          "name": "A3",
          "midi": 57,
          "time": 184.333425499998,
          "velocity": 0.7874015748031497,
          "duration": 0.16666674999999032
        },
        {
          "name": "C4",
          "midi": 60,
          "time": 184.50009224999798,
          "velocity": 0.7874015748031497,
          "duration": 0.16666674999999032
        },
        {
          "name": "A#3",
          "midi": 58,
          "time": 184.66675899999797,
          "velocity": 0.7874015748031497,
          "duration": 0.16666674999999032
        },
        {
          "name": "D4",
          "midi": 62,
          "time": 184.83342574999796,
          "velocity": 0.7874015748031497,
          "duration": 0.16666674999999032
        },
        {
          "name": "D#3",
          "midi": 51,
          "time": 185.00009249999795,
          "velocity": 0.7874015748031497,
          "duration": 0.16666674999999032
        },
        {
          "name": "C4",
          "midi": 60,
          "time": 185.16675924999794,
          "velocity": 0.7874015748031497,
          "duration": 0.16666674999999032
        },
        {
          "name": "B3",
          "midi": 59,
          "time": 185.33342599999793,
          "velocity": 0.7874015748031497,
          "duration": 0.16666674999999032
        },
        {
          "name": "D4",
          "midi": 62,
          "time": 185.50009274999792,
          "velocity": 0.7874015748031497,
          "duration": 0.16666674999999032
        },
        {
          "name": "C4",
          "midi": 60,
          "time": 185.6667594999979,
          "velocity": 0.7874015748031497,
          "duration": 0.16666674999999032
        },
        {
          "name": "D#4",
          "midi": 63,
          "time": 185.8334262499979,
          "velocity": 0.7874015748031497,
          "duration": 0.16666674999999032
        },
        {
          "name": "F#3",
          "midi": 54,
          "time": 186.0000929999979,
          "velocity": 0.7874015748031497,
          "duration": 0.16666674999999032
        },
        {
          "name": "D#4",
          "midi": 63,
          "time": 186.16675974999788,
          "velocity": 0.7874015748031497,
          "duration": 0.16666674999999032
        },
        {
          "name": "D4",
          "midi": 62,
          "time": 186.33342649999787,
          "velocity": 0.7874015748031497,
          "duration": 0.16666674999999032
        },
        {
          "name": "C4",
          "midi": 60,
          "time": 186.50009324999786,
          "velocity": 0.7874015748031497,
          "duration": 0.16666674999999032
        },
        {
          "name": "A#3",
          "midi": 58,
          "time": 186.66675999999785,
          "velocity": 0.7874015748031497,
          "duration": 0.16666674999999032
        },
        {
          "name": "A3",
          "midi": 57,
          "time": 186.83342674999784,
          "velocity": 0.7874015748031497,
          "duration": 0.16666674999999032
        },
        {
          "name": "A#3",
          "midi": 58,
          "time": 187.00009349999783,
          "velocity": 0.7874015748031497,
          "duration": 0.16666674999999032
        },
        {
          "name": "D4",
          "midi": 62,
          "time": 187.16676024999782,
          "velocity": 0.7874015748031497,
          "duration": 0.16666674999999032
        },
        {
          "name": "G4",
          "midi": 67,
          "time": 187.3334269999978,
          "velocity": 0.7874015748031497,
          "duration": 0.16666674999999032
        },
        {
          "name": "A#4",
          "midi": 70,
          "time": 187.5000937499978,
          "velocity": 0.7874015748031497,
          "duration": 0.16666674999999032
        },
        {
          "name": "G4",
          "midi": 67,
          "time": 187.6667604999978,
          "velocity": 0.7874015748031497,
          "duration": 0.16666674999999032
        },
        {
          "name": "D4",
          "midi": 62,
          "time": 187.83342724999778,
          "velocity": 0.7874015748031497,
          "duration": 0.16666674999999032
        },
        {
          "name": "A#3",
          "midi": 58,
          "time": 188.00009399999777,
          "velocity": 0.7874015748031497,
          "duration": 0.16666674999999032
        },
        {
          "name": "G3",
          "midi": 55,
          "time": 188.16676074999776,
          "velocity": 0.7874015748031497,
          "duration": 0.16666674999999032
        },
        {
          "name": "D3",
          "midi": 50,
          "time": 188.33342749999775,
          "velocity": 0.7874015748031497,
          "duration": 0.33333350000000905
        },
        {
          "name": "F#4",
          "midi": 66,
          "time": 188.66676099999776,
          "velocity": 0.7874015748031497,
          "duration": 0.33333350000000905
        },
        {
          "name": "G4",
          "midi": 67,
          "time": 189.00009449999777,
          "velocity": 0.7874015748031497,
          "duration": 1.0000004999999987
        },
        {
          "name": "D3",
          "midi": 50,
          "time": 190.00009499999777,
          "velocity": 0.7874015748031497,
          "duration": 0.16666674999999032
        },
        {
          "name": "A2",
          "midi": 45,
          "time": 190.16676174999776,
          "velocity": 0.7874015748031497,
          "duration": 0.16666674999999032
        },
        {
          "name": "D3",
          "midi": 50,
          "time": 190.33342849999775,
          "velocity": 0.7874015748031497,
          "duration": 0.16666674999999032
        },
        {
          "name": "F#3",
          "midi": 54,
          "time": 190.50009524999774,
          "velocity": 0.7874015748031497,
          "duration": 0.16666674999999032
        },
        {
          "name": "D3",
          "midi": 50,
          "time": 190.66676199999773,
          "velocity": 0.7874015748031497,
          "duration": 0.16666674999999032
        },
        {
          "name": "F#3",
          "midi": 54,
          "time": 190.83342874999772,
          "velocity": 0.7874015748031497,
          "duration": 0.16666674999999032
        },
        {
          "name": "A3",
          "midi": 57,
          "time": 191.0000954999977,
          "velocity": 0.7874015748031497,
          "duration": 0.16666674999999032
        },
        {
          "name": "F#3",
          "midi": 54,
          "time": 191.1667622499977,
          "velocity": 0.7874015748031497,
          "duration": 0.16666674999999032
        },
        {
          "name": "A3",
          "midi": 57,
          "time": 191.3334289999977,
          "velocity": 0.7874015748031497,
          "duration": 0.16666674999999032
        },
        {
          "name": "D4",
          "midi": 62,
          "time": 191.50009574999768,
          "velocity": 0.7874015748031497,
          "duration": 0.16666674999999032
        },
        {
          "name": "A3",
          "midi": 57,
          "time": 191.66676249999767,
          "velocity": 0.7874015748031497,
          "duration": 0.16666674999999032
        },
        {
          "name": "D4",
          "midi": 62,
          "time": 191.83342924999766,
          "velocity": 0.7874015748031497,
          "duration": 0.16666674999999032
        },
        {
          "name": "F#4",
          "midi": 66,
          "time": 192.00009599999765,
          "velocity": 0.7874015748031497,
          "duration": 0.16666674999999032
        },
        {
          "name": "D4",
          "midi": 62,
          "time": 192.16676274999764,
          "velocity": 0.7874015748031497,
          "duration": 0.16666674999999032
        },
        {
          "name": "F#4",
          "midi": 66,
          "time": 192.33342949999764,
          "velocity": 0.7874015748031497,
          "duration": 0.16666674999999032
        },
        {
          "name": "A4",
          "midi": 69,
          "time": 192.50009624999763,
          "velocity": 0.7874015748031497,
          "duration": 0.16666674999999032
        },
        {
          "name": "F#4",
          "midi": 66,
          "time": 192.66676299999762,
          "velocity": 0.7874015748031497,
          "duration": 0.16666674999999032
        },
        {
          "name": "A4",
          "midi": 69,
          "time": 192.8334297499976,
          "velocity": 0.7874015748031497,
          "duration": 0.16666674999999032
        },
        {
          "name": "D5",
          "midi": 74,
          "time": 193.0000964999976,
          "velocity": 0.7874015748031497,
          "duration": 0.16666674999999032
        },
        {
          "name": "A4",
          "midi": 69,
          "time": 193.1667632499976,
          "velocity": 0.7874015748031497,
          "duration": 0.16666674999999032
        },
        {
          "name": "F#4",
          "midi": 66,
          "time": 193.33342999999758,
          "velocity": 0.7874015748031497,
          "duration": 0.16666674999999032
        },
        {
          "name": "D4",
          "midi": 62,
          "time": 193.50009674999757,
          "velocity": 0.7874015748031497,
          "duration": 0.16666674999999032
        },
        {
          "name": "A3",
          "midi": 57,
          "time": 193.66676349999756,
          "velocity": 0.7874015748031497,
          "duration": 0.16666674999999032
        },
        {
          "name": "F#3",
          "midi": 54,
          "time": 193.83343024999755,
          "velocity": 0.7874015748031497,
          "duration": 0.16666674999999032
        },
        {
          "name": "D3",
          "midi": 50,
          "time": 194.00009699999754,
          "velocity": 0.7874015748031497,
          "duration": 0.16666674999999032
        },
        {
          "name": "E3",
          "midi": 52,
          "time": 194.16676374999753,
          "velocity": 0.7874015748031497,
          "duration": 0.16666674999999032
        },
        {
          "name": "F#3",
          "midi": 54,
          "time": 194.33343049999752,
          "velocity": 0.7874015748031497,
          "duration": 0.16666674999999032
        },
        {
          "name": "G3",
          "midi": 55,
          "time": 194.5000972499975,
          "velocity": 0.7874015748031497,
          "duration": 0.16666674999999032
        },
        {
          "name": "A3",
          "midi": 57,
          "time": 194.6667639999975,
          "velocity": 0.7874015748031497,
          "duration": 0.16666674999999032
        },
        {
          "name": "A#3",
          "midi": 58,
          "time": 194.8334307499975,
          "velocity": 0.7874015748031497,
          "duration": 0.16666674999999032
        },
        {
          "name": "C4",
          "midi": 60,
          "time": 195.00009749999748,
          "velocity": 0.7874015748031497,
          "duration": 0.16666674999999032
        },
        {
          "name": "D#4",
          "midi": 63,
          "time": 195.16676424999747,
          "velocity": 0.7874015748031497,
          "duration": 0.16666674999999032
        },
        {
          "name": "C4",
          "midi": 60,
          "time": 195.33343099999746,
          "velocity": 0.7874015748031497,
          "duration": 0.16666674999999032
        },
        {
          "name": "A3",
          "midi": 57,
          "time": 195.50009774999745,
          "velocity": 0.7874015748031497,
          "duration": 0.16666674999999032
        },
        {
          "name": "C4",
          "midi": 60,
          "time": 195.66676449999744,
          "velocity": 0.7874015748031497,
          "duration": 0.16666674999999032
        },
        {
          "name": "A3",
          "midi": 57,
          "time": 195.83343124999743,
          "velocity": 0.7874015748031497,
          "duration": 0.16666674999999032
        },
        {
          "name": "F#3",
          "midi": 54,
          "time": 196.00009799999742,
          "velocity": 0.7874015748031497,
          "duration": 0.16666674999999032
        },
        {
          "name": "D3",
          "midi": 50,
          "time": 196.1667647499974,
          "velocity": 0.7874015748031497,
          "duration": 0.16666674999999032
        },
        {
          "name": "F#3",
          "midi": 54,
          "time": 196.3334314999974,
          "velocity": 0.7874015748031497,
          "duration": 0.16666674999999032
        },
        {
          "name": "A3",
          "midi": 57,
          "time": 196.5000982499974,
          "velocity": 0.7874015748031497,
          "duration": 0.16666674999999032
        },
        {
          "name": "D4",
          "midi": 62,
          "time": 196.66676499999738,
          "velocity": 0.7874015748031497,
          "duration": 0.16666674999999032
        },
        {
          "name": "C4",
          "midi": 60,
          "time": 196.83343174999737,
          "velocity": 0.7874015748031497,
          "duration": 0.16666674999999032
        },
        {
          "name": "A#3",
          "midi": 58,
          "time": 197.00009849999736,
          "velocity": 0.7874015748031497,
          "duration": 0.16666674999999032
        },
        {
          "name": "D4",
          "midi": 62,
          "time": 197.16676524999735,
          "velocity": 0.7874015748031497,
          "duration": 0.16666674999999032
        },
        {
          "name": "A#3",
          "midi": 58,
          "time": 197.33343199999734,
          "velocity": 0.7874015748031497,
          "duration": 0.16666674999999032
        },
        {
          "name": "G3",
          "midi": 55,
          "time": 197.50009874999733,
          "velocity": 0.7874015748031497,
          "duration": 0.16666674999999032
        },
        {
          "name": "D3",
          "midi": 50,
          "time": 197.66676549999733,
          "velocity": 0.7874015748031497,
          "duration": 0.16666674999999032
        },
        {
          "name": "A#2",
          "midi": 46,
          "time": 197.83343224999732,
          "velocity": 0.7874015748031497,
          "duration": 0.16666674999999032
        },
        {
          "name": "G2",
          "midi": 43,
          "time": 198.0000989999973,
          "velocity": 0.7874015748031497,
          "duration": 0.16666674999999032
        },
        {
          "name": "A2",
          "midi": 45,
          "time": 198.1667657499973,
          "velocity": 0.7874015748031497,
          "duration": 0.16666674999999032
        },
        {
          "name": "A#2",
          "midi": 46,
          "time": 198.3334324999973,
          "velocity": 0.7874015748031497,
          "duration": 0.16666674999999032
        },
        {
          "name": "C3",
          "midi": 48,
          "time": 198.50009924999728,
          "velocity": 0.7874015748031497,
          "duration": 0.16666674999999032
        },
        {
          "name": "D3",
          "midi": 50,
          "time": 198.66676599999727,
          "velocity": 0.7874015748031497,
          "duration": 0.16666674999999032
        },
        {
          "name": "D#3",
          "midi": 51,
          "time": 198.83343274999726,
          "velocity": 0.7874015748031497,
          "duration": 0.16666674999999032
        },
        {
          "name": "F3",
          "midi": 53,
          "time": 199.00009949999725,
          "velocity": 0.7874015748031497,
          "duration": 0.16666674999999032
        },
        {
          "name": "G#3",
          "midi": 56,
          "time": 199.16676624999724,
          "velocity": 0.7874015748031497,
          "duration": 0.16666674999999032
        },
        {
          "name": "F3",
          "midi": 53,
          "time": 199.33343299999723,
          "velocity": 0.7874015748031497,
          "duration": 0.16666674999999032
        },
        {
          "name": "D3",
          "midi": 50,
          "time": 199.50009974999722,
          "velocity": 0.7874015748031497,
          "duration": 0.16666674999999032
        },
        {
          "name": "F3",
          "midi": 53,
          "time": 199.6667664999972,
          "velocity": 0.7874015748031497,
          "duration": 0.16666674999999032
        },
        {
          "name": "D3",
          "midi": 50,
          "time": 199.8334332499972,
          "velocity": 0.7874015748031497,
          "duration": 0.16666674999999032
        },
        {
          "name": "B2",
          "midi": 47,
          "time": 200.0000999999972,
          "velocity": 0.7874015748031497,
          "duration": 0.16666674999999032
        },
        {
          "name": "G2",
          "midi": 43,
          "time": 200.16676674999718,
          "velocity": 0.7874015748031497,
          "duration": 0.16666674999999032
        },
        {
          "name": "B2",
          "midi": 47,
          "time": 200.33343349999717,
          "velocity": 0.7874015748031497,
          "duration": 0.16666674999999032
        },
        {
          "name": "D3",
          "midi": 50,
          "time": 200.50010024999716,
          "velocity": 0.7874015748031497,
          "duration": 0.16666674999999032
        },
        {
          "name": "G3",
          "midi": 55,
          "time": 200.66676699999715,
          "velocity": 0.7874015748031497,
          "duration": 0.16666674999999032
        },
        {
          "name": "F3",
          "midi": 53,
          "time": 200.83343374999714,
          "velocity": 0.7874015748031497,
          "duration": 0.16666674999999032
        },
        {
          "name": "D#3",
          "midi": 51,
          "time": 201.00010049999713,
          "velocity": 0.7874015748031497,
          "duration": 0.16666674999999032
        },
        {
          "name": "C3",
          "midi": 48,
          "time": 201.16676724999712,
          "velocity": 0.7874015748031497,
          "duration": 0.16666674999999032
        },
        {
          "name": "D#3",
          "midi": 51,
          "time": 201.3334339999971,
          "velocity": 0.7874015748031497,
          "duration": 0.16666674999999032
        },
        {
          "name": "G3",
          "midi": 55,
          "time": 201.5001007499971,
          "velocity": 0.7874015748031497,
          "duration": 0.16666674999999032
        },
        {
          "name": "C4",
          "midi": 60,
          "time": 201.6667674999971,
          "velocity": 0.7874015748031497,
          "duration": 0.16666674999999032
        },
        {
          "name": "D4",
          "midi": 62,
          "time": 201.83343424999708,
          "velocity": 0.7874015748031497,
          "duration": 0.16666674999999032
        },
        {
          "name": "D#4",
          "midi": 63,
          "time": 202.00010099999707,
          "velocity": 0.7874015748031497,
          "duration": 0.16666674999999032
        },
        {
          "name": "C4",
          "midi": 60,
          "time": 202.16676774999706,
          "velocity": 0.7874015748031497,
          "duration": 0.16666674999999032
        },
        {
          "name": "G#3",
          "midi": 56,
          "time": 202.33343449999705,
          "velocity": 0.7874015748031497,
          "duration": 0.16666674999999032
        },
        {
          "name": "F3",
          "midi": 53,
          "time": 202.50010124999704,
          "velocity": 0.7874015748031497,
          "duration": 0.16666674999999032
        },
        {
          "name": "G#3",
          "midi": 56,
          "time": 202.66676799999703,
          "velocity": 0.7874015748031497,
          "duration": 0.16666674999999032
        },
        {
          "name": "C4",
          "midi": 60,
          "time": 202.83343474999702,
          "velocity": 0.7874015748031497,
          "duration": 0.16666674999999032
        },
        {
          "name": "D4",
          "midi": 62,
          "time": 203.00010149999702,
          "velocity": 0.7874015748031497,
          "duration": 0.16666674999999032
        },
        {
          "name": "A#3",
          "midi": 58,
          "time": 203.166768249997,
          "velocity": 0.7874015748031497,
          "duration": 0.16666674999999032
        },
        {
          "name": "G3",
          "midi": 55,
          "time": 203.333434999997,
          "velocity": 0.7874015748031497,
          "duration": 0.16666674999999032
        },
        {
          "name": "D#3",
          "midi": 51,
          "time": 203.500101749997,
          "velocity": 0.7874015748031497,
          "duration": 0.16666674999999032
        },
        {
          "name": "G3",
          "midi": 55,
          "time": 203.66676849999698,
          "velocity": 0.7874015748031497,
          "duration": 0.16666674999999032
        },
        {
          "name": "A#3",
          "midi": 58,
          "time": 203.83343524999697,
          "velocity": 0.7874015748031497,
          "duration": 0.16666674999999032
        },
        {
          "name": "C4",
          "midi": 60,
          "time": 204.00010199999696,
          "velocity": 0.7874015748031497,
          "duration": 0.16666674999999032
        },
        {
          "name": "G#3",
          "midi": 56,
          "time": 204.16676874999695,
          "velocity": 0.7874015748031497,
          "duration": 0.16666674999999032
        },
        {
          "name": "F3",
          "midi": 53,
          "time": 204.33343549999694,
          "velocity": 0.7874015748031497,
          "duration": 0.16666674999999032
        },
        {
          "name": "D3",
          "midi": 50,
          "time": 204.50010224999693,
          "velocity": 0.7874015748031497,
          "duration": 0.16666674999999032
        },
        {
          "name": "F3",
          "midi": 53,
          "time": 204.66676899999692,
          "velocity": 0.7874015748031497,
          "duration": 0.16666674999999032
        },
        {
          "name": "G#3",
          "midi": 56,
          "time": 204.8334357499969,
          "velocity": 0.7874015748031497,
          "duration": 0.16666674999999032
        },
        {
          "name": "G2",
          "midi": 43,
          "time": 205.0001024999969,
          "velocity": 0.7874015748031497,
          "duration": 0.16666674999999032
        },
        {
          "name": "C4",
          "midi": 60,
          "time": 205.1667692499969,
          "velocity": 0.7874015748031497,
          "duration": 0.16666674999999032
        },
        {
          "name": "B3",
          "midi": 59,
          "time": 205.33343599999688,
          "velocity": 0.7874015748031497,
          "duration": 0.16666674999999032
        },
        {
          "name": "C4",
          "midi": 60,
          "time": 205.50010274999687,
          "velocity": 0.7874015748031497,
          "duration": 0.16666674999999032
        },
        {
          "name": "D4",
          "midi": 62,
          "time": 205.66676949999686,
          "velocity": 0.7874015748031497,
          "duration": 0.16666674999999032
        },
        {
          "name": "F3",
          "midi": 53,
          "time": 205.83343624999685,
          "velocity": 0.7874015748031497,
          "duration": 0.16666674999999032
        },
        {
          "name": "C3",
          "midi": 48,
          "time": 206.00010299999684,
          "velocity": 0.7874015748031497,
          "duration": 0.16666674999999032
        },
        {
          "name": "F4",
          "midi": 65,
          "time": 206.16676974999683,
          "velocity": 0.7874015748031497,
          "duration": 0.16666674999999032
        },
        {
          "name": "D#4",
          "midi": 63,
          "time": 206.33343649999682,
          "velocity": 0.7874015748031497,
          "duration": 0.16666674999999032
        },
        {
          "name": "F4",
          "midi": 65,
          "time": 206.5001032499968,
          "velocity": 0.7874015748031497,
          "duration": 0.16666674999999032
        },
        {
          "name": "G4",
          "midi": 67,
          "time": 206.6667699999968,
          "velocity": 0.7874015748031497,
          "duration": 0.16666674999999032
        },
        {
          "name": "A#3",
          "midi": 58,
          "time": 206.8334367499968,
          "velocity": 0.7874015748031497,
          "duration": 0.16666674999999032
        },
        {
          "name": "F3",
          "midi": 53,
          "time": 207.00010349999678,
          "velocity": 0.7874015748031497,
          "duration": 0.16666674999999032
        },
        {
          "name": "A#3",
          "midi": 58,
          "time": 207.16677024999677,
          "velocity": 0.7874015748031497,
          "duration": 0.16666674999999032
        },
        {
          "name": "G#3",
          "midi": 56,
          "time": 207.33343699999676,
          "velocity": 0.7874015748031497,
          "duration": 0.16666674999999032
        },
        {
          "name": "A#3",
          "midi": 58,
          "time": 207.50010374999675,
          "velocity": 0.7874015748031497,
          "duration": 0.16666674999999032
        },
        {
          "name": "C4",
          "midi": 60,
          "time": 207.66677049999674,
          "velocity": 0.7874015748031497,
          "duration": 0.16666674999999032
        },
        {
          "name": "D#3",
          "midi": 51,
          "time": 207.83343724999673,
          "velocity": 0.7874015748031497,
          "duration": 0.16666674999999032
        },
        {
          "name": "A#2",
          "midi": 46,
          "time": 208.00010399999672,
          "velocity": 0.7874015748031497,
          "duration": 0.16666674999999032
        },
        {
          "name": "D#4",
          "midi": 63,
          "time": 208.16677074999672,
          "velocity": 0.7874015748031497,
          "duration": 0.16666674999999032
        },
        {
          "name": "D4",
          "midi": 62,
          "time": 208.3334374999967,
          "velocity": 0.7874015748031497,
          "duration": 0.16666674999999032
        },
        {
          "name": "D#4",
          "midi": 63,
          "time": 208.5001042499967,
          "velocity": 0.7874015748031497,
          "duration": 0.16666674999999032
        },
        {
          "name": "F4",
          "midi": 65,
          "time": 208.6667709999967,
          "velocity": 0.7874015748031497,
          "duration": 0.16666674999999032
        },
        {
          "name": "G#3",
          "midi": 56,
          "time": 208.83343774999668,
          "velocity": 0.7874015748031497,
          "duration": 0.16666674999999032
        },
        {
          "name": "D#3",
          "midi": 51,
          "time": 209.00010449999667,
          "velocity": 0.7874015748031497,
          "duration": 0.16666674999999032
        },
        {
          "name": "G#3",
          "midi": 56,
          "time": 209.16677124999666,
          "velocity": 0.7874015748031497,
          "duration": 0.16666674999999032
        },
        {
          "name": "G3",
          "midi": 55,
          "time": 209.33343799999665,
          "velocity": 0.7874015748031497,
          "duration": 0.16666674999999032
        },
        {
          "name": "G#3",
          "midi": 56,
          "time": 209.50010474999664,
          "velocity": 0.7874015748031497,
          "duration": 0.16666674999999032
        },
        {
          "name": "A#3",
          "midi": 58,
          "time": 209.66677149999663,
          "velocity": 0.7874015748031497,
          "duration": 0.16666674999999032
        },
        {
          "name": "C#3",
          "midi": 49,
          "time": 209.83343824999662,
          "velocity": 0.7874015748031497,
          "duration": 0.16666674999999032
        },
        {
          "name": "G#2",
          "midi": 44,
          "time": 210.0001049999966,
          "velocity": 0.7874015748031497,
          "duration": 0.16666674999999032
        },
        {
          "name": "C3",
          "midi": 48,
          "time": 210.1667717499966,
          "velocity": 0.7874015748031497,
          "duration": 0.16666674999999032
        },
        {
          "name": "F3",
          "midi": 53,
          "time": 210.3334384999966,
          "velocity": 0.7874015748031497,
          "duration": 0.16666674999999032
        },
        {
          "name": "G#3",
          "midi": 56,
          "time": 210.50010524999658,
          "velocity": 0.7874015748031497,
          "duration": 0.16666674999999032
        },
        {
          "name": "G3",
          "midi": 55,
          "time": 210.66677199999657,
          "velocity": 0.7874015748031497,
          "duration": 0.16666674999999032
        },
        {
          "name": "F3",
          "midi": 53,
          "time": 210.83343874999656,
          "velocity": 0.7874015748031497,
          "duration": 0.16666674999999032
        },
        {
          "name": "B2",
          "midi": 47,
          "time": 211.00010549999655,
          "velocity": 0.7874015748031497,
          "duration": 0.16666674999999032
        },
        {
          "name": "D3",
          "midi": 50,
          "time": 211.16677224999654,
          "velocity": 0.7874015748031497,
          "duration": 0.16666674999999032
        },
        {
          "name": "F3",
          "midi": 53,
          "time": 211.33343899999653,
          "velocity": 0.7874015748031497,
          "duration": 0.16666674999999032
        },
        {
          "name": "G#3",
          "midi": 56,
          "time": 211.50010574999652,
          "velocity": 0.7874015748031497,
          "duration": 0.16666674999999032
        },
        {
          "name": "G3",
          "midi": 55,
          "time": 211.6667724999965,
          "velocity": 0.7874015748031497,
          "duration": 0.16666674999999032
        },
        {
          "name": "F3",
          "midi": 53,
          "time": 211.8334392499965,
          "velocity": 0.7874015748031497,
          "duration": 0.16666674999999032
        },
        {
          "name": "C3",
          "midi": 48,
          "time": 212.0001059999965,
          "velocity": 0.7874015748031497,
          "duration": 0.16666674999999032
        },
        {
          "name": "E3",
          "midi": 52,
          "time": 212.16677274999648,
          "velocity": 0.7874015748031497,
          "duration": 0.16666674999999032
        },
        {
          "name": "F3",
          "midi": 53,
          "time": 212.33343949999647,
          "velocity": 0.7874015748031497,
          "duration": 0.16666674999999032
        },
        {
          "name": "G#3",
          "midi": 56,
          "time": 212.50010624999646,
          "velocity": 0.7874015748031497,
          "duration": 0.16666674999999032
        },
        {
          "name": "G3",
          "midi": 55,
          "time": 212.66677299999645,
          "velocity": 0.7874015748031497,
          "duration": 0.16666674999999032
        },
        {
          "name": "F3",
          "midi": 53,
          "time": 212.83343974999644,
          "velocity": 0.7874015748031497,
          "duration": 0.16666674999999032
        },
        {
          "name": "D3",
          "midi": 50,
          "time": 213.00010649999643,
          "velocity": 0.7874015748031497,
          "duration": 0.16666674999999032
        },
        {
          "name": "F3",
          "midi": 53,
          "time": 213.16677324999642,
          "velocity": 0.7874015748031497,
          "duration": 0.16666674999999032
        },
        {
          "name": "B3",
          "midi": 59,
          "time": 213.33343999999641,
          "velocity": 0.7874015748031497,
          "duration": 0.16666674999999032
        },
        {
          "name": "C4",
          "midi": 60,
          "time": 213.5001067499964,
          "velocity": 0.7874015748031497,
          "duration": 0.16666674999999032
        },
        {
          "name": "D4",
          "midi": 62,
          "time": 213.6667734999964,
          "velocity": 0.7874015748031497,
          "duration": 0.16666674999999032
        },
        {
          "name": "F3",
          "midi": 53,
          "time": 213.83344024999639,
          "velocity": 0.7874015748031497,
          "duration": 0.16666674999999032
        },
        {
          "name": "D#3",
          "midi": 51,
          "time": 214.00010699999638,
          "velocity": 0.7874015748031497,
          "duration": 0.16666674999999032
        },
        {
          "name": "G3",
          "midi": 55,
          "time": 214.16677374999637,
          "velocity": 0.7874015748031497,
          "duration": 0.16666674999999032
        },
        {
          "name": "C4",
          "midi": 60,
          "time": 214.33344049999636,
          "velocity": 0.7874015748031497,
          "duration": 0.16666674999999032
        },
        {
          "name": "D4",
          "midi": 62,
          "time": 214.50010724999635,
          "velocity": 0.7874015748031497,
          "duration": 0.16666674999999032
        },
        {
          "name": "D#4",
          "midi": 63,
          "time": 214.66677399999634,
          "velocity": 0.7874015748031497,
          "duration": 0.16666674999999032
        },
        {
          "name": "C4",
          "midi": 60,
          "time": 214.83344074999633,
          "velocity": 0.7874015748031497,
          "duration": 0.16666674999999032
        },
        {
          "name": "G#4",
          "midi": 68,
          "time": 215.00010749999632,
          "velocity": 0.7874015748031497,
          "duration": 0.16666674999999032
        },
        {
          "name": "G4",
          "midi": 67,
          "time": 215.1667742499963,
          "velocity": 0.7874015748031497,
          "duration": 0.16666674999999032
        },
        {
          "name": "F4",
          "midi": 65,
          "time": 215.3334409999963,
          "velocity": 0.7874015748031497,
          "duration": 0.16666674999999032
        },
        {
          "name": "D#4",
          "midi": 63,
          "time": 215.5001077499963,
          "velocity": 0.7874015748031497,
          "duration": 0.16666674999999032
        },
        {
          "name": "D4",
          "midi": 62,
          "time": 215.66677449999628,
          "velocity": 0.7874015748031497,
          "duration": 0.16666674999999032
        },
        {
          "name": "C4",
          "midi": 60,
          "time": 215.83344124999627,
          "velocity": 0.7874015748031497,
          "duration": 0.16666674999999032
        },
        {
          "name": "G4",
          "midi": 67,
          "time": 216.00010799999626,
          "velocity": 0.7874015748031497,
          "duration": 0.16666674999999032
        },
        {
          "name": "D4",
          "midi": 62,
          "time": 216.16677474999625,
          "velocity": 0.7874015748031497,
          "duration": 0.16666674999999032
        },
        {
          "name": "D#4",
          "midi": 63,
          "time": 216.33344149999624,
          "velocity": 0.7874015748031497,
          "duration": 0.16666674999999032
        },
        {
          "name": "C4",
          "midi": 60,
          "time": 216.50010824999623,
          "velocity": 0.7874015748031497,
          "duration": 0.16666674999999032
        },
        {
          "name": "G3",
          "midi": 55,
          "time": 216.66677499999622,
          "velocity": 0.7874015748031497,
          "duration": 0.16666674999999032
        },
        {
          "name": "B3",
          "midi": 59,
          "time": 216.8334417499962,
          "velocity": 0.7874015748031497,
          "duration": 0.16666674999999032
        },
        {
          "name": "C3",
          "midi": 48,
          "time": 217.0001084999962,
          "velocity": 0.7874015748031497,
          "duration": 0.16666674999999032
        },
        {
          "name": "F3",
          "midi": 53,
          "time": 217.1667752499962,
          "velocity": 0.7874015748031497,
          "duration": 0.16666674999999032
        },
        {
          "name": "D#3",
          "midi": 51,
          "time": 217.33344199999618,
          "velocity": 0.7874015748031497,
          "duration": 0.16666674999999032
        },
        {
          "name": "D3",
          "midi": 50,
          "time": 217.50010874999617,
          "velocity": 0.7874015748031497,
          "duration": 0.16666674999999032
        },
        {
          "name": "C3",
          "midi": 48,
          "time": 217.66677549999616,
          "velocity": 0.7874015748031497,
          "duration": 0.16666674999999032
        },
        {
          "name": "A#2",
          "midi": 46,
          "time": 217.83344224999615,
          "velocity": 0.7874015748031497,
          "duration": 0.16666674999999032
        },
        {
          "name": "A2",
          "midi": 45,
          "time": 218.00010899999614,
          "velocity": 0.7874015748031497,
          "duration": 0.16666674999999032
        },
        {
          "name": "C3",
          "midi": 48,
          "time": 218.16677574999613,
          "velocity": 0.7874015748031497,
          "duration": 0.16666674999999032
        },
        {
          "name": "F3",
          "midi": 53,
          "time": 218.33344249999612,
          "velocity": 0.7874015748031497,
          "duration": 0.16666674999999032
        },
        {
          "name": "C3",
          "midi": 48,
          "time": 218.50010924999611,
          "velocity": 0.7874015748031497,
          "duration": 0.16666674999999032
        },
        {
          "name": "F3",
          "midi": 53,
          "time": 218.6667759999961,
          "velocity": 0.7874015748031497,
          "duration": 0.16666674999999032
        },
        {
          "name": "A3",
          "midi": 57,
          "time": 218.8334427499961,
          "velocity": 0.7874015748031497,
          "duration": 0.16666674999999032
        },
        {
          "name": "F3",
          "midi": 53,
          "time": 219.00010949999609,
          "velocity": 0.7874015748031497,
          "duration": 0.16666674999999032
        },
        {
          "name": "A3",
          "midi": 57,
          "time": 219.16677624999608,
          "velocity": 0.7874015748031497,
          "duration": 0.16666674999999032
        },
        {
          "name": "C4",
          "midi": 60,
          "time": 219.33344299999607,
          "velocity": 0.7874015748031497,
          "duration": 0.16666674999999032
        },
        {
          "name": "A3",
          "midi": 57,
          "time": 219.50010974999606,
          "velocity": 0.7874015748031497,
          "duration": 0.16666674999999032
        },
        {
          "name": "C4",
          "midi": 60,
          "time": 219.66677649999605,
          "velocity": 0.7874015748031497,
          "duration": 0.16666674999999032
        },
        {
          "name": "D#4",
          "midi": 63,
          "time": 219.83344324999604,
          "velocity": 0.7874015748031497,
          "duration": 0.16666674999999032
        },
        {
          "name": "C4",
          "midi": 60,
          "time": 220.00010999999603,
          "velocity": 0.7874015748031497,
          "duration": 0.16666674999999032
        },
        {
          "name": "D#4",
          "midi": 63,
          "time": 220.16677674999602,
          "velocity": 0.7874015748031497,
          "duration": 0.16666674999999032
        },
        {
          "name": "A4",
          "midi": 69,
          "time": 220.333443499996,
          "velocity": 0.7874015748031497,
          "duration": 0.16666674999999032
        },
        {
          "name": "G4",
          "midi": 67,
          "time": 220.500110249996,
          "velocity": 0.7874015748031497,
          "duration": 0.16666674999999032
        },
        {
          "name": "F4",
          "midi": 65,
          "time": 220.666776999996,
          "velocity": 0.7874015748031497,
          "duration": 0.16666674999999032
        },
        {
          "name": "D#4",
          "midi": 63,
          "time": 220.83344374999598,
          "velocity": 0.7874015748031497,
          "duration": 0.16666674999999032
        },
        {
          "name": "D4",
          "midi": 62,
          "time": 221.00011049999597,
          "velocity": 0.7874015748031497,
          "duration": 0.16666674999999032
        },
        {
          "name": "C4",
          "midi": 60,
          "time": 221.16677724999596,
          "velocity": 0.7874015748031497,
          "duration": 0.16666674999999032
        },
        {
          "name": "A#3",
          "midi": 58,
          "time": 221.33344399999595,
          "velocity": 0.7874015748031497,
          "duration": 0.16666674999999032
        },
        {
          "name": "C4",
          "midi": 60,
          "time": 221.50011074999594,
          "velocity": 0.7874015748031497,
          "duration": 0.16666674999999032
        },
        {
          "name": "D4",
          "midi": 62,
          "time": 221.66677749999593,
          "velocity": 0.7874015748031497,
          "duration": 0.16666674999999032
        },
        {
          "name": "E4",
          "midi": 64,
          "time": 221.83344424999592,
          "velocity": 0.7874015748031497,
          "duration": 0.16666674999999032
        },
        {
          "name": "F#4",
          "midi": 66,
          "time": 222.0001109999959,
          "velocity": 0.7874015748031497,
          "duration": 0.16666674999999032
        },
        {
          "name": "A4",
          "midi": 69,
          "time": 222.1667777499959,
          "velocity": 0.7874015748031497,
          "duration": 0.16666674999999032
        },
        {
          "name": "C5",
          "midi": 72,
          "time": 222.3334444999959,
          "velocity": 0.7874015748031497,
          "duration": 0.16666674999999032
        },
        {
          "name": "A4",
          "midi": 69,
          "time": 222.50011124999588,
          "velocity": 0.7874015748031497,
          "duration": 0.16666674999999032
        },
        {
          "name": "F#4",
          "midi": 66,
          "time": 222.66677799999587,
          "velocity": 0.7874015748031497,
          "duration": 0.16666674999999032
        },
        {
          "name": "A4",
          "midi": 69,
          "time": 222.83344474999586,
          "velocity": 0.7874015748031497,
          "duration": 0.16666674999999032
        },
        {
          "name": "F#4",
          "midi": 66,
          "time": 223.00011149999585,
          "velocity": 0.7874015748031497,
          "duration": 0.16666674999999032
        },
        {
          "name": "C4",
          "midi": 60,
          "time": 223.16677824999584,
          "velocity": 0.7874015748031497,
          "duration": 0.16666674999999032
        },
        {
          "name": "F#4",
          "midi": 66,
          "time": 223.33344499999583,
          "velocity": 0.7874015748031497,
          "duration": 0.16666674999999032
        },
        {
          "name": "C4",
          "midi": 60,
          "time": 223.50011174999582,
          "velocity": 0.7874015748031497,
          "duration": 0.16666674999999032
        },
        {
          "name": "A3",
          "midi": 57,
          "time": 223.66677849999581,
          "velocity": 0.7874015748031497,
          "duration": 0.16666674999999032
        },
        {
          "name": "C4",
          "midi": 60,
          "time": 223.8334452499958,
          "velocity": 0.7874015748031497,
          "duration": 0.16666674999999032
        },
        {
          "name": "A3",
          "midi": 57,
          "time": 224.0001119999958,
          "velocity": 0.7874015748031497,
          "duration": 0.16666674999999032
        },
        {
          "name": "F#3",
          "midi": 54,
          "time": 224.16677874999579,
          "velocity": 0.7874015748031497,
          "duration": 0.16666674999999032
        },
        {
          "name": "A3",
          "midi": 57,
          "time": 224.33344549999578,
          "velocity": 0.7874015748031497,
          "duration": 0.16666674999999032
        },
        {
          "name": "F#3",
          "midi": 54,
          "time": 224.50011224999577,
          "velocity": 0.7874015748031497,
          "duration": 0.16666674999999032
        },
        {
          "name": "D3",
          "midi": 50,
          "time": 224.66677899999576,
          "velocity": 0.7874015748031497,
          "duration": 0.16666674999999032
        },
        {
          "name": "C4",
          "midi": 60,
          "time": 224.83344574999575,
          "velocity": 0.7874015748031497,
          "duration": 0.16666674999999032
        },
        {
          "name": "A#3",
          "midi": 58,
          "time": 225.00011249999574,
          "velocity": 0.7874015748031497,
          "duration": 0.16666674999999032
        },
        {
          "name": "G3",
          "midi": 55,
          "time": 225.16677924999573,
          "velocity": 0.7874015748031497,
          "duration": 0.16666674999999032
        },
        {
          "name": "A#3",
          "midi": 58,
          "time": 225.33344599999572,
          "velocity": 0.7874015748031497,
          "duration": 0.16666674999999032
        },
        {
          "name": "G3",
          "midi": 55,
          "time": 225.5001127499957,
          "velocity": 0.7874015748031497,
          "duration": 0.16666674999999032
        },
        {
          "name": "E3",
          "midi": 52,
          "time": 225.6667794999957,
          "velocity": 0.7874015748031497,
          "duration": 0.16666674999999032
        },
        {
          "name": "D4",
          "midi": 62,
          "time": 225.8334462499957,
          "velocity": 0.7874015748031497,
          "duration": 0.16666674999999032
        },
        {
          "name": "C4",
          "midi": 60,
          "time": 226.00011299999568,
          "velocity": 0.7874015748031497,
          "duration": 0.16666674999999032
        },
        {
          "name": "A3",
          "midi": 57,
          "time": 226.16677974999567,
          "velocity": 0.7874015748031497,
          "duration": 0.16666674999999032
        },
        {
          "name": "C4",
          "midi": 60,
          "time": 226.33344649999566,
          "velocity": 0.7874015748031497,
          "duration": 0.16666674999999032
        },
        {
          "name": "A3",
          "midi": 57,
          "time": 226.50011324999565,
          "velocity": 0.7874015748031497,
          "duration": 0.16666674999999032
        },
        {
          "name": "F#3",
          "midi": 54,
          "time": 226.66677999999564,
          "velocity": 0.7874015748031497,
          "duration": 0.16666674999999032
        },
        {
          "name": "D#4",
          "midi": 63,
          "time": 226.83344674999563,
          "velocity": 0.7874015748031497,
          "duration": 0.16666674999999032
        },
        {
          "name": "D4",
          "midi": 62,
          "time": 227.00011349999562,
          "velocity": 0.7874015748031497,
          "duration": 0.16666674999999032
        },
        {
          "name": "A#3",
          "midi": 58,
          "time": 227.1667802499956,
          "velocity": 0.7874015748031497,
          "duration": 0.16666674999999032
        },
        {
          "name": "D4",
          "midi": 62,
          "time": 227.3334469999956,
          "velocity": 0.7874015748031497,
          "duration": 0.16666674999999032
        },
        {
          "name": "A#3",
          "midi": 58,
          "time": 227.5001137499956,
          "velocity": 0.7874015748031497,
          "duration": 0.16666674999999032
        },
        {
          "name": "G3",
          "midi": 55,
          "time": 227.66678049999558,
          "velocity": 0.7874015748031497,
          "duration": 0.16666674999999032
        },
        {
          "name": "F4",
          "midi": 65,
          "time": 227.83344724999557,
          "velocity": 0.7874015748031497,
          "duration": 0.16666674999999032
        },
        {
          "name": "D#4",
          "midi": 63,
          "time": 228.00011399999556,
          "velocity": 0.7874015748031497,
          "duration": 0.16666674999999032
        },
        {
          "name": "C4",
          "midi": 60,
          "time": 228.16678074999555,
          "velocity": 0.7874015748031497,
          "duration": 0.16666674999999032
        },
        {
          "name": "D#4",
          "midi": 63,
          "time": 228.33344749999554,
          "velocity": 0.7874015748031497,
          "duration": 0.16666674999999032
        },
        {
          "name": "C4",
          "midi": 60,
          "time": 228.50011424999553,
          "velocity": 0.7874015748031497,
          "duration": 0.16666674999999032
        },
        {
          "name": "A3",
          "midi": 57,
          "time": 228.66678099999552,
          "velocity": 0.7874015748031497,
          "duration": 0.16666674999999032
        },
        {
          "name": "G4",
          "midi": 67,
          "time": 228.8334477499955,
          "velocity": 0.7874015748031497,
          "duration": 0.16666674999999032
        },
        {
          "name": "F#4",
          "midi": 66,
          "time": 229.0001144999955,
          "velocity": 0.7874015748031497,
          "duration": 0.16666674999999032
        },
        {
          "name": "D4",
          "midi": 62,
          "time": 229.1667812499955,
          "velocity": 0.7874015748031497,
          "duration": 0.16666674999999032
        },
        {
          "name": "E4",
          "midi": 64,
          "time": 229.33344799999549,
          "velocity": 0.7874015748031497,
          "duration": 0.16666674999999032
        },
        {
          "name": "F#4",
          "midi": 66,
          "time": 229.50011474999548,
          "velocity": 0.7874015748031497,
          "duration": 0.16666674999999032
        },
        {
          "name": "G4",
          "midi": 67,
          "time": 229.66678149999547,
          "velocity": 0.7874015748031497,
          "duration": 0.16666674999999032
        },
        {
          "name": "A4",
          "midi": 69,
          "time": 229.83344824999546,
          "velocity": 0.7874015748031497,
          "duration": 0.16666674999999032
        },
        {
          "name": "A#4",
          "midi": 70,
          "time": 230.00011499999545,
          "velocity": 0.7874015748031497,
          "duration": 0.16666674999999032
        },
        {
          "name": "D4",
          "midi": 62,
          "time": 230.16678174999544,
          "velocity": 0.7874015748031497,
          "duration": 0.16666674999999032
        },
        {
          "name": "G4",
          "midi": 67,
          "time": 230.33344849999543,
          "velocity": 0.7874015748031497,
          "duration": 0.16666674999999032
        },
        {
          "name": "A#4",
          "midi": 70,
          "time": 230.50011524999542,
          "velocity": 0.7874015748031497,
          "duration": 0.16666674999999032
        },
        {
          "name": "C4",
          "midi": 60,
          "time": 230.6667819999954,
          "velocity": 0.7874015748031497,
          "duration": 0.16666674999999032
        },
        {
          "name": "D#4",
          "midi": 63,
          "time": 230.8334487499954,
          "velocity": 0.7874015748031497,
          "duration": 0.16666674999999032
        },
        {
          "name": "A4",
          "midi": 69,
          "time": 231.0001154999954,
          "velocity": 0.7874015748031497,
          "duration": 0.16666674999999032
        },
        {
          "name": "F4",
          "midi": 65,
          "time": 231.16678224999538,
          "velocity": 0.7874015748031497,
          "duration": 0.16666674999999032
        },
        {
          "name": "D4",
          "midi": 62,
          "time": 231.33344899999537,
          "velocity": 0.7874015748031497,
          "duration": 0.16666674999999032
        },
        {
          "name": "A#3",
          "midi": 58,
          "time": 231.50011574999536,
          "velocity": 0.7874015748031497,
          "duration": 0.16666674999999032
        },
        {
          "name": "D4",
          "midi": 62,
          "time": 231.66678249999535,
          "velocity": 0.7874015748031497,
          "duration": 0.16666674999999032
        },
        {
          "name": "F4",
          "midi": 65,
          "time": 231.83344924999534,
          "velocity": 0.7874015748031497,
          "duration": 0.16666674999999032
        },
        {
          "name": "G4",
          "midi": 67,
          "time": 232.00011599999533,
          "velocity": 0.7874015748031497,
          "duration": 0.16666674999999032
        },
        {
          "name": "A#3",
          "midi": 58,
          "time": 232.16678274999532,
          "velocity": 0.7874015748031497,
          "duration": 0.16666674999999032
        },
        {
          "name": "D#4",
          "midi": 63,
          "time": 232.3334494999953,
          "velocity": 0.7874015748031497,
          "duration": 0.16666674999999032
        },
        {
          "name": "G4",
          "midi": 67,
          "time": 232.5001162499953,
          "velocity": 0.7874015748031497,
          "duration": 0.16666674999999032
        },
        {
          "name": "A3",
          "midi": 57,
          "time": 232.6667829999953,
          "velocity": 0.7874015748031497,
          "duration": 0.16666674999999032
        },
        {
          "name": "C4",
          "midi": 60,
          "time": 232.83344974999528,
          "velocity": 0.7874015748031497,
          "duration": 0.16666674999999032
        },
        {
          "name": "F4",
          "midi": 65,
          "time": 233.00011649999527,
          "velocity": 0.7874015748031497,
          "duration": 0.16666674999999032
        },
        {
          "name": "D4",
          "midi": 62,
          "time": 233.16678324999526,
          "velocity": 0.7874015748031497,
          "duration": 0.16666674999999032
        },
        {
          "name": "A#3",
          "midi": 58,
          "time": 233.33344999999525,
          "velocity": 0.7874015748031497,
          "duration": 0.16666674999999032
        },
        {
          "name": "G3",
          "midi": 55,
          "time": 233.50011674999524,
          "velocity": 0.7874015748031497,
          "duration": 0.16666674999999032
        },
        {
          "name": "A#3",
          "midi": 58,
          "time": 233.66678349999523,
          "velocity": 0.7874015748031497,
          "duration": 0.16666674999999032
        },
        {
          "name": "D4",
          "midi": 62,
          "time": 233.83345024999522,
          "velocity": 0.7874015748031497,
          "duration": 0.16666674999999032
        },
        {
          "name": "D#4",
          "midi": 63,
          "time": 234.0001169999952,
          "velocity": 0.7874015748031497,
          "duration": 0.16666674999999032
        },
        {
          "name": "G3",
          "midi": 55,
          "time": 234.1667837499952,
          "velocity": 0.7874015748031497,
          "duration": 0.16666674999999032
        },
        {
          "name": "C4",
          "midi": 60,
          "time": 234.3334504999952,
          "velocity": 0.7874015748031497,
          "duration": 0.16666674999999032
        },
        {
          "name": "D#4",
          "midi": 63,
          "time": 234.50011724999518,
          "velocity": 0.7874015748031497,
          "duration": 0.16666674999999032
        },
        {
          "name": "F3",
          "midi": 53,
          "time": 234.66678399999518,
          "velocity": 0.7874015748031497,
          "duration": 0.16666674999999032
        },
        {
          "name": "A3",
          "midi": 57,
          "time": 234.83345074999517,
          "velocity": 0.7874015748031497,
          "duration": 0.16666674999999032
        },
        {
          "name": "D4",
          "midi": 62,
          "time": 235.00011749999516,
          "velocity": 0.7874015748031497,
          "duration": 0.16666674999999032
        },
        {
          "name": "A#3",
          "midi": 58,
          "time": 235.16678424999515,
          "velocity": 0.7874015748031497,
          "duration": 0.16666674999999032
        },
        {
          "name": "G3",
          "midi": 55,
          "time": 235.33345099999514,
          "velocity": 0.7874015748031497,
          "duration": 0.16666674999999032
        },
        {
          "name": "E3",
          "midi": 52,
          "time": 235.50011774999513,
          "velocity": 0.7874015748031497,
          "duration": 0.16666674999999032
        },
        {
          "name": "G3",
          "midi": 55,
          "time": 235.66678449999512,
          "velocity": 0.7874015748031497,
          "duration": 0.16666674999999032
        },
        {
          "name": "A#3",
          "midi": 58,
          "time": 235.8334512499951,
          "velocity": 0.7874015748031497,
          "duration": 0.16666674999999032
        },
        {
          "name": "C4",
          "midi": 60,
          "time": 236.0001179999951,
          "velocity": 0.7874015748031497,
          "duration": 0.16666674999999032
        },
        {
          "name": "A3",
          "midi": 57,
          "time": 236.1667847499951,
          "velocity": 0.7874015748031497,
          "duration": 0.16666674999999032
        },
        {
          "name": "A#3",
          "midi": 58,
          "time": 236.33345149999508,
          "velocity": 0.7874015748031497,
          "duration": 0.16666674999999032
        },
        {
          "name": "G3",
          "midi": 55,
          "time": 236.50011824999507,
          "velocity": 0.7874015748031497,
          "duration": 0.16666674999999032
        },
        {
          "name": "F#3",
          "midi": 54,
          "time": 236.66678499999506,
          "velocity": 0.7874015748031497,
          "duration": 0.16666674999999032
        },
        {
          "name": "A3",
          "midi": 57,
          "time": 236.83345174999505,
          "velocity": 0.7874015748031497,
          "duration": 0.16666674999999032
        },
        {
          "name": "D3",
          "midi": 50,
          "time": 237.00011849999504,
          "velocity": 0.7874015748031497,
          "duration": 0.16666674999999032
        },
        {
          "name": "E3",
          "midi": 52,
          "time": 237.16678524999503,
          "velocity": 0.7874015748031497,
          "duration": 0.16666674999999032
        },
        {
          "name": "F#3",
          "midi": 54,
          "time": 237.33345199999502,
          "velocity": 0.7874015748031497,
          "duration": 0.16666674999999032
        },
        {
          "name": "G3",
          "midi": 55,
          "time": 237.500118749995,
          "velocity": 0.7874015748031497,
          "duration": 0.16666674999999032
        },
        {
          "name": "A3",
          "midi": 57,
          "time": 237.666785499995,
          "velocity": 0.7874015748031497,
          "duration": 0.16666674999999032
        },
        {
          "name": "A#3",
          "midi": 58,
          "time": 237.833452249995,
          "velocity": 0.7874015748031497,
          "duration": 0.16666674999999032
        },
        {
          "name": "C4",
          "midi": 60,
          "time": 238.00011899999498,
          "velocity": 0.7874015748031497,
          "duration": 0.16666674999999032
        },
        {
          "name": "D#4",
          "midi": 63,
          "time": 238.16678574999497,
          "velocity": 0.7874015748031497,
          "duration": 0.16666674999999032
        },
        {
          "name": "D4",
          "midi": 62,
          "time": 238.33345249999496,
          "velocity": 0.7874015748031497,
          "duration": 0.16666674999999032
        },
        {
          "name": "G4",
          "midi": 67,
          "time": 238.50011924999495,
          "velocity": 0.7874015748031497,
          "duration": 0.16666674999999032
        },
        {
          "name": "F#4",
          "midi": 66,
          "time": 238.66678599999494,
          "velocity": 0.7874015748031497,
          "duration": 0.16666674999999032
        },
        {
          "name": "A#4",
          "midi": 70,
          "time": 238.83345274999493,
          "velocity": 0.7874015748031497,
          "duration": 0.16666674999999032
        },
        {
          "name": "A4",
          "midi": 69,
          "time": 239.00011949999492,
          "velocity": 0.7874015748031497,
          "duration": 0.16666674999999032
        },
        {
          "name": "G4",
          "midi": 67,
          "time": 239.1667862499949,
          "velocity": 0.7874015748031497,
          "duration": 0.16666674999999032
        },
        {
          "name": "F#4",
          "midi": 66,
          "time": 239.3334529999949,
          "velocity": 0.7874015748031497,
          "duration": 0.16666674999999032
        },
        {
          "name": "E4",
          "midi": 64,
          "time": 239.5001197499949,
          "velocity": 0.7874015748031497,
          "duration": 0.16666674999999032
        },
        {
          "name": "D4",
          "midi": 62,
          "time": 239.66678649999488,
          "velocity": 0.7874015748031497,
          "duration": 0.16666674999999032
        },
        {
          "name": "C4",
          "midi": 60,
          "time": 239.83345324999488,
          "velocity": 0.7874015748031497,
          "duration": 0.16666674999999032
        },
        {
          "name": "A#3",
          "midi": 58,
          "time": 240.00011999999487,
          "velocity": 0.7874015748031497,
          "duration": 0.16666674999999032
        },
        {
          "name": "D#4",
          "midi": 63,
          "time": 240.16678674999486,
          "velocity": 0.7874015748031497,
          "duration": 0.16666674999999032
        },
        {
          "name": "D4",
          "midi": 62,
          "time": 240.33345349999485,
          "velocity": 0.7874015748031497,
          "duration": 0.16666674999999032
        },
        {
          "name": "A#3",
          "midi": 58,
          "time": 240.50012024999484,
          "velocity": 0.7874015748031497,
          "duration": 0.16666674999999032
        },
        {
          "name": "C4",
          "midi": 60,
          "time": 240.66678699999483,
          "velocity": 0.7874015748031497,
          "duration": 0.16666674999999032
        },
        {
          "name": "A3",
          "midi": 57,
          "time": 240.83345374999482,
          "velocity": 0.7874015748031497,
          "duration": 0.16666674999999032
        },
        {
          "name": "F3",
          "midi": 53,
          "time": 241.0001204999948,
          "velocity": 0.7874015748031497,
          "duration": 0.16666674999999032
        },
        {
          "name": "D4",
          "midi": 62,
          "time": 241.1667872499948,
          "velocity": 0.7874015748031497,
          "duration": 0.16666674999999032
        },
        {
          "name": "C4",
          "midi": 60,
          "time": 241.3334539999948,
          "velocity": 0.7874015748031497,
          "duration": 0.16666674999999032
        },
        {
          "name": "A3",
          "midi": 57,
          "time": 241.50012074999478,
          "velocity": 0.7874015748031497,
          "duration": 0.16666674999999032
        },
        {
          "name": "A#3",
          "midi": 58,
          "time": 241.66678749999477,
          "velocity": 0.7874015748031497,
          "duration": 0.16666674999999032
        },
        {
          "name": "G3",
          "midi": 55,
          "time": 241.83345424999476,
          "velocity": 0.7874015748031497,
          "duration": 0.16666674999999032
        },
        {
          "name": "D#3",
          "midi": 51,
          "time": 242.00012099999475,
          "velocity": 0.7874015748031497,
          "duration": 0.16666674999999032
        },
        {
          "name": "C4",
          "midi": 60,
          "time": 242.16678774999474,
          "velocity": 0.7874015748031497,
          "duration": 0.16666674999999032
        },
        {
          "name": "A#3",
          "midi": 58,
          "time": 242.33345449999473,
          "velocity": 0.7874015748031497,
          "duration": 0.16666674999999032
        },
        {
          "name": "G3",
          "midi": 55,
          "time": 242.50012124999472,
          "velocity": 0.7874015748031497,
          "duration": 0.16666674999999032
        },
        {
          "name": "A3",
          "midi": 57,
          "time": 242.6667879999947,
          "velocity": 0.7874015748031497,
          "duration": 0.16666674999999032
        },
        {
          "name": "F#3",
          "midi": 54,
          "time": 242.8334547499947,
          "velocity": 0.7874015748031497,
          "duration": 0.16666674999999032
        },
        {
          "name": "D3",
          "midi": 50,
          "time": 243.0001214999947,
          "velocity": 0.7874015748031497,
          "duration": 0.16666674999999032
        },
        {
          "name": "A#3",
          "midi": 58,
          "time": 243.16678824999468,
          "velocity": 0.7874015748031497,
          "duration": 0.16666674999999032
        },
        {
          "name": "A3",
          "midi": 57,
          "time": 243.33345499999467,
          "velocity": 0.7874015748031497,
          "duration": 0.16666674999999032
        },
        {
          "name": "F#3",
          "midi": 54,
          "time": 243.50012174999466,
          "velocity": 0.7874015748031497,
          "duration": 0.16666674999999032
        },
        {
          "name": "G3",
          "midi": 55,
          "time": 243.66678849999465,
          "velocity": 0.7874015748031497,
          "duration": 0.16666674999999032
        },
        {
          "name": "D#3",
          "midi": 51,
          "time": 243.83345524999464,
          "velocity": 0.7874015748031497,
          "duration": 0.16666674999999032
        },
        {
          "name": "C3",
          "midi": 48,
          "time": 244.00012199999463,
          "velocity": 0.7874015748031497,
          "duration": 0.16666674999999032
        },
        {
          "name": "A3",
          "midi": 57,
          "time": 244.16678874999462,
          "velocity": 0.7874015748031497,
          "duration": 0.16666674999999032
        },
        {
          "name": "G3",
          "midi": 55,
          "time": 244.3334554999946,
          "velocity": 0.7874015748031497,
          "duration": 0.16666674999999032
        },
        {
          "name": "E3",
          "midi": 52,
          "time": 244.5001222499946,
          "velocity": 0.7874015748031497,
          "duration": 0.16666674999999032
        },
        {
          "name": "F#3",
          "midi": 54,
          "time": 244.6667889999946,
          "velocity": 0.7874015748031497,
          "duration": 0.16666674999999032
        },
        {
          "name": "D3",
          "midi": 50,
          "time": 244.83345574999458,
          "velocity": 0.7874015748031497,
          "duration": 0.16666674999999032
        },
        {
          "name": "A#2",
          "midi": 46,
          "time": 245.00012249999457,
          "velocity": 0.7874015748031497,
          "duration": 0.16666674999999032
        },
        {
          "name": "D4",
          "midi": 62,
          "time": 245.16678924999457,
          "velocity": 0.7874015748031497,
          "duration": 0.16666674999999032
        },
        {
          "name": "C4",
          "midi": 60,
          "time": 245.33345599999456,
          "velocity": 0.7874015748031497,
          "duration": 0.16666674999999032
        },
        {
          "name": "A#3",
          "midi": 58,
          "time": 245.50012274999455,
          "velocity": 0.7874015748031497,
          "duration": 0.16666674999999032
        },
        {
          "name": "A3",
          "midi": 57,
          "time": 245.66678949999454,
          "velocity": 0.7874015748031497,
          "duration": 0.16666674999999032
        },
        {
          "name": "G3",
          "midi": 55,
          "time": 245.83345624999453,
          "velocity": 0.7874015748031497,
          "duration": 0.16666674999999032
        },
        {
          "name": "D#4",
          "midi": 63,
          "time": 246.00012299999452,
          "velocity": 0.7874015748031497,
          "duration": 0.16666674999999032
        },
        {
          "name": "D4",
          "midi": 62,
          "time": 246.1667897499945,
          "velocity": 0.7874015748031497,
          "duration": 0.16666674999999032
        },
        {
          "name": "C4",
          "midi": 60,
          "time": 246.3334564999945,
          "velocity": 0.7874015748031497,
          "duration": 0.16666674999999032
        },
        {
          "name": "A#4",
          "midi": 70,
          "time": 246.5001232499945,
          "velocity": 0.7874015748031497,
          "duration": 0.16666674999999032
        },
        {
          "name": "A4",
          "midi": 69,
          "time": 246.66678999999448,
          "velocity": 0.7874015748031497,
          "duration": 0.16666674999999032
        },
        {
          "name": "G4",
          "midi": 67,
          "time": 246.83345674999447,
          "velocity": 0.7874015748031497,
          "duration": 0.16666674999999032
        },
        {
          "name": "F#4",
          "midi": 66,
          "time": 247.00012349999446,
          "velocity": 0.7874015748031497,
          "duration": 0.16666674999999032
        },
        {
          "name": "G4",
          "midi": 67,
          "time": 247.16679024999445,
          "velocity": 0.7874015748031497,
          "duration": 0.16666674999999032
        },
        {
          "name": "A4",
          "midi": 69,
          "time": 247.33345699999444,
          "velocity": 0.7874015748031497,
          "duration": 0.16666674999999032
        },
        {
          "name": "D4",
          "midi": 62,
          "time": 247.50012374999443,
          "velocity": 0.7874015748031497,
          "duration": 0.16666674999999032
        },
        {
          "name": "D#4",
          "midi": 63,
          "time": 247.66679049999442,
          "velocity": 0.7874015748031497,
          "duration": 0.16666674999999032
        },
        {
          "name": "C4",
          "midi": 60,
          "time": 247.8334572499944,
          "velocity": 0.7874015748031497,
          "duration": 0.16666674999999032
        },
        {
          "name": "F3",
          "midi": 53,
          "time": 248.0001239999944,
          "velocity": 0.7874015748031497,
          "duration": 0.16666674999999032
        },
        {
          "name": "B3",
          "midi": 59,
          "time": 248.1667907499944,
          "velocity": 0.7874015748031497,
          "duration": 0.16666674999999032
        },
        {
          "name": "D4",
          "midi": 62,
          "time": 248.33345749999438,
          "velocity": 0.7874015748031497,
          "duration": 0.16666674999999032
        },
        {
          "name": "G#3",
          "midi": 56,
          "time": 248.50012424999437,
          "velocity": 0.7874015748031497,
          "duration": 0.16666674999999032
        },
        {
          "name": "G3",
          "midi": 55,
          "time": 248.66679099999436,
          "velocity": 0.7874015748031497,
          "duration": 0.16666674999999032
        },
        {
          "name": "F3",
          "midi": 53,
          "time": 248.83345774999435,
          "velocity": 0.7874015748031497,
          "duration": 0.16666674999999032
        },
        {
          "name": "E3",
          "midi": 52,
          "time": 249.00012449999434,
          "velocity": 0.7874015748031497,
          "duration": 0.16666674999999032
        },
        {
          "name": "G3",
          "midi": 55,
          "time": 249.16679124999433,
          "velocity": 0.7874015748031497,
          "duration": 0.16666674999999032
        },
        {
          "name": "C4",
          "midi": 60,
          "time": 249.33345799999432,
          "velocity": 0.7874015748031497,
          "duration": 0.16666674999999032
        },
        {
          "name": "E4",
          "midi": 64,
          "time": 249.5001247499943,
          "velocity": 0.7874015748031497,
          "duration": 0.16666674999999032
        },
        {
          "name": "G4",
          "midi": 67,
          "time": 249.6667914999943,
          "velocity": 0.7874015748031497,
          "duration": 0.16666674999999032
        },
        {
          "name": "A#3",
          "midi": 58,
          "time": 249.8334582499943,
          "velocity": 0.7874015748031497,
          "duration": 0.16666674999999032
        },
        {
          "name": "D#3",
          "midi": 51,
          "time": 250.00012499999428,
          "velocity": 0.7874015748031497,
          "duration": 0.16666674999999032
        },
        {
          "name": "A3",
          "midi": 57,
          "time": 250.16679174999427,
          "velocity": 0.7874015748031497,
          "duration": 0.16666674999999032
        },
        {
          "name": "C4",
          "midi": 60,
          "time": 250.33345849999426,
          "velocity": 0.7874015748031497,
          "duration": 0.16666674999999032
        },
        {
          "name": "G3",
          "midi": 55,
          "time": 250.50012524999426,
          "velocity": 0.7874015748031497,
          "duration": 0.16666674999999032
        },
        {
          "name": "F3",
          "midi": 53,
          "time": 250.66679199999425,
          "velocity": 0.7874015748031497,
          "duration": 0.16666674999999032
        },
        {
          "name": "D#3",
          "midi": 51,
          "time": 250.83345874999424,
          "velocity": 0.7874015748031497,
          "duration": 0.16666674999999032
        },
        {
          "name": "D3",
          "midi": 50,
          "time": 251.00012549999423,
          "velocity": 0.7874015748031497,
          "duration": 0.16666674999999032
        },
        {
          "name": "F3",
          "midi": 53,
          "time": 251.16679224999422,
          "velocity": 0.7874015748031497,
          "duration": 0.16666674999999032
        },
        {
          "name": "A#3",
          "midi": 58,
          "time": 251.3334589999942,
          "velocity": 0.7874015748031497,
          "duration": 0.16666674999999032
        },
        {
          "name": "D4",
          "midi": 62,
          "time": 251.5001257499942,
          "velocity": 0.7874015748031497,
          "duration": 0.16666674999999032
        },
        {
          "name": "F4",
          "midi": 65,
          "time": 251.6667924999942,
          "velocity": 0.7874015748031497,
          "duration": 0.16666674999999032
        },
        {
          "name": "G#3",
          "midi": 56,
          "time": 251.83345924999418,
          "velocity": 0.7874015748031497,
          "duration": 0.16666674999999032
        },
        {
          "name": "G3",
          "midi": 55,
          "time": 252.00012599999417,
          "velocity": 0.7874015748031497,
          "duration": 0.16666674999999032
        },
        {
          "name": "D#4",
          "midi": 63,
          "time": 252.16679274999416,
          "velocity": 0.7874015748031497,
          "duration": 0.16666674999999032
        },
        {
          "name": "A#3",
          "midi": 58,
          "time": 252.33345949999415,
          "velocity": 0.7874015748031497,
          "duration": 0.16666674999999032
        },
        {
          "name": "G3",
          "midi": 55,
          "time": 252.50012624999414,
          "velocity": 0.7874015748031497,
          "duration": 0.16666674999999032
        },
        {
          "name": "D#3",
          "midi": 51,
          "time": 252.66679299999413,
          "velocity": 0.7874015748031497,
          "duration": 0.16666674999999032
        },
        {
          "name": "D3",
          "midi": 50,
          "time": 252.83345974999412,
          "velocity": 0.7874015748031497,
          "duration": 0.16666674999999032
        },
        {
          "name": "C3",
          "midi": 48,
          "time": 253.0001264999941,
          "velocity": 0.7874015748031497,
          "duration": 0.16666674999999032
        },
        {
          "name": "D#4",
          "midi": 63,
          "time": 253.1667932499941,
          "velocity": 0.7874015748031497,
          "duration": 0.16666674999999032
        },
        {
          "name": "C4",
          "midi": 60,
          "time": 253.3334599999941,
          "velocity": 0.7874015748031497,
          "duration": 0.16666674999999032
        },
        {
          "name": "A#3",
          "midi": 58,
          "time": 253.50012674999408,
          "velocity": 0.7874015748031497,
          "duration": 0.16666674999999032
        },
        {
          "name": "A3",
          "midi": 57,
          "time": 253.66679349999407,
          "velocity": 0.7874015748031497,
          "duration": 0.16666674999999032
        },
        {
          "name": "G3",
          "midi": 55,
          "time": 253.83346024999406,
          "velocity": 0.7874015748031497,
          "duration": 0.16666674999999032
        },
        {
          "name": "F#3",
          "midi": 54,
          "time": 254.00012699999405,
          "velocity": 0.7874015748031497,
          "duration": 0.16666674999999032
        },
        {
          "name": "D4",
          "midi": 62,
          "time": 254.16679374999404,
          "velocity": 0.7874015748031497,
          "duration": 0.16666674999999032
        },
        {
          "name": "A3",
          "midi": 57,
          "time": 254.33346049999403,
          "velocity": 0.7874015748031497,
          "duration": 0.16666674999999032
        },
        {
          "name": "F#3",
          "midi": 54,
          "time": 254.50012724999402,
          "velocity": 0.7874015748031497,
          "duration": 0.16666674999999032
        },
        {
          "name": "D3",
          "midi": 50,
          "time": 254.666793999994,
          "velocity": 0.7874015748031497,
          "duration": 0.16666674999999032
        },
        {
          "name": "C3",
          "midi": 48,
          "time": 254.833460749994,
          "velocity": 0.7874015748031497,
          "duration": 0.16666674999999032
        },
        {
          "name": "A#2",
          "midi": 46,
          "time": 255.000127499994,
          "velocity": 0.7874015748031497,
          "duration": 0.16666674999999032
        },
        {
          "name": "D4",
          "midi": 62,
          "time": 255.16679424999398,
          "velocity": 0.7874015748031497,
          "duration": 0.16666674999999032
        },
        {
          "name": "A#3",
          "midi": 58,
          "time": 255.33346099999397,
          "velocity": 0.7874015748031497,
          "duration": 0.16666674999999032
        },
        {
          "name": "A3",
          "midi": 57,
          "time": 255.50012774999396,
          "velocity": 0.7874015748031497,
          "duration": 0.16666674999999032
        },
        {
          "name": "G3",
          "midi": 55,
          "time": 255.66679449999396,
          "velocity": 0.7874015748031497,
          "duration": 0.16666674999999032
        },
        {
          "name": "F3",
          "midi": 53,
          "time": 255.83346124999395,
          "velocity": 0.7874015748031497,
          "duration": 0.16666674999999032
        },
        {
          "name": "E3",
          "midi": 52,
          "time": 256.00012799999394,
          "velocity": 0.7874015748031497,
          "duration": 0.16666674999999032
        },
        {
          "name": "C3",
          "midi": 48,
          "time": 256.1667947499939,
          "velocity": 0.7874015748031497,
          "duration": 0.16666674999999032
        },
        {
          "name": "G3",
          "midi": 55,
          "time": 256.3334614999939,
          "velocity": 0.7874015748031497,
          "duration": 0.16666674999999032
        },
        {
          "name": "A#2",
          "midi": 46,
          "time": 256.5001282499939,
          "velocity": 0.7874015748031497,
          "duration": 0.16666674999999032
        },
        {
          "name": "A2",
          "midi": 45,
          "time": 256.6667949999939,
          "velocity": 0.7874015748031497,
          "duration": 0.16666674999999032
        },
        {
          "name": "G3",
          "midi": 55,
          "time": 256.8334617499939,
          "velocity": 0.7874015748031497,
          "duration": 0.16666674999999032
        },
        {
          "name": "F#3",
          "midi": 54,
          "time": 257.0001284999939,
          "velocity": 0.7874015748031497,
          "duration": 0.16666674999999032
        },
        {
          "name": "D3",
          "midi": 50,
          "time": 257.16679524999387,
          "velocity": 0.7874015748031497,
          "duration": 0.16666674999999032
        },
        {
          "name": "A3",
          "midi": 57,
          "time": 257.33346199999386,
          "velocity": 0.7874015748031497,
          "duration": 0.16666674999999032
        },
        {
          "name": "C3",
          "midi": 48,
          "time": 257.50012874999385,
          "velocity": 0.7874015748031497,
          "duration": 0.16666674999999032
        },
        {
          "name": "A#2",
          "midi": 46,
          "time": 257.66679549999384,
          "velocity": 0.7874015748031497,
          "duration": 0.16666674999999032
        },
        {
          "name": "A3",
          "midi": 57,
          "time": 257.83346224999383,
          "velocity": 0.7874015748031497,
          "duration": 0.16666674999999032
        },
        {
          "name": "G3",
          "midi": 55,
          "time": 258.0001289999938,
          "velocity": 0.7874015748031497,
          "duration": 0.16666674999999032
        },
        {
          "name": "D#3",
          "midi": 51,
          "time": 258.1667957499938,
          "velocity": 0.7874015748031497,
          "duration": 0.16666674999999032
        },
        {
          "name": "A#3",
          "midi": 58,
          "time": 258.3334624999938,
          "velocity": 0.7874015748031497,
          "duration": 0.16666674999999032
        },
        {
          "name": "D3",
          "midi": 50,
          "time": 258.5001292499938,
          "velocity": 0.7874015748031497,
          "duration": 0.16666674999999032
        },
        {
          "name": "C3",
          "midi": 48,
          "time": 258.6667959999938,
          "velocity": 0.7874015748031497,
          "duration": 0.16666674999999032
        },
        {
          "name": "A#3",
          "midi": 58,
          "time": 258.83346274999377,
          "velocity": 0.7874015748031497,
          "duration": 0.16666674999999032
        },
        {
          "name": "A3",
          "midi": 57,
          "time": 259.00012949999376,
          "velocity": 0.7874015748031497,
          "duration": 0.16666674999999032
        },
        {
          "name": "F3",
          "midi": 53,
          "time": 259.16679624999375,
          "velocity": 0.7874015748031497,
          "duration": 0.16666674999999032
        },
        {
          "name": "C4",
          "midi": 60,
          "time": 259.33346299999374,
          "velocity": 0.7874015748031497,
          "duration": 0.16666674999999032
        },
        {
          "name": "D#3",
          "midi": 51,
          "time": 259.50012974999373,
          "velocity": 0.7874015748031497,
          "duration": 0.16666674999999032
        },
        {
          "name": "D3",
          "midi": 50,
          "time": 259.6667964999937,
          "velocity": 0.7874015748031497,
          "duration": 0.16666674999999032
        },
        {
          "name": "C4",
          "midi": 60,
          "time": 259.8334632499937,
          "velocity": 0.7874015748031497,
          "duration": 0.16666674999999032
        },
        {
          "name": "A#3",
          "midi": 58,
          "time": 260.0001299999937,
          "velocity": 0.7874015748031497,
          "duration": 0.16666674999999032
        },
        {
          "name": "G3",
          "midi": 55,
          "time": 260.1667967499937,
          "velocity": 0.7874015748031497,
          "duration": 0.16666674999999032
        },
        {
          "name": "D4",
          "midi": 62,
          "time": 260.3334634999937,
          "velocity": 0.7874015748031497,
          "duration": 0.16666674999999032
        },
        {
          "name": "F3",
          "midi": 53,
          "time": 260.5001302499937,
          "velocity": 0.7874015748031497,
          "duration": 0.16666674999999032
        },
        {
          "name": "E3",
          "midi": 52,
          "time": 260.66679699999366,
          "velocity": 0.7874015748031497,
          "duration": 0.16666674999999032
        },
        {
          "name": "D4",
          "midi": 62,
          "time": 260.83346374999365,
          "velocity": 0.7874015748031497,
          "duration": 0.16666674999999032
        },
        {
          "name": "C4",
          "midi": 60,
          "time": 261.00013049999365,
          "velocity": 0.7874015748031497,
          "duration": 0.16666674999999032
        },
        {
          "name": "A3",
          "midi": 57,
          "time": 261.16679724999364,
          "velocity": 0.7874015748031497,
          "duration": 0.16666674999999032
        },
        {
          "name": "D#4",
          "midi": 63,
          "time": 261.3334639999936,
          "velocity": 0.7874015748031497,
          "duration": 0.16666674999999032
        },
        {
          "name": "G3",
          "midi": 55,
          "time": 261.5001307499936,
          "velocity": 0.7874015748031497,
          "duration": 0.16666674999999032
        },
        {
          "name": "F#3",
          "midi": 54,
          "time": 261.6667974999936,
          "velocity": 0.7874015748031497,
          "duration": 0.16666674999999032
        },
        {
          "name": "D#4",
          "midi": 63,
          "time": 261.8334642499936,
          "velocity": 0.7874015748031497,
          "duration": 0.16666674999999032
        },
        {
          "name": "D4",
          "midi": 62,
          "time": 262.0001309999936,
          "velocity": 0.7874015748031497,
          "duration": 0.16666674999999032
        },
        {
          "name": "A#3",
          "midi": 58,
          "time": 262.1667977499936,
          "velocity": 0.7874015748031497,
          "duration": 0.16666674999999032
        },
        {
          "name": "G4",
          "midi": 67,
          "time": 262.33346449999357,
          "velocity": 0.7874015748031497,
          "duration": 0.16666674999999032
        },
        {
          "name": "A#3",
          "midi": 58,
          "time": 262.50013124999356,
          "velocity": 0.7874015748031497,
          "duration": 0.16666674999999032
        },
        {
          "name": "A3",
          "midi": 57,
          "time": 262.66679799999355,
          "velocity": 0.7874015748031497,
          "duration": 0.16666674999999032
        },
        {
          "name": "C4",
          "midi": 60,
          "time": 262.83346474999354,
          "velocity": 0.7874015748031497,
          "duration": 0.16666674999999032
        },
        {
          "name": "A#3",
          "midi": 58,
          "time": 263.00013149999353,
          "velocity": 0.7874015748031497,
          "duration": 0.16666674999999032
        },
        {
          "name": "G3",
          "midi": 55,
          "time": 263.1667982499935,
          "velocity": 0.7874015748031497,
          "duration": 0.16666674999999032
        },
        {
          "name": "F#3",
          "midi": 54,
          "time": 263.3334649999935,
          "velocity": 0.7874015748031497,
          "duration": 0.16666674999999032
        },
        {
          "name": "A3",
          "midi": 57,
          "time": 263.5001317499935,
          "velocity": 0.7874015748031497,
          "duration": 0.16666674999999032
        },
        {
          "name": "D3",
          "midi": 50,
          "time": 263.6667984999935,
          "velocity": 0.7874015748031497,
          "duration": 0.16666674999999032
        },
        {
          "name": "C3",
          "midi": 48,
          "time": 263.8334652499935,
          "velocity": 0.7874015748031497,
          "duration": 0.16666674999999032
        },
        {
          "name": "A#2",
          "midi": 46,
          "time": 264.00013199999347,
          "velocity": 0.7874015748031497,
          "duration": 0.16666674999999032
        },
        {
          "name": "G3",
          "midi": 55,
          "time": 264.16679874999346,
          "velocity": 0.7874015748031497,
          "duration": 0.16666674999999032
        },
        {
          "name": "F#3",
          "midi": 54,
          "time": 264.33346549999345,
          "velocity": 0.7874015748031497,
          "duration": 0.16666674999999032
        },
        {
          "name": "A3",
          "midi": 57,
          "time": 264.50013224999344,
          "velocity": 0.7874015748031497,
          "duration": 0.16666674999999032
        },
        {
          "name": "G3",
          "midi": 55,
          "time": 264.66679899999343,
          "velocity": 0.7874015748031497,
          "duration": 0.16666674999999032
        },
        {
          "name": "A#3",
          "midi": 58,
          "time": 264.8334657499934,
          "velocity": 0.7874015748031497,
          "duration": 0.16666674999999032
        },
        {
          "name": "C3",
          "midi": 48,
          "time": 265.0001324999934,
          "velocity": 0.7874015748031497,
          "duration": 0.16666674999999032
        },
        {
          "name": "A3",
          "midi": 57,
          "time": 265.1667992499934,
          "velocity": 0.7874015748031497,
          "duration": 0.16666674999999032
        },
        {
          "name": "G3",
          "midi": 55,
          "time": 265.3334659999934,
          "velocity": 0.7874015748031497,
          "duration": 0.16666674999999032
        },
        {
          "name": "A#3",
          "midi": 58,
          "time": 265.5001327499934,
          "velocity": 0.7874015748031497,
          "duration": 0.16666674999999032
        },
        {
          "name": "A3",
          "midi": 57,
          "time": 265.6667994999934,
          "velocity": 0.7874015748031497,
          "duration": 0.16666674999999032
        },
        {
          "name": "C4",
          "midi": 60,
          "time": 265.83346624999336,
          "velocity": 0.7874015748031497,
          "duration": 0.16666674999999032
        },
        {
          "name": "D3",
          "midi": 50,
          "time": 266.00013299999335,
          "velocity": 0.7874015748031497,
          "duration": 0.16666674999999032
        },
        {
          "name": "A#3",
          "midi": 58,
          "time": 266.16679974999334,
          "velocity": 0.7874015748031497,
          "duration": 0.16666674999999032
        },
        {
          "name": "A3",
          "midi": 57,
          "time": 266.33346649999334,
          "velocity": 0.7874015748031497,
          "duration": 0.16666674999999032
        },
        {
          "name": "C4",
          "midi": 60,
          "time": 266.5001332499933,
          "velocity": 0.7874015748031497,
          "duration": 0.16666674999999032
        },
        {
          "name": "A#3",
          "midi": 58,
          "time": 266.6667999999933,
          "velocity": 0.7874015748031497,
          "duration": 0.16666674999999032
        },
        {
          "name": "D4",
          "midi": 62,
          "time": 266.8334667499933,
          "velocity": 0.7874015748031497,
          "duration": 0.16666674999999032
        },
        {
          "name": "D#3",
          "midi": 51,
          "time": 267.0001334999933,
          "velocity": 0.7874015748031497,
          "duration": 0.16666674999999032
        },
        {
          "name": "C4",
          "midi": 60,
          "time": 267.1668002499933,
          "velocity": 0.7874015748031497,
          "duration": 0.16666674999999032
        },
        {
          "name": "B3",
          "midi": 59,
          "time": 267.3334669999933,
          "velocity": 0.7874015748031497,
          "duration": 0.16666674999999032
        },
        {
          "name": "D4",
          "midi": 62,
          "time": 267.50013374999327,
          "velocity": 0.7874015748031497,
          "duration": 0.16666674999999032
        },
        {
          "name": "C4",
          "midi": 60,
          "time": 267.66680049999326,
          "velocity": 0.7874015748031497,
          "duration": 0.16666674999999032
        },
        {
          "name": "D#4",
          "midi": 63,
          "time": 267.83346724999325,
          "velocity": 0.7874015748031497,
          "duration": 0.16666674999999032
        },
        {
          "name": "F#3",
          "midi": 54,
          "time": 268.00013399999324,
          "velocity": 0.7874015748031497,
          "duration": 0.16666674999999032
        },
        {
          "name": "D#4",
          "midi": 63,
          "time": 268.16680074999323,
          "velocity": 0.7874015748031497,
          "duration": 0.16666674999999032
        },
        {
          "name": "D4",
          "midi": 62,
          "time": 268.3334674999932,
          "velocity": 0.7874015748031497,
          "duration": 0.16666674999999032
        },
        {
          "name": "C4",
          "midi": 60,
          "time": 268.5001342499932,
          "velocity": 0.7874015748031497,
          "duration": 0.16666674999999032
        },
        {
          "name": "A#3",
          "midi": 58,
          "time": 268.6668009999932,
          "velocity": 0.7874015748031497,
          "duration": 0.16666674999999032
        },
        {
          "name": "A3",
          "midi": 57,
          "time": 268.8334677499932,
          "velocity": 0.7874015748031497,
          "duration": 0.16666674999999032
        },
        {
          "name": "A#3",
          "midi": 58,
          "time": 269.0001344999932,
          "velocity": 0.7874015748031497,
          "duration": 0.16666674999999032
        },
        {
          "name": "D4",
          "midi": 62,
          "time": 269.16680124999317,
          "velocity": 0.7874015748031497,
          "duration": 0.16666674999999032
        },
        {
          "name": "G4",
          "midi": 67,
          "time": 269.33346799999316,
          "velocity": 0.7874015748031497,
          "duration": 0.16666674999999032
        },
        {
          "name": "A#4",
          "midi": 70,
          "time": 269.50013474999315,
          "velocity": 0.7874015748031497,
          "duration": 0.16666674999999032
        },
        {
          "name": "G4",
          "midi": 67,
          "time": 269.66680149999314,
          "velocity": 0.7874015748031497,
          "duration": 0.16666674999999032
        },
        {
          "name": "D4",
          "midi": 62,
          "time": 269.83346824999313,
          "velocity": 0.7874015748031497,
          "duration": 0.16666674999999032
        },
        {
          "name": "A#3",
          "midi": 58,
          "time": 270.0001349999931,
          "velocity": 0.7874015748031497,
          "duration": 0.16666674999999032
        },
        {
          "name": "G3",
          "midi": 55,
          "time": 270.1668017499931,
          "velocity": 0.7874015748031497,
          "duration": 0.16666674999999032
        },
        {
          "name": "D3",
          "midi": 50,
          "time": 270.3334684999931,
          "velocity": 0.7874015748031497,
          "duration": 0.33333349999998063
        },
        {
          "name": "F#4",
          "midi": 66,
          "time": 270.6668019999931,
          "velocity": 0.7874015748031497,
          "duration": 0.33333349999998063
        },
        {
          "name": "G4",
          "midi": 67,
          "time": 271.00013549999306,
          "velocity": 0.7874015748031497,
          "duration": 1.0000004999999987
        }
      ],
      "controlChanges": {},
      "id": 1,
      "name": "Solo Violin 1",
      "channelNumber": 0,
      "isPercussion": false
    }
  ]
}
var output = []
for (var i = 0; i < bufferA.tracks[1]["notes"].length; i++) {
  Tone = bufferA.tracks[1]["notes"][i].midi
  aTime = parseInt(bufferA.tracks[1]["notes"][i].time * 1000)
  bTime = parseInt((bufferA.tracks[1]["notes"][i].time + bufferA.tracks[1]["notes"][i].duration) * 1000)
  output.push(aTime)
  output.push(1)
  output.push(Tone)
  output.push(bTime)
  output.push(2)
  output.push(Tone)
}
var fs = require('fs');
var fileName = './midi';
fs.writeFileSync(fileName, output.toString('utf8'));